{"glyphs":{"0":{"ha":505,"x_min":38,"x_max":470,"o":"m 259 498 q 311 498 259 498 q 416 435 362 498 q 470 250 470 371 q 411 60 470 129 q 251 -9 353 -9 q 93 55 148 -9 q 38 240 38 119 q 97 430 38 361 q 259 498 156 498 m 138 244 q 253 105 138 105 q 369 241 369 105 q 253 379 370 378 q 166 347 195 379 q 138 244 138 314 z "},"1":{"ha":349,"x_min":8,"x_max":253,"o":"m 247 202 l 253 0 l 122 0 l 127 190 l 127 350 l 17 321 l 8 328 l 8 431 l 235 497 l 253 483 l 247 202 z "},"2":{"ha":457,"x_min":38,"x_max":435,"o":"m 235 497 q 345 465 302 497 q 388 378 388 434 q 279 183 388 300 l 206 103 l 208 99 l 339 99 l 427 108 l 435 99 l 419 -5 l 301 0 l 80 0 l 44 -1 l 38 3 l 38 82 l 169 210 q 261 344 261 302 q 246 375 261 363 q 205 387 231 387 q 78 330 140 387 l 62 330 l 42 430 q 235 497 141 497 z "},"3":{"ha":418,"x_min":23,"x_max":382,"o":"m 367 365 q 275 225 367 275 l 275 219 q 380 91 382 190 q 350 -5 380 38 q 138 -92 287 -92 q 31 -83 86 -92 l 26 17 l 34 26 q 143 6 91 6 q 227 27 196 5 q 258 87 258 49 q 169 156 258 153 l 101 156 l 95 165 l 99 253 l 140 256 q 207 280 178 257 q 236 332 236 302 q 170 392 236 392 q 56 347 119 392 l 42 347 l 23 441 q 190 498 106 498 q 321 462 274 498 q 367 365 367 426 z "},"4":{"ha":488,"x_min":19,"x_max":462,"o":"m 376 53 l 380 -78 l 374 -86 l 274 -93 l 266 -86 l 269 55 l 114 55 l 29 52 l 19 64 l 19 144 l 260 492 l 376 492 l 374 153 l 456 153 l 462 141 l 457 52 l 376 53 m 271 153 l 271 345 l 262 345 l 131 153 l 271 153 z "},"5":{"ha":419,"x_min":18,"x_max":389,"o":"m 375 389 l 365 379 l 278 389 l 165 389 l 162 280 l 222 267 q 343 213 306 251 q 380 114 380 175 q 350 5 380 52 q 262 -69 319 -43 q 143 -95 205 -95 q 26 -83 82 -95 l 18 18 l 27 27 q 144 5 92 5 q 228 30 196 5 q 260 92 260 55 q 236 147 260 129 q 164 175 213 166 l 70 192 l 61 202 l 66 480 l 82 495 l 138 492 l 280 492 l 380 497 l 389 489 l 375 389 z "},"6":{"ha":469,"x_min":31,"x_max":437,"o":"m 286 350 q 318 350 286 350 q 394 302 350 350 q 437 191 437 254 q 413 85 437 129 q 343 16 389 42 q 231 -10 296 -10 q 83 48 135 -10 q 31 217 31 106 q 106 424 31 328 q 315 580 180 519 l 322 580 l 410 522 l 410 510 q 252 430 309 471 q 170 332 195 389 l 178 323 q 286 350 222 350 m 238 261 q 151 231 195 260 l 151 210 q 170 108 151 141 q 234 74 190 74 q 321 167 321 74 q 238 261 321 261 z "},"7":{"ha":419,"x_min":14,"x_max":395,"o":"m 347 492 l 395 495 l 395 398 l 235 49 l 180 -97 l 75 -67 l 67 -47 l 271 384 l 110 384 l 23 375 l 14 387 l 23 496 l 132 492 l 347 492 z "},"8":{"ha":478,"x_min":40,"x_max":435,"o":"m 247 579 q 288 579 247 579 q 374 541 330 579 q 418 430 418 502 q 332 304 418 358 l 332 297 q 407 243 379 274 q 435 162 435 213 q 378 37 435 83 q 229 -9 321 -9 q 89 32 138 -9 q 40 138 40 73 q 147 278 40 228 l 147 283 q 58 412 58 332 q 111 535 58 492 q 247 579 164 579 m 251 335 q 317 422 317 371 q 297 471 317 453 q 241 489 278 489 q 185 471 205 489 q 165 421 165 453 q 187 371 165 389 q 251 335 209 352 m 228 244 q 169 209 190 228 q 148 154 148 190 q 171 99 148 119 q 238 78 195 78 q 304 99 280 78 q 328 152 328 119 q 304 204 328 184 q 228 244 279 223 z "},"9":{"ha":469,"x_min":65,"x_max":471,"o":"m 216 175 q 184 175 216 175 q 108 223 152 175 q 65 334 65 271 q 89 441 65 397 q 160 510 113 484 q 271 536 206 536 q 419 478 367 536 q 471 308 471 419 q 397 102 471 197 q 187 -55 322 6 l 180 -55 l 92 4 l 92 16 q 251 95 193 55 q 332 193 308 136 l 325 202 q 216 175 280 175 m 265 265 q 352 295 308 266 l 352 315 q 332 418 352 384 q 269 452 313 452 q 182 358 182 452 q 265 265 182 265 z "}," ":{"ha":145,"x_min":0,"x_max":0,"o":""},"!":{"ha":256,"x_min":49,"x_max":204,"o":"m 169 231 l 95 221 l 82 234 l 74 626 l 86 641 l 188 648 l 204 632 l 169 231 m 119 131 q 135 131 119 131 q 167 114 151 131 q 184 64 184 96 q 166 13 184 32 q 116 -6 148 -6 q 67 11 84 -6 q 49 60 49 29 q 68 111 49 91 q 119 131 87 131 z "},"\"":{"ha":343,"x_min":53,"x_max":306,"o":"m 126 401 l 66 392 l 56 401 l 53 617 l 153 624 l 161 615 l 126 401 m 273 401 l 210 392 l 201 401 l 199 617 l 299 624 l 306 615 l 273 401 z "},"#":{"ha":532,"x_min":19,"x_max":514,"o":"m 387 245 l 474 245 l 483 236 l 475 170 l 373 170 l 345 31 l 270 31 l 263 40 l 289 170 l 192 170 l 165 31 l 90 31 l 83 40 l 109 170 l 27 170 l 19 179 l 26 245 l 123 245 l 143 347 l 60 347 l 52 356 l 57 421 l 157 421 l 183 557 l 256 557 l 265 546 l 240 421 l 337 421 l 365 557 l 436 557 l 445 546 l 421 421 l 505 421 l 514 413 l 508 347 l 406 347 l 387 245 m 226 347 l 206 245 l 304 245 l 323 347 l 226 347 z "},"$":{"ha":436,"x_min":38,"x_max":391,"o":"m 391 151 q 354 53 391 96 q 247 -4 317 9 l 238 -132 l 164 -132 l 153 -122 l 161 -6 q 38 22 96 -1 l 53 136 l 66 144 q 138 98 97 116 q 207 80 178 80 q 253 94 236 80 q 270 129 270 108 q 251 164 270 151 q 188 193 231 177 q 117 227 145 210 q 49 341 49 269 q 88 439 49 397 q 193 492 126 480 l 201 627 l 275 627 l 287 615 l 279 496 q 379 474 332 492 l 361 365 l 344 360 q 230 406 280 406 q 187 393 202 406 q 171 362 171 380 q 191 329 171 343 q 253 297 210 315 q 323 263 296 279 q 391 151 391 225 z "},"%":{"ha":829,"x_min":30,"x_max":800,"o":"m 656 617 l 202 -90 l 147 -56 l 140 -43 l 594 667 l 648 635 l 656 617 m 186 632 q 223 632 186 632 q 297 588 260 632 q 334 458 334 544 q 293 325 334 373 q 179 278 253 278 q 30 448 30 278 q 71 585 30 537 q 186 632 113 632 m 182 357 q 253 451 253 356 q 180 546 253 546 q 128 524 144 546 q 112 456 112 502 q 182 357 112 357 m 652 348 q 689 348 652 348 q 763 304 726 348 q 800 174 800 260 q 759 42 800 88 q 644 -5 719 -5 q 496 165 496 -5 q 537 301 496 254 q 652 348 579 348 m 578 171 q 648 73 578 73 q 719 167 719 73 q 646 262 719 262 q 594 241 610 262 q 578 171 578 219 z "},"&":{"ha":691,"x_min":42,"x_max":684,"o":"m 288 543 q 200 467 200 543 q 212 423 200 443 q 254 376 223 402 l 460 192 q 453 336 484 261 l 392 336 l 387 344 l 395 427 l 678 427 l 684 418 l 676 336 l 544 336 l 541 328 q 553 230 553 283 q 530 129 553 178 l 657 13 l 657 5 q 587 -52 626 -30 l 579 -52 l 467 49 q 280 -8 393 -8 q 104 38 167 -9 q 42 167 42 86 q 152 328 42 275 l 152 335 q 87 474 87 402 q 140 589 87 546 q 285 632 193 632 q 449 602 376 632 l 421 509 l 405 509 q 288 543 345 543 m 398 110 l 206 286 q 152 193 152 248 q 188 109 152 138 q 289 80 225 80 q 398 110 354 80 z "},"'":{"ha":199,"x_min":53,"x_max":161,"o":"m 126 401 l 66 392 l 56 401 l 53 617 l 153 624 l 161 615 l 126 401 z "},"(":{"ha":286,"x_min":67,"x_max":283,"o":"m 283 592 q 198 458 225 539 q 171 251 171 376 q 198 47 171 125 q 283 -86 225 -31 l 283 -96 l 236 -135 l 226 -135 q 106 16 143 -75 q 68 251 67 105 q 106 489 69 396 q 226 643 143 582 l 236 643 l 283 602 l 283 592 z "},")":{"ha":286,"x_min":23,"x_max":239,"o":"m 23 -51 q 108 84 82 3 q 135 291 135 165 q 108 495 135 417 q 23 627 82 572 l 23 637 l 70 676 l 80 676 q 200 526 164 617 q 238 291 239 436 q 201 53 238 145 q 80 -101 164 -40 l 70 -101 l 23 -61 l 23 -51 z "},"*":{"ha":371,"x_min":26,"x_max":358,"o":"m 208 594 l 166 589 l 158 596 l 156 709 q 231 722 192 722 l 235 714 l 208 594 m 140 543 l 130 539 l 27 570 q 38 645 26 604 l 47 649 l 145 583 l 140 543 m 323 623 q 358 554 344 592 l 353 548 l 236 539 l 218 575 l 222 584 l 323 623 m 297 431 q 244 376 280 406 l 235 378 l 192 495 l 221 522 l 231 519 l 297 431 m 174 491 l 116 398 q 45 431 92 405 l 47 441 l 136 519 l 173 501 l 174 491 z "},"+":{"ha":466,"x_min":23,"x_max":444,"o":"m 278 296 l 435 296 l 444 288 l 437 209 l 278 209 l 278 49 l 199 43 l 190 51 l 190 209 l 31 209 l 23 218 l 29 296 l 190 296 l 190 458 l 267 465 l 278 456 l 278 296 z "},",":{"ha":222,"x_min":23,"x_max":183,"o":"m 139 129 q 183 44 183 93 q 65 -123 183 -40 l 23 -86 l 23 -78 q 75 18 77 -34 q 44 78 75 52 l 45 87 q 139 129 90 114 z "},"-":{"ha":295,"x_min":26,"x_max":267,"o":"m 267 219 l 38 183 l 26 195 l 26 275 l 258 310 l 267 300 l 267 219 z "},".":{"ha":222,"x_min":43,"x_max":178,"o":"m 114 131 q 178 65 178 131 q 159 13 178 32 q 109 -6 140 -6 q 60 11 78 -6 q 43 60 43 29 q 62 111 43 91 q 114 131 80 131 z "},"/":{"ha":275,"x_min":-1,"x_max":297,"o":"m 96 -112 l 6 -112 l -1 -101 l 199 662 l 287 662 l 297 649 l 96 -112 z "},":":{"ha":222,"x_min":39,"x_max":174,"o":"m 110 131 q 174 65 174 131 q 155 13 174 32 q 105 -6 136 -6 q 56 11 74 -6 q 39 60 39 29 q 58 111 39 91 q 110 131 77 131 m 110 404 q 174 337 174 404 q 155 286 174 305 q 105 266 136 266 q 56 284 74 266 q 39 332 39 301 q 58 384 39 363 q 110 404 77 404 z "},";":{"ha":222,"x_min":19,"x_max":179,"o":"m 135 129 q 179 44 179 93 q 61 -123 179 -40 l 19 -86 l 19 -78 q 71 18 73 -34 q 40 78 71 52 l 42 87 q 135 129 86 114 m 110 404 q 174 337 174 404 q 155 286 174 305 q 105 266 136 266 q 56 284 74 266 q 39 332 39 301 q 58 384 39 363 q 110 404 77 404 z "},"<":{"ha":466,"x_min":66,"x_max":466,"o":"m 66 305 l 66 200 l 431 61 l 443 70 l 461 141 l 157 253 l 157 260 l 460 374 l 466 384 l 437 458 l 74 317 l 66 305 z "},"=":{"ha":466,"x_min":23,"x_max":444,"o":"m 437 117 l 31 117 l 23 126 l 29 205 l 435 205 l 444 196 l 437 117 m 437 300 l 31 300 l 23 309 l 29 387 l 435 387 l 444 379 l 437 300 z "},">":{"ha":466,"x_min":34,"x_max":434,"o":"m 434 305 l 434 200 l 69 61 l 57 70 l 39 141 l 343 253 l 343 260 l 40 374 l 34 384 l 62 458 l 426 317 l 434 305 z "},"?":{"ha":330,"x_min":45,"x_max":348,"o":"m 82 650 q 348 492 348 635 q 260 358 348 408 l 190 317 l 188 312 l 193 230 l 103 218 l 95 226 l 84 344 l 90 353 l 177 398 q 231 469 231 427 q 190 532 231 511 q 55 558 148 553 l 45 571 l 69 644 l 82 650 m 152 131 q 167 131 152 131 q 201 114 183 131 q 218 64 218 96 q 199 13 218 32 q 149 -6 180 -6 q 101 11 118 -6 q 83 60 83 29 q 102 111 83 91 q 152 131 121 131 z "},"@":{"ha":820,"x_min":27,"x_max":801,"o":"m 801 304 q 705 80 801 158 q 434 -1 610 1 l 456 152 l 444 152 q 328 -6 386 53 l 310 -6 q 234 51 257 13 q 212 152 212 90 q 237 276 212 214 q 313 384 262 337 q 439 449 365 431 l 444 449 l 519 430 l 589 450 l 598 445 l 553 109 l 553 88 q 674 156 631 100 q 717 291 717 212 q 683 426 717 371 q 444 536 613 539 q 271 490 345 535 q 155 368 196 445 q 114 192 114 291 q 160 20 114 93 q 289 -92 205 -53 q 483 -131 373 -131 l 488 -144 l 453 -205 q 229 -158 325 -204 q 80 -27 134 -113 q 27 182 27 60 q 81 404 27 305 q 234 560 135 504 q 447 617 332 617 q 639 578 561 617 q 759 469 717 540 q 801 304 801 398 m 480 322 l 482 337 l 482 341 l 419 361 q 345 313 373 361 q 317 186 317 265 q 343 108 317 106 q 384 143 353 108 q 480 322 414 178 z "},"A":{"ha":583,"x_min":8,"x_max":569,"o":"m 434 0 l 418 82 l 401 140 l 279 143 l 171 140 l 154 88 l 138 0 l 8 0 l 219 626 l 376 626 l 569 0 l 434 0 m 300 502 l 291 502 l 205 241 l 289 240 l 374 241 l 300 502 z "},"B":{"ha":562,"x_min":75,"x_max":532,"o":"m 501 471 q 406 325 501 363 q 532 177 532 296 q 247 -5 532 -5 q 75 0 164 -5 l 83 187 l 75 626 l 299 627 q 448 587 395 627 q 501 471 501 546 m 366 453 q 341 514 366 496 q 253 532 317 532 l 205 532 l 202 362 l 293 358 q 366 453 366 378 m 284 90 q 307 90 284 90 q 365 114 331 90 q 398 183 398 138 q 308 269 398 252 l 200 267 l 199 199 l 202 93 q 284 90 236 90 z "},"C":{"ha":502,"x_min":27,"x_max":491,"o":"m 327 635 q 491 596 418 633 l 467 485 l 457 482 q 321 526 396 526 q 166 322 166 526 q 325 101 166 103 q 469 144 402 101 l 480 138 l 470 26 q 314 -9 396 -8 q 101 73 174 -9 q 27 309 27 154 q 105 549 27 463 q 327 635 183 635 z "},"D":{"ha":635,"x_min":75,"x_max":610,"o":"m 328 630 q 537 554 463 630 q 610 324 610 478 q 528 82 610 170 q 295 -6 447 -6 q 75 0 187 -6 l 83 187 l 75 626 l 328 630 m 472 306 q 435 473 472 421 q 318 526 398 526 q 208 519 266 526 l 202 199 l 205 101 q 318 96 273 96 q 472 306 472 96 z "},"E":{"ha":493,"x_min":75,"x_max":480,"o":"m 478 99 l 469 0 l 75 0 l 83 187 l 75 626 l 472 626 l 480 615 l 471 517 l 321 522 l 208 522 l 205 371 l 314 369 l 415 371 l 423 362 l 414 263 l 304 266 l 204 265 l 202 199 l 205 104 l 315 103 l 470 109 l 478 99 z "},"F":{"ha":441,"x_min":75,"x_max":456,"o":"m 205 352 l 292 350 l 398 353 l 408 344 l 398 247 l 282 249 l 204 248 l 202 199 l 208 0 l 75 0 l 83 187 l 75 626 l 448 626 l 456 615 l 447 517 l 297 522 l 208 522 l 205 352 z "},"G":{"ha":580,"x_min":27,"x_max":537,"o":"m 497 475 q 327 527 408 527 q 206 476 247 527 q 165 306 165 424 q 235 117 165 157 q 320 96 271 96 q 413 109 369 96 l 415 162 l 413 260 l 535 267 l 532 183 l 535 30 q 319 -9 418 -9 q 101 71 174 -9 q 27 306 27 151 q 112 548 27 462 q 353 635 197 635 q 537 596 456 633 l 510 478 l 497 475 z "},"H":{"ha":675,"x_min":75,"x_max":601,"o":"m 598 0 l 466 0 l 474 187 l 472 260 l 331 262 l 204 260 l 202 199 l 208 0 l 75 0 l 83 187 l 75 626 l 210 626 l 205 369 l 339 365 l 471 369 l 466 626 l 601 626 l 593 199 l 598 0 z "},"I":{"ha":286,"x_min":75,"x_max":210,"o":"m 208 0 l 75 0 l 83 187 l 75 626 l 210 626 l 202 199 l 208 0 z "},"J":{"ha":325,"x_min":5,"x_max":251,"o":"m 247 117 q 228 23 247 61 q 55 -103 192 -51 l 14 -32 l 14 -22 q 99 40 74 9 q 125 119 125 71 l 125 193 l 119 528 l 16 526 l 5 536 l 13 626 l 251 626 l 244 206 l 247 117 z "},"K":{"ha":566,"x_min":74,"x_max":576,"o":"m 336 331 q 576 27 448 175 l 574 13 q 445 -10 514 -1 l 430 -1 q 205 322 291 188 l 202 199 l 208 0 l 74 0 l 83 187 l 74 626 l 209 626 l 205 335 l 379 566 l 415 626 l 558 626 l 336 331 z "},"L":{"ha":421,"x_min":71,"x_max":419,"o":"m 410 0 l 71 0 l 79 187 l 71 626 l 206 626 l 199 199 l 201 109 l 411 109 l 419 99 l 410 0 z "},"M":{"ha":774,"x_min":43,"x_max":728,"o":"m 611 0 l 601 190 l 580 431 l 570 431 l 430 66 l 328 66 l 200 431 l 192 431 l 167 202 l 153 0 l 43 0 l 106 626 l 258 626 l 283 533 l 383 238 l 391 238 l 496 533 l 523 626 l 671 626 l 728 0 l 611 0 z "},"N":{"ha":675,"x_min":75,"x_max":601,"o":"m 598 0 l 456 0 l 201 424 l 192 424 l 192 217 l 196 0 l 75 0 l 83 184 l 78 626 l 219 626 l 474 202 l 483 202 l 478 620 l 601 628 l 593 193 l 598 0 z "},"O":{"ha":624,"x_min":27,"x_max":598,"o":"m 319 635 q 387 635 319 635 q 527 554 456 635 q 598 319 598 474 q 521 77 598 165 q 307 -10 444 -10 q 99 72 170 -10 q 27 309 27 154 q 104 549 27 463 q 319 635 182 635 m 313 528 q 274 528 313 528 q 200 480 235 528 q 165 314 165 431 q 199 145 165 197 q 313 92 234 92 q 426 141 392 92 q 461 307 461 190 q 426 476 461 424 q 313 528 392 528 z "},"P":{"ha":536,"x_min":75,"x_max":519,"o":"m 317 627 q 467 578 414 627 q 519 446 519 528 q 489 312 519 363 q 400 230 458 260 q 265 200 343 200 l 202 200 l 202 199 l 208 0 l 75 0 l 83 187 l 75 626 l 317 627 m 383 424 q 356 503 383 478 q 274 530 330 528 l 208 526 l 205 301 l 293 296 q 383 424 383 323 z "},"Q":{"ha":630,"x_min":27,"x_max":717,"o":"m 717 -108 q 654 -192 689 -160 l 644 -195 q 323 -10 463 -127 l 304 -10 q 99 72 171 -10 q 27 309 27 154 q 104 549 27 463 q 319 635 182 635 q 527 554 456 635 q 598 325 598 474 q 558 133 598 212 q 441 18 517 55 q 710 -93 569 -60 l 717 -108 m 165 314 q 165 256 165 314 q 200 145 165 197 q 312 92 235 92 q 425 142 389 92 q 461 308 461 192 q 426 476 461 424 q 312 528 391 528 q 199 480 232 528 q 165 314 165 431 z "},"R":{"ha":572,"x_min":75,"x_max":556,"o":"m 405 249 q 556 31 483 129 l 553 17 q 424 -10 489 -6 l 410 1 q 296 210 340 122 l 202 210 l 202 199 l 208 0 l 75 0 l 83 187 l 75 626 l 317 627 q 469 579 415 627 q 522 441 522 531 q 491 331 522 382 q 405 249 460 280 m 383 428 q 274 530 383 527 l 208 526 l 205 314 l 301 309 q 383 428 384 337 z "},"S":{"ha":483,"x_min":30,"x_max":450,"o":"m 395 480 q 262 531 325 531 q 200 510 223 531 q 177 461 177 489 q 202 414 177 434 q 282 369 227 395 q 370 323 336 344 q 450 184 450 274 q 421 87 450 131 q 339 17 392 43 q 205 -9 286 -9 q 30 31 125 -9 l 49 153 l 64 162 q 149 110 103 129 q 234 92 195 92 q 297 113 274 92 q 321 164 321 134 q 295 213 321 193 q 214 258 269 232 q 126 304 158 283 q 47 441 47 352 q 76 539 47 496 q 158 609 105 583 q 283 633 210 635 q 435 601 356 632 l 414 488 l 395 480 z "},"T":{"ha":488,"x_min":14,"x_max":475,"o":"m 467 517 l 350 523 l 310 523 l 306 199 l 312 0 l 180 0 l 187 187 l 182 523 l 143 523 l 23 517 l 14 528 l 23 626 l 467 626 l 475 615 l 467 517 z "},"U":{"ha":619,"x_min":60,"x_max":563,"o":"m 557 226 q 492 53 558 114 q 304 -9 426 -9 q 121 51 183 -9 q 62 221 60 110 l 64 310 l 60 626 l 192 626 l 186 238 q 310 99 184 99 q 435 231 436 99 l 428 626 l 563 626 l 557 226 z "},"V":{"ha":570,"x_min":10,"x_max":570,"o":"m 201 0 l 10 626 l 144 626 l 158 544 l 278 122 l 287 122 l 423 537 l 440 626 l 570 626 l 358 0 l 201 0 z "},"W":{"ha":877,"x_min":18,"x_max":874,"o":"m 528 0 l 435 300 l 427 300 l 332 0 l 193 0 l 18 626 l 148 626 l 157 550 l 267 136 l 278 136 l 383 474 l 337 626 l 472 626 l 487 536 l 600 136 l 609 136 l 735 540 l 750 626 l 874 626 l 667 0 l 528 0 z "},"X":{"ha":592,"x_min":13,"x_max":582,"o":"m 582 0 l 423 0 l 393 62 l 289 225 l 177 56 l 149 0 l 13 0 l 213 309 l 14 626 l 173 626 l 202 563 l 301 410 l 401 569 l 428 626 l 569 626 l 379 328 l 582 0 z "},"Y":{"ha":541,"x_min":4,"x_max":545,"o":"m 330 0 l 197 0 l 205 174 l 204 210 l 4 626 l 144 626 l 157 583 l 263 344 l 274 344 l 391 579 l 409 626 l 545 626 l 326 213 l 323 174 l 330 0 z "},"Z":{"ha":531,"x_min":29,"x_max":505,"o":"m 184 100 l 395 100 l 501 109 l 505 101 l 496 -3 l 353 0 l 104 0 l 29 -4 l 29 91 l 344 526 l 144 526 l 39 517 l 32 523 l 43 627 l 435 626 l 496 627 l 496 531 l 184 100 z "},"[":{"ha":286,"x_min":78,"x_max":287,"o":"m 287 565 l 183 552 l 183 -44 l 287 -57 l 287 -117 l 280 -122 l 78 -113 l 84 253 l 78 620 l 280 630 l 287 623 l 287 565 z "},"\\":{"ha":275,"x_min":10,"x_max":309,"o":"m 212 -112 l 301 -112 l 309 -101 l 109 662 l 21 662 l 10 649 l 212 -112 z "},"]":{"ha":286,"x_min":19,"x_max":228,"o":"m 19 -23 l 123 -10 l 123 585 l 19 598 l 19 658 l 26 663 l 228 654 l 222 288 l 228 -79 l 26 -88 l 19 -82 l 19 -23 z "},"^":{"ha":427,"x_min":17,"x_max":413,"o":"m 405 131 l 332 114 l 222 392 l 214 392 l 100 114 l 90 109 l 17 136 l 156 475 l 169 483 l 274 483 l 413 141 l 405 131 z "},"_":{"ha":431,"x_min":-14,"x_max":447,"o":"m 440 -169 l -5 -169 l -14 -158 l -8 -86 l 439 -86 l 447 -96 l 440 -169 z "},"`":{"ha":378,"x_min":71,"x_max":306,"o":"m 71 633 l 73 620 q 104 601 73 620 q 262 505 226 527 l 275 506 l 306 556 q 130 704 193 646 l 117 704 l 71 633 z "},"a":{"ha":466,"x_min":29,"x_max":444,"o":"m 225 461 q 268 461 225 461 q 354 427 312 461 q 397 334 397 393 q 391 223 397 317 q 387 117 391 223 q 391 94 387 100 q 406 88 395 88 q 434 92 418 88 l 444 84 l 431 17 q 361 -8 400 -3 q 286 64 299 -3 l 279 64 q 179 -9 230 12 q 69 29 109 -8 q 29 126 29 65 q 129 240 29 221 l 278 267 l 278 308 q 218 371 278 371 q 78 315 158 371 l 67 321 l 53 406 q 225 461 139 461 m 174 180 q 144 144 144 174 q 195 86 144 86 q 275 131 232 86 l 278 204 l 174 180 z "},"b":{"ha":506,"x_min":62,"x_max":480,"o":"m 302 458 q 434 400 388 458 q 480 231 480 343 q 420 55 480 119 q 256 -10 360 -10 q 147 13 206 -10 l 78 -12 l 62 1 l 70 186 l 64 672 l 192 683 l 190 388 l 193 388 q 302 458 247 437 m 254 74 q 358 215 358 75 q 271 353 358 354 q 188 314 231 353 l 186 202 l 188 92 q 254 74 225 75 z "},"c":{"ha":373,"x_min":29,"x_max":365,"o":"m 245 461 q 365 436 313 461 l 344 334 l 332 328 q 241 356 283 356 q 175 324 200 356 q 151 228 151 292 q 177 129 151 165 q 250 92 204 92 q 349 117 296 92 l 358 109 l 347 9 q 226 -10 288 -9 q 80 51 132 -10 q 29 223 29 112 q 86 397 29 334 q 245 461 143 461 z "},"d":{"ha":509,"x_min":27,"x_max":495,"o":"m 437 117 q 443 94 439 100 q 458 88 447 88 q 485 92 470 88 l 495 84 l 483 17 q 411 -8 452 -3 q 332 60 349 -3 l 325 60 q 227 -6 278 16 q 79 54 131 -6 q 27 226 27 114 q 88 398 27 337 q 254 460 148 460 q 317 454 283 460 l 315 672 l 444 683 l 435 199 l 437 117 m 148 247 q 240 95 148 95 q 319 135 282 95 l 321 188 l 318 356 q 247 373 280 373 q 148 247 148 373 z "},"e":{"ha":457,"x_min":29,"x_max":428,"o":"m 148 209 q 267 86 156 86 q 398 122 331 86 l 409 114 l 392 19 q 256 -10 325 -9 q 88 52 148 -10 q 29 224 29 114 q 89 397 29 334 q 243 460 149 460 q 382 412 336 460 q 428 282 428 365 q 424 228 428 256 l 405 210 l 148 209 m 247 375 q 184 350 209 375 q 151 280 158 326 l 314 286 l 317 296 q 247 375 315 375 z "},"f":{"ha":319,"x_min":26,"x_max":379,"o":"m 295 684 q 379 676 335 685 l 371 580 l 362 574 q 282 593 317 593 q 221 524 222 593 l 219 448 l 330 448 l 334 441 l 328 371 l 218 371 l 214 199 l 222 0 l 92 0 l 100 188 l 99 371 l 30 371 l 26 376 l 31 448 l 97 448 l 96 501 q 148 636 96 588 q 295 684 200 684 z "},"g":{"ha":485,"x_min":44,"x_max":495,"o":"m 495 391 q 419 376 469 384 l 417 373 q 431 308 431 344 q 378 191 431 235 q 235 148 326 148 q 179 153 208 148 q 165 127 165 139 q 188 103 165 110 q 265 90 210 96 q 357 73 319 83 q 423 39 395 64 q 450 -31 450 14 q 422 -112 450 -75 q 228 -190 362 -190 q 92 -153 140 -190 q 44 -58 44 -117 q 126 14 74 -17 l 126 19 q 56 108 56 45 q 122 167 82 139 l 122 171 q 51 291 51 210 q 103 416 51 373 q 247 460 156 460 q 341 441 300 460 q 484 480 411 454 l 495 471 l 495 391 m 319 305 q 241 379 319 379 q 162 304 162 379 q 239 226 162 225 q 319 305 319 225 m 343 -55 q 343 -41 343 -55 q 314 -18 343 -27 q 245 -3 286 -8 q 196 4 204 1 q 151 -55 151 -27 q 174 -99 151 -83 q 242 -114 197 -114 q 315 -98 287 -114 q 343 -55 343 -82 z "},"h":{"ha":515,"x_min":64,"x_max":463,"o":"m 273 353 q 188 314 236 353 l 186 199 l 192 0 l 64 0 l 70 188 l 65 672 l 193 683 l 190 388 l 195 388 q 310 458 248 437 q 423 424 384 458 q 461 328 462 391 l 458 199 l 463 0 l 334 0 l 341 282 q 273 353 344 353 z "},"i":{"ha":245,"x_min":57,"x_max":192,"o":"m 127 674 q 143 674 127 674 q 175 656 158 674 q 192 607 192 639 q 174 556 192 575 q 124 536 156 536 q 75 554 92 536 q 57 602 57 571 q 77 654 57 633 q 127 674 96 674 m 188 0 l 58 0 l 65 187 l 60 444 l 190 454 l 180 199 l 188 0 z "},"j":{"ha":275,"x_min":1,"x_max":213,"o":"m 138 674 q 153 674 138 674 q 186 656 169 674 q 204 607 204 639 q 185 556 204 575 q 135 536 166 536 q 86 554 104 536 q 67 602 67 571 q 87 654 67 633 q 138 674 106 674 m 206 199 l 212 26 q 175 -102 212 -52 q 53 -190 138 -152 l 8 -132 l 8 -121 q 71 -62 52 -96 q 90 23 90 -29 l 91 187 l 86 371 l 9 371 l 1 378 l 6 448 l 90 448 l 210 456 l 213 453 l 206 199 z "},"k":{"ha":480,"x_min":64,"x_max":474,"o":"m 192 0 l 64 0 l 70 188 l 65 672 l 193 683 l 186 199 l 192 0 m 317 248 q 474 22 365 173 l 474 8 q 353 -10 441 1 l 340 -4 q 192 236 249 125 l 192 245 l 305 405 l 328 453 l 465 453 l 317 248 z "},"l":{"ha":254,"x_min":64,"x_max":193,"o":"m 192 0 l 64 0 l 70 188 l 65 672 l 193 683 l 186 199 l 192 0 z "},"m":{"ha":781,"x_min":58,"x_max":728,"o":"m 607 282 q 546 353 609 353 q 454 314 502 353 l 453 199 l 457 0 l 328 0 l 336 282 q 274 353 336 353 q 180 314 230 353 l 180 199 l 187 0 l 58 0 l 65 187 l 60 444 l 182 454 l 182 388 l 188 388 q 305 458 244 437 q 445 386 415 458 l 449 386 q 576 458 506 437 q 689 424 650 458 q 726 328 727 391 l 723 199 l 728 0 l 600 0 l 607 282 z "},"n":{"ha":511,"x_min":58,"x_max":458,"o":"m 336 282 q 275 353 336 353 q 182 312 231 353 l 182 199 l 188 0 l 58 0 l 65 187 l 60 444 l 183 454 l 183 388 l 190 388 q 306 458 245 437 q 419 424 380 458 q 456 328 457 391 l 453 199 l 458 0 l 328 0 l 336 282 z "},"o":{"ha":479,"x_min":29,"x_max":450,"o":"m 243 461 q 295 461 243 461 q 398 402 347 461 q 450 230 450 344 q 394 53 450 116 q 236 -10 337 -10 q 81 49 134 -10 q 29 222 29 108 q 84 398 29 336 q 243 461 140 461 m 239 374 q 215 374 239 374 q 171 342 192 374 q 151 231 151 310 q 171 115 151 152 q 240 78 192 78 q 309 108 288 78 q 330 217 330 138 q 308 335 330 296 q 239 374 286 374 z "},"p":{"ha":500,"x_min":58,"x_max":474,"o":"m 296 458 q 428 400 383 458 q 474 230 474 343 q 413 54 474 118 q 248 -10 353 -10 q 183 -4 217 -10 l 186 -180 l 58 -180 l 65 187 l 58 444 l 182 454 l 180 388 l 188 388 q 296 458 239 435 m 249 74 q 352 215 352 75 q 265 353 352 354 q 180 312 225 353 l 180 199 l 182 90 q 249 74 217 75 z "},"q":{"ha":500,"x_min":27,"x_max":444,"o":"m 444 454 l 435 199 l 443 -180 l 314 -180 l 319 25 l 319 49 l 312 49 q 225 -6 271 16 q 79 54 130 -6 q 27 225 27 114 q 87 398 27 336 q 249 460 147 460 q 365 439 302 460 l 432 460 l 444 454 m 148 241 q 171 132 148 170 q 237 95 195 95 q 319 135 279 95 l 321 186 l 318 352 q 245 373 279 371 q 148 241 148 373 z "},"r":{"ha":336,"x_min":58,"x_max":332,"o":"m 308 453 q 332 450 317 452 l 332 332 l 319 327 q 283 334 302 334 q 180 262 227 334 l 180 199 l 188 0 l 58 0 l 65 187 l 60 444 l 183 454 l 182 365 l 190 365 q 308 453 236 452 z "},"s":{"ha":373,"x_min":19,"x_max":347,"o":"m 202 460 q 239 460 202 460 q 335 437 276 461 l 318 343 l 302 337 q 196 375 244 375 q 159 363 173 375 q 145 332 145 350 q 164 301 145 314 q 221 273 182 288 q 285 242 260 257 q 328 202 310 227 q 347 138 347 177 q 327 65 347 99 q 165 -10 282 -10 q 19 19 95 -10 l 35 121 l 47 129 q 114 88 77 103 q 179 73 152 73 q 221 86 206 73 q 235 117 235 99 q 217 150 235 136 q 160 180 199 164 q 96 210 121 196 q 34 313 34 245 q 81 420 34 380 q 202 460 129 460 z "},"t":{"ha":327,"x_min":12,"x_max":319,"o":"m 244 96 q 259 96 244 96 q 308 112 274 96 l 318 101 l 305 26 q 205 -5 257 0 q 73 122 74 8 l 78 204 l 78 371 l 17 371 l 12 376 l 18 448 l 75 448 l 75 523 l 193 561 l 202 553 l 199 448 l 315 448 l 319 441 l 314 371 l 197 371 l 192 153 q 203 109 192 122 q 244 96 214 96 z "},"u":{"ha":506,"x_min":56,"x_max":492,"o":"m 456 88 q 483 92 467 88 l 492 84 l 480 17 q 409 -8 449 -3 q 332 65 348 -3 l 322 65 q 208 -5 266 12 q 96 28 135 -5 q 57 125 57 61 l 60 239 l 56 444 l 180 454 l 177 167 q 235 99 177 99 q 319 136 276 99 l 319 444 l 443 454 l 435 117 q 456 88 435 88 z "},"v":{"ha":431,"x_min":13,"x_max":431,"o":"m 213 122 l 221 122 l 302 374 l 319 453 l 431 453 l 280 0 l 140 0 l 13 449 l 134 456 l 145 380 l 213 122 z "},"w":{"ha":678,"x_min":13,"x_max":679,"o":"m 196 130 l 205 130 l 273 376 l 288 453 l 413 453 l 423 384 l 480 131 l 488 131 l 554 376 l 570 453 l 679 453 l 537 0 l 417 0 l 347 291 l 337 291 l 258 0 l 130 0 l 13 449 l 130 456 l 140 384 l 196 130 z "},"x":{"ha":448,"x_min":13,"x_max":439,"o":"m 234 301 l 295 405 l 319 450 l 432 450 l 302 230 l 439 4 l 302 -5 l 280 52 l 217 156 l 149 45 l 127 0 l 13 0 l 144 226 l 13 448 l 151 456 l 171 401 l 234 301 z "},"y":{"ha":434,"x_min":-19,"x_max":434,"o":"m 219 131 l 226 131 l 305 371 l 322 453 l 434 453 l 287 31 q 201 -110 256 -61 q 47 -187 147 -158 l 38 -186 q -19 -108 3 -154 l -16 -95 q 165 0 97 -75 l -1 449 l 123 456 l 138 383 l 219 131 z "},"z":{"ha":411,"x_min":26,"x_max":389,"o":"m 135 453 l 380 453 l 380 376 l 162 83 l 300 83 l 383 91 l 389 82 l 380 -1 l 267 0 l 88 0 l 26 -3 l 26 73 l 247 369 l 117 369 l 36 362 l 29 371 l 38 454 l 135 453 z "},"{":{"ha":286,"x_min":35,"x_max":282,"o":"m 213 639 q 276 630 241 639 l 282 620 l 271 554 q 236 558 249 558 q 183 500 183 558 q 195 431 182 480 q 206 363 205 379 q 140 263 206 295 l 140 260 q 189 219 171 245 q 206 165 206 192 q 195 92 206 138 q 183 23 184 39 q 236 -38 183 -36 q 271 -31 249 -36 l 282 -97 l 276 -108 q 213 -116 247 -117 q 115 -86 148 -116 q 82 -12 82 -56 q 92 83 82 32 q 101 153 103 134 q 35 231 101 213 l 35 292 q 101 369 103 309 q 92 440 101 391 q 82 535 82 489 q 116 609 82 580 q 213 639 151 639 z "},"|":{"ha":297,"x_min":99,"x_max":200,"o":"m 197 283 l 197 -245 l 110 -252 l 99 -240 l 101 774 l 191 780 l 200 772 l 197 283 z "},"}":{"ha":286,"x_min":25,"x_max":271,"o":"m 93 -79 q 30 -70 65 -79 l 25 -61 l 35 5 q 70 1 57 1 q 123 60 123 1 q 112 129 125 79 q 100 196 101 180 q 166 296 100 265 l 166 300 q 117 341 135 314 q 100 395 100 367 q 112 467 100 422 q 123 536 122 521 q 70 597 123 596 q 35 591 57 596 l 25 657 l 30 667 q 93 675 60 676 q 191 645 158 675 q 225 571 225 615 q 214 476 225 527 q 205 406 204 426 q 271 328 205 347 l 271 267 q 205 191 204 251 q 215 119 205 169 q 225 25 225 70 q 190 -50 225 -21 q 93 -79 156 -79 z "},"~":{"ha":466,"x_min":29,"x_max":439,"o":"m 145 230 q 118 218 131 230 q 75 175 105 206 l 64 175 l 29 218 l 29 230 l 109 319 l 121 325 q 225 297 143 322 q 319 273 306 273 q 379 314 339 274 l 392 328 l 405 328 l 439 286 l 439 274 l 358 183 l 347 179 q 239 206 318 183 q 145 230 160 230 z "}," ":{"ha":145,"x_min":0,"x_max":0,"o":""},"¡":{"ha":256,"x_min":77,"x_max":231,"o":"m 112 256 l 186 266 l 199 253 l 206 -139 l 195 -154 l 92 -161 l 77 -145 l 112 256 m 162 356 q 146 356 162 356 q 113 373 130 356 q 96 423 96 391 q 114 474 96 454 q 164 493 132 493 q 214 476 196 493 q 231 427 231 458 q 212 376 231 396 q 162 356 193 356 z "},"¢":{"ha":371,"x_min":29,"x_max":365,"o":"m 250 130 q 273 130 250 130 q 349 154 296 130 l 358 147 l 347 47 q 265 30 308 35 l 256 -121 l 171 -121 l 162 -110 l 171 35 q 66 110 104 52 q 29 263 29 169 q 74 421 29 358 q 200 496 119 483 l 209 639 l 289 639 l 304 627 l 295 496 q 365 474 335 491 l 344 371 l 332 366 q 241 393 283 393 q 175 362 200 393 q 151 266 151 330 q 177 166 151 202 q 250 130 204 130 z "},"£":{"ha":432,"x_min":17,"x_max":408,"o":"m 202 182 q 165 92 202 122 l 165 87 l 305 87 l 404 95 l 408 87 l 400 -3 l 278 0 l 23 0 l 17 6 l 23 78 q 95 174 95 95 l 93 265 l 23 265 l 17 271 l 25 334 l 93 334 l 92 401 q 143 533 91 487 q 289 579 195 579 q 401 563 343 579 l 392 471 l 386 465 q 279 496 326 496 q 205 421 205 496 l 204 334 l 328 334 l 332 328 l 327 265 l 204 265 l 202 182 z "},"¤":{"ha":422,"x_min":13,"x_max":418,"o":"m 414 475 l 347 415 q 369 343 369 380 q 349 269 369 305 l 417 212 l 418 200 l 362 140 l 350 141 l 292 209 q 217 186 256 186 q 144 206 179 186 l 87 139 l 75 138 l 17 193 l 17 206 l 83 265 q 83 411 38 335 l 16 469 l 13 480 l 69 539 l 80 539 l 141 471 q 214 491 173 491 q 286 474 254 492 l 344 540 l 356 543 l 414 487 l 414 475 m 216 423 q 198 423 216 423 q 156 400 179 423 q 132 339 132 376 q 156 278 132 301 q 217 256 179 256 q 277 280 254 256 q 300 340 300 304 q 276 400 300 376 q 216 423 253 423 z "},"¥":{"ha":510,"x_min":27,"x_max":497,"o":"m 310 167 l 485 167 l 492 162 l 487 108 l 305 108 l 309 0 l 199 0 l 204 108 l 31 108 l 27 114 l 31 167 l 197 167 l 158 240 l 31 240 l 27 248 l 31 300 l 129 300 l 29 489 l 145 489 l 157 456 l 253 274 l 262 274 l 366 450 l 383 489 l 497 489 l 387 300 l 485 300 l 492 295 l 487 240 l 353 240 l 310 167 z "},"¦":{"ha":297,"x_min":99,"x_max":200,"o":"m 197 366 l 109 356 l 100 363 l 100 774 l 191 780 l 200 772 l 197 366 m 197 -245 l 110 -252 l 99 -240 l 100 145 l 187 156 l 197 144 l 197 -245 z "},"§":{"ha":418,"x_min":25,"x_max":395,"o":"m 53 43 q 184 -14 118 -14 q 229 -1 213 -14 q 245 31 245 13 q 227 64 245 49 q 165 100 208 78 q 96 139 122 122 q 29 252 29 182 q 53 331 29 293 q 119 391 78 369 q 70 478 70 431 q 93 559 70 526 q 159 614 117 593 q 260 635 201 635 q 374 611 318 635 l 358 514 l 344 509 q 245 550 280 550 q 194 537 209 550 q 179 505 179 523 q 197 474 179 487 q 258 439 214 461 q 328 398 301 417 q 395 286 395 354 q 370 207 395 244 q 304 148 345 170 q 356 60 356 108 q 332 -21 356 13 q 265 -76 308 -56 q 182 -96 223 -96 q 25 -67 93 -96 l 42 35 l 53 43 m 138 288 q 138 272 138 288 q 162 236 138 256 q 235 192 186 217 q 286 250 286 217 q 263 301 286 283 q 190 347 240 319 q 138 288 139 321 z "},"¨":{"ha":378,"x_min":43,"x_max":332,"o":"m 109 654 q 167 593 167 654 q 150 545 167 563 q 104 528 132 528 q 59 544 75 528 q 43 588 43 560 q 60 635 43 617 q 109 654 78 654 m 273 654 q 332 593 332 654 q 315 545 332 563 q 269 528 297 528 q 224 544 240 528 q 208 588 208 560 q 225 635 208 617 q 273 654 243 654 z "},"©":{"ha":667,"x_min":42,"x_max":626,"o":"m 333 582 q 376 582 333 582 q 486 545 419 582 q 589 441 553 508 q 626 286 626 374 q 589 130 626 197 q 486 25 553 62 q 334 -12 419 -12 q 181 25 248 -12 q 78 129 114 62 q 42 285 42 196 q 78 441 42 374 q 180 545 114 508 q 333 582 247 582 m 334 537 q 205 506 261 537 q 118 417 149 474 q 87 286 87 360 q 118 154 87 212 q 205 64 149 96 q 334 32 261 32 q 462 64 406 32 q 549 153 518 96 q 580 285 580 210 q 549 417 580 360 q 462 506 518 474 q 334 537 406 537 m 349 123 q 187 286 187 123 q 230 410 187 366 q 356 453 274 453 q 441 435 397 452 l 426 367 l 419 363 q 352 380 388 380 q 278 288 278 380 q 356 195 278 195 q 426 209 392 195 l 434 205 l 427 138 q 349 123 392 125 z "},"ª":{"ha":330,"x_min":25,"x_max":314,"o":"m 165 634 q 196 634 165 634 q 256 611 226 635 q 286 544 286 587 l 282 470 q 279 408 279 428 q 292 388 279 387 q 308 392 302 388 l 314 387 l 304 332 q 256 316 280 315 q 219 327 231 317 q 199 362 206 337 l 195 362 q 126 315 166 327 q 52 341 79 317 q 25 410 25 366 q 96 489 26 478 l 192 504 l 192 526 q 154 565 192 565 q 60 531 117 565 l 53 533 l 43 598 q 165 634 105 633 m 114 419 q 147 384 114 384 q 191 408 170 384 l 192 458 l 139 448 q 114 419 114 444 z "},"«":{"ha":417,"x_min":17,"x_max":392,"o":"m 17 231 l 151 404 l 210 371 l 213 358 l 112 222 l 213 86 l 210 73 l 151 40 l 17 209 l 17 231 m 197 231 l 330 404 l 391 371 l 392 358 l 292 222 l 392 86 l 391 73 l 330 40 l 197 209 l 197 231 z "},"¬":{"ha":466,"x_min":22,"x_max":419,"o":"m 419 49 l 341 43 l 332 51 l 332 209 l 30 209 l 22 218 l 29 296 l 414 296 l 419 289 l 419 49 z "},"­":{"ha":295,"x_min":26,"x_max":267,"o":"m 267 219 l 38 183 l 26 195 l 26 275 l 258 310 l 267 300 l 267 219 z "},"®":{"ha":432,"x_min":36,"x_max":398,"o":"m 217 683 q 349 633 299 683 q 398 501 398 583 q 349 370 398 419 q 217 321 299 321 q 86 370 135 321 q 36 501 36 419 q 86 633 36 583 q 217 683 135 683 m 217 353 q 250 353 217 353 q 324 394 283 353 q 365 502 365 435 q 324 609 365 569 q 217 650 283 650 q 110 609 151 650 q 69 502 69 569 q 110 394 69 435 q 217 353 151 353 m 261 488 q 308 424 278 461 l 308 419 q 262 410 291 413 l 256 414 q 222 474 236 445 l 192 474 l 193 413 l 147 413 l 148 469 l 147 602 l 230 604 q 278 588 261 604 q 297 542 296 572 q 261 488 297 511 m 223 510 q 247 540 248 519 q 213 569 247 567 l 193 569 l 192 511 l 223 510 z "},"¯":{"ha":378,"x_min":45,"x_max":332,"o":"m 327 561 l 55 561 l 45 570 l 53 641 l 325 641 l 332 633 l 327 561 z "},"°":{"ha":284,"x_min":16,"x_max":267,"o":"m 142 635 q 168 635 142 635 q 231 598 195 635 q 267 509 267 562 q 231 419 267 456 q 142 383 195 383 q 53 419 90 383 q 16 509 16 456 q 53 598 16 562 q 142 635 90 635 m 141 579 q 92 559 112 579 q 71 509 71 539 q 92 460 71 480 q 141 440 112 440 q 191 460 171 440 q 212 509 212 480 q 191 559 212 539 q 141 579 171 579 z "},"±":{"ha":466,"x_min":23,"x_max":444,"o":"m 437 -113 l 31 -113 l 23 -104 l 29 -26 l 435 -26 l 444 -34 l 437 -113 m 278 296 l 435 296 l 444 288 l 437 209 l 278 209 l 278 49 l 199 43 l 190 51 l 190 209 l 31 209 l 23 218 l 29 296 l 190 296 l 190 458 l 267 465 l 278 456 l 278 296 z "},"²":{"ha":350,"x_min":31,"x_max":328,"o":"m 61 558 l 49 558 l 31 635 q 167 685 105 685 q 263 661 230 685 q 296 602 296 637 q 278 533 296 566 q 217 449 260 500 l 167 387 l 169 386 l 258 386 l 322 389 l 328 382 l 317 302 l 226 306 l 64 306 l 38 305 l 31 308 l 31 369 l 123 467 q 177 532 161 511 q 192 569 192 553 q 150 602 192 602 q 61 558 108 602 z "},"³":{"ha":312,"x_min":22,"x_max":280,"o":"m 141 685 q 172 685 141 685 q 236 661 202 685 q 269 596 269 637 q 210 508 269 539 l 210 504 q 280 417 280 484 q 232 333 280 365 q 108 301 184 301 q 32 308 70 301 l 26 380 l 34 387 q 109 376 71 376 q 180 419 180 376 q 131 456 180 457 l 80 456 l 75 462 l 78 530 l 108 531 q 148 545 131 532 q 165 576 165 557 q 129 607 165 606 q 47 583 93 607 l 38 583 l 22 650 q 141 685 80 685 z "},"´":{"ha":378,"x_min":71,"x_max":308,"o":"m 308 633 l 305 620 q 217 567 283 607 q 116 505 152 527 l 103 506 l 71 556 q 248 704 184 646 l 261 704 l 308 633 z "},"µ":{"ha":506,"x_min":56,"x_max":491,"o":"m 478 17 q 410 -6 445 -6 q 356 9 375 -6 q 325 60 336 25 l 317 60 q 213 -5 266 8 q 177 -1 190 -5 l 177 -180 l 56 -180 l 60 187 l 56 444 l 177 454 l 177 167 q 238 99 177 99 q 319 136 276 99 l 319 444 l 443 454 l 435 122 q 457 86 434 86 q 482 92 466 86 l 491 86 l 478 17 z "},"¶":{"ha":506,"x_min":25,"x_max":489,"o":"m 241 527 q 162 418 162 517 q 253 274 162 319 l 209 205 q 73 280 121 225 q 25 427 25 336 q 86 572 25 518 q 262 626 148 626 l 482 626 l 489 615 l 482 526 l 417 526 l 411 192 l 413 132 q 371 8 413 58 q 226 -83 328 -42 l 191 -25 l 191 -12 q 267 49 244 17 q 291 126 291 82 l 291 177 l 286 527 l 241 527 z "},"·":{"ha":222,"x_min":43,"x_max":178,"o":"m 114 327 q 178 261 178 327 q 159 209 178 228 q 109 190 140 190 q 60 207 78 190 q 43 256 43 225 q 62 307 43 287 q 114 327 80 327 z "},"¸":{"ha":378,"x_min":106,"x_max":278,"o":"m 238 -65 q 278 -119 278 -86 q 252 -174 278 -153 q 184 -195 226 -195 q 106 -169 141 -195 l 114 -114 l 121 -110 q 175 -140 149 -139 q 201 -119 201 -140 q 184 -100 201 -109 l 138 -73 l 158 26 l 222 26 l 205 -47 l 238 -65 z "},"¹":{"ha":267,"x_min":10,"x_max":195,"o":"m 191 441 l 195 306 l 90 306 l 93 428 l 93 574 l 17 556 l 10 561 l 10 641 l 180 685 l 195 676 l 191 441 z "},"º":{"ha":336,"x_min":23,"x_max":315,"o":"m 174 635 q 315 480 315 635 q 276 357 315 400 q 164 314 238 314 q 23 469 23 314 q 62 592 23 549 q 174 635 100 635 m 169 565 q 154 565 169 565 q 129 545 140 565 q 117 476 117 526 q 129 403 117 426 q 170 380 141 380 q 210 399 199 380 q 222 469 222 418 q 210 543 222 521 q 169 565 197 565 z "},"»":{"ha":413,"x_min":19,"x_max":395,"o":"m 215 214 l 83 42 l 22 74 l 19 86 l 121 223 l 19 360 l 22 373 l 83 405 l 215 236 l 215 214 m 395 214 l 262 42 l 201 74 l 199 86 l 300 223 l 199 360 l 201 373 l 262 405 l 395 236 l 395 214 z "},"¼":{"ha":726,"x_min":10,"x_max":700,"o":"m 125 -90 l 69 -56 l 64 -43 l 518 667 l 571 635 l 578 617 l 125 -90 m 17 501 l 10 506 l 10 587 l 180 632 l 195 622 l 191 387 l 195 252 l 90 252 l 93 374 l 93 519 l 17 501 m 644 83 l 649 6 l 643 0 l 562 -4 l 556 1 l 558 84 l 460 84 l 395 82 l 389 91 l 389 153 l 550 375 l 644 375 l 641 161 l 694 161 l 700 152 l 696 82 l 644 83 m 559 161 l 558 265 l 553 265 l 478 161 l 559 161 z "},"½":{"ha":750,"x_min":10,"x_max":728,"o":"m 578 617 l 125 -90 l 69 -56 l 64 -43 l 518 667 l 571 635 l 578 617 m 191 387 l 195 252 l 90 252 l 93 374 l 93 519 l 17 501 l 10 506 l 10 587 l 180 632 l 195 622 l 191 387 m 462 252 l 449 252 l 432 328 q 568 379 506 379 q 663 355 630 379 q 696 295 696 331 q 678 227 696 260 q 617 143 659 193 l 569 80 l 570 79 l 658 79 l 723 83 l 728 75 l 718 -4 l 626 0 l 463 0 l 439 -1 l 432 1 l 432 62 l 524 162 q 577 227 562 206 q 592 262 592 247 q 549 296 592 296 q 462 252 506 296 z "},"¾":{"ha":762,"x_min":22,"x_max":737,"o":"m 162 -90 l 106 -56 l 100 -43 l 556 667 l 607 635 l 614 617 l 162 -90 m 280 362 q 232 278 280 310 q 108 247 184 247 q 32 253 70 247 l 26 326 l 34 332 q 109 322 71 322 q 180 365 180 322 q 131 401 180 402 l 80 401 l 75 408 l 78 475 l 108 476 q 148 489 131 478 q 165 522 165 501 q 129 552 165 552 q 47 528 93 553 l 38 528 l 22 596 q 141 632 80 632 q 236 607 202 632 q 269 541 269 583 q 210 453 269 484 l 210 449 q 280 362 280 430 m 680 83 l 685 6 l 680 0 l 598 -4 l 593 1 l 594 84 l 497 84 l 432 82 l 426 91 l 426 153 l 587 375 l 681 375 l 679 161 l 732 161 l 737 152 l 732 82 l 680 83 m 597 161 l 596 265 l 589 265 l 515 161 l 597 161 z "},"¿":{"ha":330,"x_min":10,"x_max":313,"o":"m 276 -164 q 10 -5 10 -148 q 99 129 10 79 l 169 170 l 170 175 l 165 257 l 256 269 l 263 261 l 274 143 l 269 134 l 182 88 q 127 18 127 60 q 169 -45 127 -25 q 304 -71 210 -66 l 313 -84 l 289 -157 l 276 -164 m 206 356 q 191 356 206 356 q 158 373 175 356 q 140 423 140 391 q 159 474 140 454 q 209 493 178 493 q 258 476 240 493 q 275 427 275 458 q 256 376 275 396 q 206 356 238 356 z "},"À":{"ha":583,"x_min":8,"x_max":569,"o":"m 386 698 q 177 774 266 739 l 171 787 l 205 862 l 217 864 q 419 755 301 814 l 398 702 l 386 698 m 434 0 l 418 82 l 401 140 l 279 143 l 171 140 l 154 88 l 138 0 l 8 0 l 219 626 l 376 626 l 569 0 l 434 0 m 300 502 l 291 502 l 205 241 l 288 240 l 374 241 l 300 502 z "},"Á":{"ha":583,"x_min":8,"x_max":569,"o":"m 437 785 l 434 774 q 225 698 344 739 l 212 701 l 191 755 q 392 864 308 815 l 405 862 l 437 785 m 434 0 l 418 82 l 401 140 l 279 143 l 171 140 l 154 88 l 138 0 l 8 0 l 219 626 l 376 626 l 569 0 l 434 0 m 300 502 l 291 502 l 205 241 l 289 240 l 374 241 l 300 502 z "},"Â":{"ha":583,"x_min":8,"x_max":569,"o":"m 151 759 q 280 861 218 803 l 306 861 q 436 759 366 807 l 413 707 l 401 707 l 371 726 q 293 768 335 744 q 217 726 252 742 l 187 707 l 174 707 l 151 759 m 434 0 l 418 82 l 401 140 l 279 143 l 171 140 l 154 88 l 138 0 l 8 0 l 219 626 l 376 626 l 569 0 l 434 0 m 300 502 l 291 502 l 205 241 l 288 240 l 374 241 l 300 502 z "},"Ã":{"ha":583,"x_min":8,"x_max":569,"o":"m 434 0 l 418 82 l 401 140 l 279 143 l 171 140 l 154 88 l 138 0 l 8 0 l 219 626 l 376 626 l 569 0 l 434 0 m 300 502 l 291 502 l 205 241 l 289 240 l 374 241 l 300 502 m 469 820 l 401 733 l 388 728 q 306 746 362 731 q 239 762 249 762 q 178 713 217 762 l 166 713 l 127 752 l 127 761 l 196 849 l 209 853 q 289 835 232 850 q 358 819 345 819 q 381 829 370 819 q 404 852 392 839 q 419 868 415 864 l 431 868 l 469 831 l 469 820 z "},"Ä":{"ha":583,"x_min":8,"x_max":569,"o":"m 208 711 q 194 711 208 711 q 164 728 179 711 q 148 774 148 744 q 165 820 148 803 q 210 837 182 837 q 271 778 271 837 q 254 729 271 746 q 208 711 238 711 m 377 711 q 362 711 377 711 q 332 728 348 711 q 317 774 317 744 q 334 820 317 803 q 380 837 350 837 q 425 822 409 837 q 441 776 441 806 q 424 729 441 746 q 377 711 406 711 m 434 0 l 418 82 l 401 140 l 279 143 l 171 140 l 154 88 l 138 0 l 8 0 l 219 626 l 376 626 l 569 0 l 434 0 m 300 502 l 291 502 l 205 241 l 288 240 l 374 241 l 300 502 z "},"Å":{"ha":583,"x_min":8,"x_max":569,"o":"m 434 0 l 418 82 l 401 140 l 279 143 l 171 140 l 154 88 l 138 0 l 8 0 l 219 626 l 376 626 l 569 0 l 434 0 m 300 502 l 291 502 l 205 241 l 289 240 l 374 241 l 300 502 m 300 890 q 323 890 300 890 q 369 867 345 890 q 392 800 392 844 q 367 731 392 757 q 297 706 341 706 q 230 730 253 706 q 206 798 206 754 q 230 866 206 842 q 300 890 254 890 m 339 797 q 299 835 339 835 q 260 798 260 836 q 300 761 260 761 q 339 797 340 761 z "},"Æ":{"ha":798,"x_min":-17,"x_max":792,"o":"m 783 0 l 405 0 l 400 82 l 383 214 l 177 161 l 143 88 l 114 0 l -17 0 l 283 626 l 711 626 l 720 615 l 710 517 l 558 522 l 474 522 l 496 347 l 683 395 l 693 387 l 704 295 l 506 248 l 524 103 l 623 103 l 783 109 l 792 99 l 783 0 m 348 502 l 339 502 l 234 278 l 371 314 l 348 502 z "},"Ç":{"ha":502,"x_min":27,"x_max":491,"o":"m 325 101 q 467 144 402 103 l 480 138 l 470 26 q 334 -9 405 -3 l 323 -47 l 357 -65 q 397 -119 397 -86 q 372 -174 397 -153 q 304 -195 347 -195 q 226 -169 261 -195 l 235 -114 l 240 -110 q 295 -140 269 -139 q 321 -119 321 -140 q 304 -100 319 -109 l 256 -73 l 273 -6 q 90 86 152 6 q 27 315 27 166 q 105 549 27 463 q 326 635 183 635 q 491 596 418 635 l 467 485 l 457 482 q 321 526 396 526 q 165 322 165 526 q 325 101 165 103 z "},"È":{"ha":493,"x_min":75,"x_max":480,"o":"m 366 698 q 157 774 247 739 l 153 787 l 187 862 l 199 864 q 401 755 283 814 l 379 702 l 366 698 m 476 99 l 469 0 l 75 0 l 83 187 l 75 626 l 472 626 l 480 615 l 471 517 l 319 522 l 208 522 l 206 370 l 312 369 l 415 371 l 423 362 l 414 263 l 304 266 l 205 265 l 204 199 l 206 104 l 315 103 l 470 109 l 476 99 z "},"É":{"ha":493,"x_min":75,"x_max":480,"o":"m 419 785 l 415 774 q 206 698 326 739 l 193 701 l 173 755 q 374 864 289 815 l 387 862 l 419 785 m 478 99 l 469 0 l 75 0 l 83 187 l 75 626 l 472 626 l 480 615 l 471 517 l 321 522 l 208 522 l 205 371 l 314 369 l 415 371 l 423 362 l 414 263 l 304 266 l 204 265 l 202 199 l 205 104 l 315 103 l 470 109 l 478 99 z "},"Ê":{"ha":493,"x_min":75,"x_max":480,"o":"m 131 759 q 262 861 199 803 l 288 861 q 418 759 348 807 l 395 707 l 383 707 l 352 726 q 275 768 315 744 q 199 726 234 742 l 169 707 l 156 707 l 131 759 m 476 99 l 469 0 l 75 0 l 83 187 l 75 626 l 472 626 l 480 615 l 471 517 l 319 522 l 208 522 l 206 370 l 312 369 l 415 371 l 423 362 l 414 263 l 304 266 l 205 265 l 204 199 l 206 104 l 315 103 l 470 109 l 476 99 z "},"Ë":{"ha":493,"x_min":75,"x_max":480,"o":"m 190 711 q 176 711 190 711 q 145 728 161 711 q 129 774 129 744 q 146 820 129 803 q 192 837 164 837 q 253 778 253 837 q 236 729 253 746 q 190 711 219 711 m 359 711 q 344 711 359 711 q 314 728 330 711 q 299 774 299 744 q 315 820 299 803 q 361 837 332 837 q 422 778 422 837 q 405 729 422 746 q 359 711 388 711 m 476 99 l 469 0 l 75 0 l 83 187 l 75 626 l 472 626 l 480 615 l 471 517 l 319 522 l 208 522 l 206 370 l 312 369 l 415 371 l 423 362 l 414 263 l 304 266 l 205 265 l 204 199 l 206 104 l 315 103 l 470 109 l 476 99 z "},"Ì":{"ha":286,"x_min":22,"x_max":267,"o":"m 66 864 q 267 755 151 815 l 247 702 l 235 698 q 26 774 116 740 l 22 787 l 55 862 l 66 864 m 209 0 l 75 0 l 83 187 l 75 626 l 210 626 l 204 199 l 209 0 z "},"Í":{"ha":286,"x_min":42,"x_max":287,"o":"m 287 785 l 283 774 q 74 698 193 739 l 62 701 l 42 755 q 243 864 158 815 l 254 862 l 287 785 m 208 0 l 75 0 l 83 187 l 75 626 l 210 626 l 202 199 l 208 0 z "},"Î":{"ha":286,"x_min":-1,"x_max":286,"o":"m -1 759 q 129 861 65 805 l 156 861 q 286 759 215 807 l 262 707 l 249 707 l 219 726 q 143 768 183 744 q 66 726 101 742 l 36 707 l 23 707 l -1 759 m 209 0 l 75 0 l 83 187 l 75 626 l 210 626 l 204 199 l 209 0 z "},"Ï":{"ha":286,"x_min":8,"x_max":280,"o":"m 71 837 q 85 837 71 837 q 116 822 100 837 q 131 776 131 806 q 114 729 131 746 q 68 711 97 711 q 23 728 39 711 q 8 774 8 744 q 25 820 8 803 q 71 837 42 837 m 220 837 q 235 837 220 837 q 265 822 249 837 q 280 776 280 806 q 263 729 280 746 q 217 711 247 711 q 172 728 188 711 q 156 774 156 744 q 173 820 156 803 q 220 837 191 837 m 209 0 l 75 0 l 83 187 l 75 626 l 210 626 l 204 199 l 209 0 z "},"Ð":{"ha":659,"x_min":14,"x_max":635,"o":"m 353 630 q 562 554 489 630 q 635 324 635 478 q 553 82 635 170 q 319 -6 471 -6 q 101 0 212 -6 l 100 0 l 108 187 l 108 267 l 19 267 l 14 276 l 19 356 l 105 356 l 100 626 l 101 626 l 353 630 m 497 306 q 460 473 497 421 q 343 526 422 526 q 232 519 293 526 l 231 356 l 344 356 l 350 347 l 347 267 l 228 267 l 227 199 l 231 101 q 344 96 299 96 q 497 306 497 96 z "},"Ñ":{"ha":675,"x_min":75,"x_max":601,"o":"m 598 0 l 456 0 l 201 424 l 192 424 l 192 217 l 196 0 l 75 0 l 83 184 l 78 626 l 219 626 l 474 202 l 483 202 l 478 620 l 601 628 l 593 193 l 598 0 m 517 820 l 449 733 l 436 728 q 354 746 410 731 q 287 762 297 762 q 226 713 265 762 l 214 713 l 175 752 l 175 761 l 244 849 l 257 853 q 337 835 280 850 q 406 819 393 819 q 429 829 418 819 q 452 852 440 839 q 467 868 463 864 l 479 868 l 517 831 l 517 820 z "},"Ò":{"ha":624,"x_min":27,"x_max":598,"o":"m 238 864 q 440 755 323 815 l 418 702 l 405 698 q 196 774 286 740 l 192 787 l 226 862 l 238 864 m 319 635 q 387 635 319 635 q 527 554 456 635 q 598 319 598 474 q 521 77 598 165 q 307 -10 444 -10 q 99 72 170 -10 q 27 309 27 154 q 104 549 27 463 q 319 635 182 635 m 312 528 q 273 528 312 528 q 199 480 234 528 q 165 314 165 431 q 199 145 165 197 q 313 92 234 92 q 426 141 392 92 q 461 307 461 190 q 426 476 461 424 q 312 528 391 528 z "},"Ó":{"ha":624,"x_min":27,"x_max":598,"o":"m 458 785 l 454 774 q 245 698 365 739 l 232 701 l 212 755 q 413 864 327 815 l 426 862 l 458 785 m 319 635 q 387 635 319 635 q 527 554 456 635 q 598 319 598 474 q 521 77 598 165 q 307 -10 444 -10 q 99 72 170 -10 q 27 309 27 154 q 104 549 27 463 q 319 635 182 635 m 313 528 q 274 528 313 528 q 200 480 235 528 q 165 314 165 431 q 199 145 165 197 q 313 92 234 92 q 426 141 392 92 q 461 307 461 190 q 426 476 461 424 q 313 528 392 528 z "},"Ô":{"ha":624,"x_min":27,"x_max":598,"o":"m 170 759 q 301 861 238 805 l 327 861 q 457 759 387 807 l 434 707 l 421 707 l 391 726 q 314 768 354 744 q 238 726 273 742 l 208 707 l 195 707 l 170 759 m 319 635 q 387 635 319 635 q 527 554 456 635 q 598 319 598 474 q 521 77 598 165 q 307 -10 444 -10 q 99 72 170 -10 q 27 309 27 154 q 104 549 27 463 q 319 635 182 635 m 312 528 q 273 528 312 528 q 199 480 234 528 q 165 314 165 431 q 199 145 165 197 q 313 92 234 92 q 426 141 392 92 q 461 307 461 190 q 426 476 461 424 q 312 528 391 528 z "},"Õ":{"ha":624,"x_min":27,"x_max":598,"o":"m 319 635 q 387 635 319 635 q 527 554 456 635 q 598 319 598 474 q 521 77 598 165 q 307 -10 444 -10 q 99 72 170 -10 q 27 309 27 154 q 104 549 27 463 q 319 635 182 635 m 313 528 q 274 528 313 528 q 200 480 235 528 q 165 314 165 431 q 199 145 165 197 q 313 92 234 92 q 426 141 392 92 q 461 307 461 190 q 426 476 461 424 q 313 528 392 528 m 492 820 l 424 733 l 411 728 q 329 746 386 731 q 262 762 273 762 q 201 713 240 762 l 190 713 l 151 752 l 151 761 l 219 849 l 232 853 q 312 835 256 850 q 381 819 369 819 q 404 829 393 819 q 427 852 415 839 q 443 868 439 864 l 454 868 l 492 831 l 492 820 z "},"Ö":{"ha":624,"x_min":27,"x_max":598,"o":"m 227 711 q 169 774 169 711 q 186 820 169 803 q 231 837 202 837 q 292 778 292 837 q 275 729 292 746 q 227 711 258 711 m 400 837 q 415 837 400 837 q 445 822 430 837 q 461 776 461 806 q 444 729 461 746 q 398 711 427 711 q 353 728 369 711 q 337 774 337 744 q 354 820 337 803 q 400 837 371 837 m 319 635 q 387 635 319 635 q 527 554 456 635 q 598 319 598 474 q 521 77 598 165 q 307 -10 444 -10 q 99 72 170 -10 q 27 309 27 154 q 104 549 27 463 q 319 635 182 635 m 312 528 q 273 528 312 528 q 199 480 234 528 q 165 314 165 431 q 199 145 165 197 q 313 92 234 92 q 426 141 392 92 q 461 307 461 190 q 426 476 461 424 q 312 528 391 528 z "},"×":{"ha":466,"x_min":60,"x_max":408,"o":"m 408 365 l 296 253 l 408 140 l 408 129 l 347 78 l 234 191 l 119 78 l 60 129 l 60 140 l 171 253 l 60 365 l 60 378 l 119 428 l 234 315 l 347 428 l 408 378 l 408 365 z "},"Ø":{"ha":624,"x_min":27,"x_max":598,"o":"m 498 582 q 598 334 598 504 q 521 77 598 165 q 302 -10 444 -10 q 219 0 256 -10 l 165 -116 l 82 -86 l 75 -74 l 131 42 q 27 293 27 122 q 104 549 27 463 q 323 635 182 635 q 409 624 367 635 l 460 727 l 540 698 l 546 684 l 498 582 m 312 92 q 350 92 312 92 q 425 141 389 92 q 461 307 461 190 q 426 476 461 424 q 312 528 391 528 q 199 480 232 528 q 165 314 165 431 q 199 145 165 197 q 312 92 234 92 z "},"Ù":{"ha":619,"x_min":60,"x_max":562,"o":"m 236 864 q 439 755 322 815 l 417 702 l 405 698 q 195 774 286 740 l 192 787 l 225 862 l 236 864 m 557 226 q 492 53 558 114 q 304 -9 426 -9 q 121 51 183 -9 q 61 221 60 110 l 64 310 l 60 626 l 192 626 l 186 238 q 310 99 184 99 q 435 231 436 99 l 428 626 l 562 626 l 558 308 l 557 226 z "},"Ú":{"ha":619,"x_min":60,"x_max":563,"o":"m 456 785 l 453 774 q 244 698 363 739 l 231 701 l 210 755 q 411 864 327 815 l 423 862 l 456 785 m 557 226 q 492 53 558 114 q 304 -9 426 -9 q 121 51 183 -9 q 62 221 60 110 l 64 310 l 60 626 l 192 626 l 186 238 q 310 99 184 99 q 435 231 436 99 l 428 626 l 563 626 l 557 226 z "},"Û":{"ha":619,"x_min":60,"x_max":562,"o":"m 169 759 q 300 861 236 805 l 326 861 q 456 759 386 807 l 432 707 l 419 707 l 389 726 q 314 768 353 744 q 236 726 273 742 l 206 707 l 193 707 l 169 759 m 557 226 q 492 53 558 114 q 304 -9 426 -9 q 121 51 183 -9 q 61 221 60 110 l 64 310 l 60 626 l 192 626 l 186 238 q 310 99 184 99 q 435 231 436 99 l 428 626 l 562 626 l 558 308 l 557 226 z "},"Ü":{"ha":619,"x_min":60,"x_max":562,"o":"m 227 711 q 169 774 169 711 q 186 820 169 803 q 231 837 202 837 q 292 778 292 837 q 275 729 292 746 q 227 711 258 711 m 400 837 q 415 837 400 837 q 445 822 430 837 q 461 776 461 806 q 444 729 461 746 q 398 711 427 711 q 353 728 369 711 q 337 774 337 744 q 354 820 337 803 q 400 837 371 837 m 557 226 q 492 53 558 114 q 304 -9 426 -9 q 121 51 183 -9 q 61 221 60 110 l 64 310 l 60 626 l 192 626 l 186 238 q 310 99 184 99 q 435 231 436 99 l 428 626 l 562 626 l 558 308 l 557 226 z "},"Ý":{"ha":541,"x_min":4,"x_max":545,"o":"m 413 785 l 409 774 q 200 698 319 739 l 187 701 l 166 755 q 369 864 283 815 l 380 862 l 413 785 m 330 0 l 197 0 l 205 174 l 204 210 l 4 626 l 144 626 l 157 583 l 263 344 l 274 344 l 391 579 l 409 626 l 545 626 l 326 213 l 323 174 l 330 0 z "},"Þ":{"ha":545,"x_min":75,"x_max":526,"o":"m 526 327 q 459 165 526 225 q 267 105 392 105 l 206 104 l 209 0 l 75 0 l 83 187 l 78 527 l 75 626 l 210 626 l 209 528 l 319 528 q 526 327 526 528 m 387 326 q 360 404 387 379 q 278 431 334 428 l 208 428 l 205 206 l 296 202 q 387 326 387 227 z "},"ß":{"ha":589,"x_min":26,"x_max":589,"o":"m 299 129 q 422 73 360 73 q 463 86 448 73 q 478 117 478 99 q 461 151 478 136 q 408 188 445 165 q 348 228 371 210 q 292 340 292 271 q 306 399 292 378 q 345 445 319 421 q 381 486 370 470 q 392 528 392 502 q 314 593 392 593 q 218 491 219 593 l 213 199 l 219 0 l 91 0 l 99 184 l 96 371 l 29 371 l 26 376 l 31 448 l 95 448 l 95 476 q 156 630 95 575 q 313 684 218 684 q 454 646 408 684 q 500 546 500 607 q 485 485 500 509 q 444 435 471 462 q 415 398 424 413 q 405 360 405 383 q 424 320 405 337 q 480 280 443 302 q 537 241 517 258 q 589 139 589 201 q 509 10 589 51 q 405 -10 467 -10 q 271 19 343 -10 l 287 121 l 299 129 z "},"à":{"ha":466,"x_min":29,"x_max":444,"o":"m 169 704 q 345 556 232 646 l 314 506 l 301 505 q 112 620 238 539 l 110 633 l 156 704 l 169 704 m 225 461 q 268 461 225 461 q 354 427 312 461 q 397 334 397 393 q 391 223 397 317 l 387 117 q 392 94 387 100 q 408 88 397 88 q 435 92 419 88 l 444 84 l 432 17 q 361 -8 400 -3 q 286 64 299 -3 l 279 64 q 180 -9 230 12 q 69 29 110 -8 q 29 126 29 65 q 129 240 29 221 l 278 267 l 278 308 q 218 371 278 371 q 78 315 158 371 l 67 321 l 53 406 q 225 461 139 461 m 175 180 q 144 144 144 173 q 195 86 144 86 q 275 131 232 86 l 278 204 l 175 180 z "},"á":{"ha":466,"x_min":29,"x_max":444,"o":"m 225 461 q 268 461 225 461 q 354 427 312 461 q 397 334 397 393 q 391 223 397 317 q 387 117 391 223 q 391 94 387 100 q 406 88 395 88 q 434 92 418 88 l 444 84 l 431 17 q 361 -8 400 -3 q 286 64 299 -3 l 279 64 q 179 -9 230 12 q 69 29 109 -8 q 29 126 29 65 q 129 240 29 221 l 278 267 l 278 308 q 218 371 278 371 q 78 315 158 371 l 67 321 l 53 406 q 225 461 139 461 m 174 180 q 144 144 144 174 q 195 86 144 86 q 275 131 232 86 l 278 204 l 174 180 m 373 633 l 370 620 q 282 567 348 607 q 180 505 217 527 l 167 506 l 136 556 q 313 704 249 646 l 326 704 l 373 633 z "},"â":{"ha":466,"x_min":29,"x_max":444,"o":"m 78 561 q 213 698 132 613 l 241 698 q 378 561 317 615 l 347 511 l 334 511 q 227 601 269 562 q 122 511 190 565 l 110 511 l 78 561 m 225 461 q 268 461 225 461 q 354 427 312 461 q 397 334 397 393 q 391 223 397 317 q 387 117 391 223 q 392 94 387 100 q 408 88 397 88 q 435 92 419 88 l 444 84 l 432 17 q 361 -8 400 -3 q 286 64 299 -3 l 279 64 q 180 -9 230 12 q 69 29 110 -8 q 29 126 29 65 q 129 240 29 221 l 278 267 l 278 308 q 218 371 278 371 q 78 315 158 371 l 67 321 l 53 406 q 225 461 139 461 m 175 180 q 144 144 144 173 q 195 86 144 86 q 275 131 232 86 l 278 204 l 175 180 z "},"ã":{"ha":466,"x_min":29,"x_max":444,"o":"m 225 461 q 268 461 225 461 q 354 427 312 461 q 397 334 397 393 q 391 223 397 317 q 387 117 391 223 q 391 94 387 100 q 406 88 395 88 q 434 92 418 88 l 444 84 l 431 17 q 361 -8 400 -3 q 286 64 299 -3 l 279 64 q 179 -9 230 12 q 69 29 109 -8 q 29 126 29 65 q 129 240 29 221 l 278 267 l 278 308 q 218 371 278 371 q 78 315 158 371 l 67 321 l 53 406 q 225 461 139 461 m 174 180 q 144 144 144 174 q 195 86 144 86 q 275 131 232 86 l 278 204 l 174 180 m 398 633 l 331 546 l 318 541 q 236 559 292 544 q 169 575 179 575 q 108 526 147 575 l 96 526 l 57 565 l 57 574 l 126 662 l 139 666 q 219 648 162 663 q 288 632 275 632 q 311 642 300 632 q 334 665 322 652 q 349 681 345 678 l 361 681 l 398 644 l 398 633 z "},"ä":{"ha":466,"x_min":29,"x_max":444,"o":"m 141 537 q 83 598 83 537 q 100 646 83 628 q 146 665 117 665 q 191 648 175 665 q 206 602 206 632 q 189 555 206 572 q 141 537 171 537 m 310 537 q 252 598 252 537 q 269 646 252 628 q 315 665 286 665 q 360 648 344 665 q 375 602 375 632 q 358 555 375 572 q 310 537 341 537 m 225 461 q 268 461 225 461 q 354 427 312 461 q 397 334 397 393 q 391 223 397 317 l 387 117 q 392 94 387 100 q 408 88 397 88 q 435 92 419 88 l 444 84 l 432 17 q 361 -8 400 -3 q 286 64 299 -3 l 279 64 q 180 -9 230 12 q 69 29 110 -8 q 29 126 29 65 q 129 240 29 221 l 278 267 l 278 308 q 218 371 278 371 q 78 315 158 371 l 67 321 l 53 406 q 225 461 139 461 m 175 180 q 144 144 144 173 q 195 86 144 86 q 275 131 232 86 l 278 204 l 175 180 z "},"å":{"ha":466,"x_min":29,"x_max":444,"o":"m 225 461 q 268 461 225 461 q 354 427 312 461 q 397 334 397 393 q 391 223 397 317 q 387 117 391 223 q 391 94 387 100 q 406 88 395 88 q 434 92 418 88 l 444 84 l 431 17 q 361 -8 400 -3 q 286 64 299 -3 l 279 64 q 179 -9 230 12 q 69 29 109 -8 q 29 126 29 65 q 129 240 29 221 l 278 267 l 278 308 q 218 371 278 371 q 78 315 158 371 l 67 321 l 53 406 q 225 461 139 461 m 174 180 q 144 144 144 174 q 195 86 144 86 q 275 131 232 86 l 278 204 l 174 180 m 230 704 q 252 704 230 704 q 299 680 275 704 q 322 613 322 657 q 297 545 322 570 q 227 519 271 519 q 160 543 183 519 q 136 611 136 567 q 160 680 136 656 q 230 704 184 704 m 269 610 q 229 648 269 648 q 190 611 190 649 q 230 574 190 574 q 269 610 270 574 z "},"æ":{"ha":674,"x_min":27,"x_max":649,"o":"m 479 460 q 519 460 479 460 q 604 411 558 460 q 649 275 649 363 q 649 253 649 275 l 636 238 l 376 208 q 409 116 382 145 q 496 86 436 86 q 619 121 556 86 l 630 114 l 611 19 q 482 -10 546 -9 q 314 74 366 -10 q 192 -9 261 18 q 73 27 118 -8 q 27 116 27 61 q 53 204 27 171 q 127 241 79 236 l 274 256 l 274 308 q 212 371 274 371 q 74 314 154 371 l 65 319 l 49 408 q 222 461 134 461 q 347 409 310 461 q 479 460 400 460 m 467 375 q 402 345 428 374 q 376 271 376 315 l 376 270 l 535 292 q 467 375 536 375 m 143 138 q 200 87 143 87 q 282 135 228 87 q 274 192 275 173 l 180 179 q 143 138 143 173 z "},"ç":{"ha":373,"x_min":29,"x_max":363,"o":"m 249 92 q 272 92 249 92 q 348 117 295 92 l 358 109 l 345 9 q 247 -9 296 -8 l 238 -47 l 270 -65 q 310 -119 310 -86 q 285 -174 310 -153 q 217 -195 260 -195 q 139 -169 175 -195 l 148 -114 l 153 -110 q 208 -140 182 -139 q 235 -119 234 -140 q 218 -100 235 -109 l 170 -73 l 186 -6 q 70 66 112 6 q 29 229 29 125 q 86 397 29 334 q 245 461 143 461 q 363 436 313 461 l 343 334 l 332 328 q 241 356 283 356 q 175 324 200 356 q 151 228 151 292 q 177 129 151 165 q 249 92 204 92 z "},"è":{"ha":457,"x_min":29,"x_max":428,"o":"m 317 505 q 214 567 280 527 q 126 620 148 606 l 125 633 l 171 704 l 183 704 q 360 556 247 645 l 328 506 l 317 505 m 147 209 q 267 86 154 86 q 398 122 331 86 l 409 114 l 392 19 q 254 -10 322 -9 q 88 52 147 -10 q 29 224 29 114 q 89 397 29 334 q 242 460 149 460 q 382 412 335 460 q 428 282 428 365 q 424 228 428 256 l 405 210 l 147 209 m 247 375 q 151 280 167 375 l 314 286 l 317 296 q 247 375 315 375 z "},"é":{"ha":457,"x_min":29,"x_max":428,"o":"m 148 209 q 267 86 156 86 q 398 122 331 86 l 409 114 l 392 19 q 256 -10 325 -9 q 88 52 148 -10 q 29 224 29 114 q 89 397 29 334 q 243 460 149 460 q 382 412 336 460 q 428 282 428 365 q 424 228 428 256 l 405 210 l 148 209 m 247 375 q 184 350 209 375 q 151 280 158 326 l 314 286 l 317 296 q 247 375 315 375 m 388 633 l 386 620 q 298 567 363 607 q 196 505 232 527 l 183 506 l 152 556 q 328 704 265 646 l 341 704 l 388 633 z "},"ê":{"ha":457,"x_min":29,"x_max":428,"o":"m 92 561 q 230 698 148 611 l 258 698 q 393 561 334 615 l 362 511 l 349 511 q 244 601 286 562 q 138 511 206 565 l 126 511 l 92 561 m 147 209 q 267 86 154 86 q 398 122 331 86 l 409 114 l 392 19 q 254 -10 322 -9 q 88 52 147 -10 q 29 224 29 114 q 89 397 29 334 q 242 460 149 460 q 382 412 335 460 q 428 282 428 365 q 424 228 428 256 l 405 210 l 147 209 m 247 375 q 151 280 167 375 l 314 286 l 317 296 q 247 375 315 375 z "},"ë":{"ha":457,"x_min":29,"x_max":428,"o":"m 162 665 q 221 604 221 665 q 204 555 221 572 q 158 537 187 537 q 113 554 129 537 q 97 599 97 570 q 114 646 97 628 q 162 665 131 665 m 331 665 q 389 604 389 665 q 373 555 389 572 q 326 537 356 537 q 282 554 297 537 q 266 599 266 570 q 284 646 266 628 q 331 665 301 665 m 147 209 q 267 86 154 86 q 398 122 331 86 l 409 114 l 392 19 q 254 -10 322 -9 q 88 52 147 -10 q 29 224 29 114 q 89 397 29 334 q 242 460 149 460 q 382 412 335 460 q 428 282 428 365 q 424 228 428 256 l 405 210 l 147 209 m 247 375 q 151 280 167 375 l 314 286 l 317 296 q 247 375 315 375 z "},"ì":{"ha":245,"x_min":8,"x_max":244,"o":"m 67 704 q 244 556 131 646 l 212 506 l 199 505 q 10 620 108 554 l 8 633 l 55 704 l 67 704 m 188 0 l 58 0 l 65 187 l 60 444 l 190 454 l 180 199 l 188 0 z "},"í":{"ha":245,"x_min":27,"x_max":263,"o":"m 188 0 l 58 0 l 65 187 l 60 444 l 190 454 l 180 199 l 188 0 m 263 633 l 261 620 q 173 567 239 607 q 71 505 108 527 l 58 506 l 27 556 q 204 704 140 646 l 217 704 l 263 633 z "},"î":{"ha":245,"x_min":-26,"x_max":276,"o":"m -26 561 q 112 698 30 613 l 140 698 q 276 561 215 615 l 244 511 l 231 511 q 126 601 166 562 q 19 511 88 565 l 8 511 l -26 561 m 188 0 l 58 0 l 65 187 l 60 444 l 190 454 l 180 199 l 188 0 z "},"ï":{"ha":245,"x_min":-10,"x_max":262,"o":"m 54 665 q 68 665 54 665 q 99 648 83 665 q 114 602 114 632 q 97 555 114 572 q 51 537 80 537 q -10 598 -10 537 q 7 646 -10 628 q 54 665 25 665 m 202 665 q 216 665 202 665 q 247 648 231 665 q 262 602 262 632 q 245 555 262 572 q 199 537 228 537 q 154 554 170 537 q 139 599 139 570 q 156 646 139 628 q 202 665 173 665 m 188 0 l 58 0 l 65 187 l 60 444 l 190 454 l 180 199 l 188 0 z "},"ð":{"ha":482,"x_min":31,"x_max":449,"o":"m 302 578 q 449 241 449 440 q 393 55 449 121 q 238 -10 337 -10 q 85 49 139 -10 q 31 218 31 108 q 84 387 31 328 q 238 447 138 447 q 282 443 263 447 q 208 523 254 487 l 96 460 l 84 462 l 58 514 l 147 565 q 51 613 101 589 l 51 628 l 131 689 l 139 689 q 248 623 206 656 l 353 683 l 365 680 l 391 628 l 302 578 m 148 218 q 244 74 148 71 q 313 109 293 73 q 334 215 334 145 q 325 330 334 284 q 243 358 292 358 q 171 325 195 358 q 148 218 148 292 z "},"ñ":{"ha":511,"x_min":58,"x_max":458,"o":"m 336 282 q 275 353 336 353 q 182 312 231 353 l 182 199 l 188 0 l 58 0 l 65 187 l 60 444 l 183 454 l 183 388 l 190 388 q 306 458 245 437 q 419 424 380 458 q 456 328 457 391 l 453 199 l 458 0 l 328 0 l 336 282 m 448 633 l 380 546 l 367 541 q 285 559 341 544 q 218 575 228 575 q 157 526 196 575 l 145 526 l 106 565 l 106 574 l 175 662 l 188 666 q 268 648 212 663 q 337 632 325 632 q 360 642 349 632 q 383 665 371 652 q 398 681 395 678 l 410 681 l 448 644 l 448 633 z "},"ò":{"ha":479,"x_min":29,"x_max":449,"o":"m 183 704 q 358 556 245 646 l 328 506 l 315 505 q 213 565 279 524 q 126 620 147 606 l 123 633 l 170 704 l 183 704 m 243 461 q 294 461 243 461 q 397 402 345 461 q 449 230 449 344 q 393 53 449 116 q 236 -10 337 -10 q 81 49 134 -10 q 29 222 29 108 q 84 398 29 336 q 243 461 140 461 m 239 374 q 216 374 239 374 q 171 342 192 374 q 151 231 151 310 q 172 115 151 152 q 241 78 193 78 q 309 108 288 78 q 330 217 330 138 q 308 335 330 296 q 239 374 287 374 z "},"ó":{"ha":479,"x_min":29,"x_max":450,"o":"m 243 461 q 295 461 243 461 q 398 402 347 461 q 450 230 450 344 q 394 53 450 116 q 236 -10 337 -10 q 81 49 134 -10 q 29 222 29 108 q 84 398 29 336 q 243 461 140 461 m 239 374 q 215 374 239 374 q 171 342 192 374 q 151 231 151 310 q 171 115 151 152 q 240 78 192 78 q 309 108 288 78 q 330 217 330 138 q 308 335 330 296 q 239 374 286 374 m 387 633 l 384 620 q 297 567 362 607 q 195 505 231 527 l 182 506 l 151 556 q 327 704 263 646 l 340 704 l 387 633 z "},"ô":{"ha":479,"x_min":29,"x_max":449,"o":"m 92 561 q 228 698 147 613 l 256 698 q 392 561 331 615 l 361 511 l 348 511 q 241 601 283 562 q 138 511 204 565 l 125 511 l 92 561 m 243 461 q 294 461 243 461 q 397 402 345 461 q 449 230 449 344 q 393 53 449 116 q 236 -10 337 -10 q 81 49 134 -10 q 29 222 29 108 q 84 398 29 336 q 243 461 140 461 m 239 374 q 216 374 239 374 q 171 342 192 374 q 151 231 151 310 q 172 115 151 152 q 241 78 193 78 q 309 108 288 78 q 330 217 330 138 q 308 335 330 296 q 239 374 287 374 z "},"õ":{"ha":479,"x_min":29,"x_max":450,"o":"m 243 461 q 295 461 243 461 q 398 402 347 461 q 450 230 450 344 q 394 53 450 116 q 236 -10 337 -10 q 81 49 134 -10 q 29 222 29 108 q 84 398 29 336 q 243 461 140 461 m 239 374 q 215 374 239 374 q 171 342 192 374 q 151 231 151 310 q 171 115 151 152 q 240 78 192 78 q 309 108 288 78 q 330 217 330 138 q 308 335 330 296 q 239 374 286 374 m 414 633 l 347 546 l 334 541 q 251 559 308 544 q 184 575 195 575 q 123 526 162 575 l 112 526 l 73 565 l 73 574 l 141 662 l 154 666 q 234 648 178 663 q 303 632 291 632 q 326 642 315 632 q 349 665 337 652 q 365 681 361 678 l 376 681 l 414 644 l 414 633 z "},"ö":{"ha":479,"x_min":29,"x_max":449,"o":"m 161 665 q 219 604 219 665 q 202 555 219 572 q 156 537 186 537 q 112 554 127 537 q 96 599 96 570 q 113 646 96 628 q 161 665 130 665 m 329 665 q 344 665 329 665 q 374 648 358 665 q 389 602 389 632 q 373 555 389 572 q 326 537 356 537 q 265 598 265 537 q 282 646 265 628 q 329 665 300 665 m 243 461 q 294 461 243 461 q 397 402 345 461 q 449 230 449 344 q 393 53 449 116 q 236 -10 337 -10 q 81 49 134 -10 q 29 222 29 108 q 84 398 29 336 q 243 461 140 461 m 239 374 q 216 374 239 374 q 171 342 192 374 q 151 231 151 310 q 172 115 151 152 q 241 78 193 78 q 309 108 288 78 q 330 217 330 138 q 308 335 330 296 q 239 374 287 374 z "},"÷":{"ha":466,"x_min":27,"x_max":449,"o":"m 443 209 l 35 209 l 27 218 l 34 296 l 440 296 l 449 288 l 443 209 m 243 149 q 299 91 299 149 q 282 45 299 62 q 239 27 266 27 q 180 86 180 27 q 197 131 180 113 q 243 149 213 149 m 243 460 q 299 401 299 460 q 282 354 299 371 q 239 337 266 337 q 180 396 180 337 q 197 441 180 423 q 243 460 213 460 z "},"ø":{"ha":479,"x_min":23,"x_max":449,"o":"m 392 409 q 449 232 449 349 q 393 53 449 116 q 232 -10 337 -10 q 167 -1 199 -10 l 100 -122 l 26 -86 l 23 -74 l 87 42 q 28 217 27 99 q 84 398 29 336 q 247 461 140 461 q 314 453 280 461 l 371 556 l 441 519 l 447 509 l 392 409 m 241 78 q 265 78 241 78 q 310 108 289 78 q 330 217 330 138 q 308 335 330 296 q 239 374 287 374 q 171 342 192 374 q 151 231 151 310 q 172 115 151 152 q 241 78 193 78 z "},"ù":{"ha":506,"x_min":56,"x_max":492,"o":"m 193 704 q 370 556 257 646 l 337 506 l 326 505 q 136 620 248 548 l 135 633 l 180 704 l 193 704 m 457 88 q 483 92 467 88 l 492 84 l 480 17 q 409 -8 449 -3 q 332 65 350 -3 l 322 65 q 208 -5 265 10 q 96 28 135 -5 q 57 125 57 61 l 60 239 l 56 444 l 180 454 l 178 167 q 235 99 177 99 q 319 136 276 99 l 319 444 l 444 454 l 435 117 q 457 88 434 88 z "},"ú":{"ha":506,"x_min":56,"x_max":492,"o":"m 456 88 q 483 92 467 88 l 492 84 l 480 17 q 409 -8 449 -3 q 332 65 348 -3 l 322 65 q 208 -5 266 12 q 96 28 135 -5 q 57 125 57 61 l 60 239 l 56 444 l 180 454 l 177 167 q 235 99 177 99 q 319 136 276 99 l 319 444 l 443 454 l 435 117 q 456 88 435 88 m 398 633 l 396 620 q 308 567 374 607 q 206 505 243 527 l 193 506 l 162 556 q 339 704 275 646 l 352 704 l 398 633 z "},"û":{"ha":506,"x_min":56,"x_max":492,"o":"m 101 561 q 238 698 156 613 l 266 698 q 402 561 341 615 l 371 511 l 358 511 q 252 601 293 562 q 147 511 214 565 l 135 511 l 101 561 m 435 117 q 457 88 434 88 q 483 92 467 88 l 492 84 l 480 17 q 409 -8 449 -3 q 332 65 350 -3 l 322 65 q 208 -5 265 10 q 96 28 135 -5 q 57 125 57 61 l 60 239 l 56 444 l 180 454 l 178 167 q 235 99 177 99 q 319 136 276 99 l 319 444 l 444 454 l 435 117 z "},"ü":{"ha":506,"x_min":56,"x_max":492,"o":"m 166 537 q 108 598 108 537 q 124 646 108 628 q 169 665 140 665 q 215 648 199 665 q 231 602 231 632 q 214 555 231 572 q 166 537 196 537 m 335 537 q 276 598 276 537 q 293 646 276 628 q 339 665 309 665 q 400 604 400 665 q 382 555 400 572 q 335 537 365 537 m 457 88 q 483 92 467 88 l 492 84 l 480 17 q 409 -8 449 -3 q 332 65 350 -3 l 322 65 q 208 -5 265 10 q 96 28 135 -5 q 57 125 57 61 l 60 239 l 56 444 l 180 454 l 178 167 q 235 99 177 99 q 319 136 276 99 l 319 444 l 444 454 l 435 117 q 457 88 434 88 z "},"ý":{"ha":434,"x_min":-19,"x_max":434,"o":"m 219 131 l 226 131 l 305 371 l 322 453 l 434 453 l 287 31 q 201 -110 256 -61 q 47 -187 147 -158 l 38 -186 q -19 -108 3 -154 l -16 -95 q 165 0 97 -75 l -1 449 l 123 456 l 138 383 l 219 131 m 367 633 l 365 620 q 277 567 343 607 q 175 505 212 527 l 162 506 l 131 556 q 308 704 244 646 l 321 704 l 367 633 z "},"þ":{"ha":506,"x_min":64,"x_max":478,"o":"m 302 458 q 433 400 388 458 q 478 231 478 343 q 419 55 478 119 q 254 -10 360 -10 q 188 -1 222 -10 l 191 -180 l 64 -180 l 69 187 l 64 672 l 192 683 l 188 388 l 193 388 q 302 458 245 437 m 253 74 q 358 215 358 75 q 271 353 358 354 q 187 312 231 353 l 184 201 l 187 92 q 253 74 225 75 z "},"ÿ":{"ha":434,"x_min":-19,"x_max":435,"o":"m 136 537 q 78 598 78 537 q 93 646 78 628 q 139 665 109 665 q 200 604 200 665 q 183 555 200 572 q 136 537 166 537 m 305 537 q 247 598 247 537 q 263 646 247 628 q 309 665 280 665 q 354 648 337 665 q 370 602 370 632 q 352 555 370 572 q 305 537 335 537 m 219 131 l 227 131 l 306 371 l 322 453 l 435 453 l 288 31 q 203 -110 257 -61 q 49 -187 149 -158 l 39 -186 q -19 -108 4 -154 l -14 -95 q 165 0 100 -75 l 0 449 l 125 456 l 139 383 l 219 131 z "},"Ā":{"ha":583,"x_min":8,"x_max":569,"o":"m 434 0 l 418 82 l 401 140 l 279 143 l 171 140 l 154 88 l 138 0 l 8 0 l 219 626 l 376 626 l 569 0 l 434 0 m 300 502 l 291 502 l 205 241 l 289 240 l 374 241 l 300 502 m 437 748 l 165 748 l 156 757 l 164 828 l 435 828 l 443 820 l 437 748 z "},"ā":{"ha":466,"x_min":29,"x_max":444,"o":"m 225 461 q 268 461 225 461 q 354 427 312 461 q 397 334 397 393 q 391 223 397 317 q 387 117 391 223 q 391 94 387 100 q 406 88 395 88 q 434 92 418 88 l 444 84 l 431 17 q 361 -8 400 -3 q 286 64 299 -3 l 279 64 q 179 -9 230 12 q 69 29 109 -8 q 29 126 29 65 q 129 240 29 221 l 278 267 l 278 308 q 218 371 278 371 q 78 315 158 371 l 67 321 l 53 406 q 225 461 139 461 m 174 180 q 144 144 144 174 q 195 86 144 86 q 275 131 232 86 l 278 204 l 174 180 m 367 561 l 95 561 l 86 570 l 93 641 l 365 641 l 373 633 l 367 561 z "},"Ă":{"ha":583,"x_min":8,"x_max":569,"o":"m 439 803 q 289 701 402 704 q 199 728 236 701 q 147 803 162 754 l 177 845 l 195 845 q 293 790 222 790 q 391 845 365 790 l 409 845 l 439 803 m 434 0 l 418 82 l 401 140 l 279 143 l 171 140 l 154 88 l 138 0 l 8 0 l 219 626 l 376 626 l 569 0 l 434 0 m 300 502 l 291 502 l 205 241 l 289 240 l 374 241 l 300 502 z "},"ă":{"ha":466,"x_min":29,"x_max":444,"o":"m 225 461 q 268 461 225 461 q 354 427 312 461 q 397 334 397 393 q 391 223 397 317 q 387 117 391 223 q 391 94 387 100 q 406 88 395 88 q 434 92 418 88 l 444 84 l 431 17 q 361 -8 400 -3 q 286 64 299 -3 l 279 64 q 179 -9 230 12 q 69 29 109 -8 q 29 126 29 65 q 129 240 29 221 l 278 267 l 278 308 q 218 371 278 371 q 78 315 158 371 l 67 321 l 53 406 q 225 461 139 461 m 174 180 q 144 144 144 174 q 195 86 144 86 q 275 131 232 86 l 278 204 l 174 180 m 376 637 q 325 548 362 582 q 228 515 288 515 q 133 549 169 515 q 84 637 97 583 l 114 680 l 134 680 q 232 607 157 606 q 328 680 306 607 l 347 680 l 376 637 z "},"Ą":{"ha":583,"x_min":8,"x_max":604,"o":"m 506 -192 q 483 -192 506 -192 q 437 -168 461 -192 q 414 -102 414 -144 q 462 0 414 -60 l 434 0 l 418 82 l 401 140 l 279 143 l 171 140 l 154 88 l 138 0 l 8 0 l 219 626 l 376 626 l 569 0 l 526 0 q 485 -86 484 -57 q 519 -119 485 -117 q 585 -91 550 -119 l 592 -91 l 604 -143 q 506 -192 550 -192 m 300 502 l 291 502 l 205 241 l 288 240 l 374 241 l 300 502 z "},"ą":{"ha":466,"x_min":29,"x_max":453,"o":"m 453 -145 q 362 -191 402 -191 q 298 -169 321 -192 q 275 -116 275 -145 q 289 -62 275 -86 q 337 -3 302 -39 q 286 64 293 13 l 279 64 q 180 -9 230 12 q 69 29 110 -8 q 29 126 29 65 q 129 240 29 221 l 278 267 l 278 308 q 218 371 278 371 q 78 315 158 371 l 67 321 l 53 406 q 225 461 139 461 q 354 427 312 461 q 397 334 397 393 q 391 223 397 317 l 387 117 q 392 94 387 100 q 408 88 397 88 q 435 92 419 88 l 444 84 l 432 17 l 430 14 q 363 -52 380 -30 q 347 -90 347 -74 q 378 -119 347 -118 q 432 -92 405 -119 l 440 -92 l 453 -145 m 175 180 q 144 144 144 173 q 195 86 144 86 q 275 131 232 86 l 278 204 l 175 180 z "},"Ć":{"ha":502,"x_min":27,"x_max":491,"o":"m 450 785 l 447 774 q 238 698 357 739 l 226 701 l 205 755 q 406 864 322 815 l 418 862 l 450 785 m 491 596 l 467 485 l 457 482 q 321 526 396 526 q 166 322 166 526 q 325 101 166 103 q 469 144 402 101 l 480 138 l 470 26 q 314 -9 396 -8 q 101 73 174 -9 q 27 309 27 154 q 105 549 27 463 q 327 635 183 635 q 491 596 418 633 z "},"ć":{"ha":373,"x_min":29,"x_max":379,"o":"m 245 461 q 365 436 313 461 l 344 334 l 332 328 q 241 356 283 356 q 175 324 200 356 q 151 228 151 292 q 177 129 151 165 q 250 92 204 92 q 349 117 296 92 l 358 109 l 347 9 q 226 -10 288 -9 q 80 51 132 -10 q 29 223 29 112 q 86 397 29 334 q 245 461 143 461 m 379 633 l 376 620 q 289 567 354 607 q 187 505 223 527 l 174 506 l 143 556 q 319 704 256 646 l 332 704 l 379 633 z "},"Ĉ":{"ha":502,"x_min":27,"x_max":491,"o":"m 164 759 q 293 861 230 805 l 319 861 q 449 759 379 807 l 427 707 l 414 707 l 384 726 q 308 768 348 744 q 231 726 266 742 l 200 707 l 188 707 l 164 759 m 326 635 q 491 596 418 633 l 467 485 l 457 482 q 321 526 396 526 q 165 322 165 526 q 325 101 165 103 q 467 144 402 101 l 480 138 l 470 26 q 314 -9 396 -8 q 101 73 174 -9 q 27 309 27 154 q 105 549 27 463 q 326 635 183 635 z "},"ĉ":{"ha":373,"x_min":29,"x_max":384,"o":"m 83 561 q 219 698 138 613 l 248 698 q 384 561 323 615 l 352 511 l 339 511 q 234 601 274 562 q 129 511 196 565 l 116 511 l 83 561 m 245 461 q 363 436 313 461 l 343 334 l 332 328 q 241 356 283 356 q 175 324 200 356 q 151 228 151 292 q 177 129 151 165 q 249 92 204 92 q 348 117 295 92 l 358 109 l 345 9 q 226 -10 288 -9 q 80 51 131 -10 q 29 223 29 112 q 86 397 29 334 q 245 461 143 461 z "},"Ċ":{"ha":502,"x_min":27,"x_max":491,"o":"m 309 848 q 325 848 309 848 q 357 830 340 848 q 374 781 374 813 q 356 729 374 749 q 306 710 337 710 q 256 728 274 710 q 239 776 239 745 q 258 827 239 807 q 309 848 278 848 m 491 596 l 467 485 l 457 482 q 321 526 396 526 q 165 322 165 526 q 325 101 165 103 q 467 144 402 101 l 480 138 l 470 26 q 314 -9 396 -8 q 101 73 174 -9 q 27 309 27 154 q 105 549 27 463 q 326 635 183 635 q 491 596 418 633 z "},"ċ":{"ha":373,"x_min":29,"x_max":363,"o":"m 235 674 q 251 674 235 674 q 284 656 266 674 q 301 607 301 639 q 282 556 301 575 q 231 536 262 536 q 182 554 200 536 q 165 602 165 571 q 184 654 165 633 q 235 674 204 674 m 363 436 l 343 334 l 332 328 q 241 356 283 356 q 175 324 200 356 q 151 228 151 292 q 177 129 151 165 q 249 92 204 92 q 348 117 295 92 l 358 109 l 345 9 q 226 -10 288 -9 q 80 51 131 -10 q 29 223 29 112 q 86 397 29 334 q 245 461 143 461 q 363 436 313 461 z "},"Č":{"ha":502,"x_min":27,"x_max":491,"o":"m 322 698 l 296 698 q 165 800 236 752 l 188 852 l 201 852 l 231 833 q 308 789 267 815 q 384 833 349 815 l 414 852 l 427 852 l 452 800 q 322 698 386 754 m 491 596 l 467 485 l 457 482 q 321 526 396 526 q 166 322 166 526 q 325 101 166 103 q 469 144 402 101 l 480 138 l 470 26 q 314 -9 396 -8 q 101 73 174 -9 q 27 309 27 154 q 105 549 27 463 q 327 635 183 635 q 491 596 418 633 z "},"č":{"ha":373,"x_min":29,"x_max":383,"o":"m 247 510 l 219 510 q 83 646 144 593 l 114 696 l 127 696 q 234 607 192 645 q 337 696 271 644 l 350 696 l 383 646 q 247 510 328 596 m 365 436 l 344 334 l 332 328 q 241 356 283 356 q 175 324 200 356 q 151 228 151 292 q 177 129 151 165 q 250 92 204 92 q 349 117 296 92 l 358 109 l 347 9 q 226 -10 288 -9 q 80 51 132 -10 q 29 223 29 112 q 86 397 29 334 q 245 461 143 461 q 365 436 313 461 z "},"Ď":{"ha":635,"x_min":75,"x_max":610,"o":"m 326 698 l 300 698 q 169 800 240 752 l 192 852 l 205 852 l 235 833 q 313 789 271 815 q 389 833 354 815 l 419 852 l 431 852 l 456 800 q 326 698 389 754 m 328 630 q 537 554 463 630 q 610 324 610 478 q 528 82 610 170 q 295 -6 447 -6 q 75 0 187 -6 l 83 187 l 75 626 l 328 630 m 472 306 q 435 473 472 421 q 318 526 398 526 q 208 519 266 526 l 202 199 l 205 101 q 318 96 273 96 q 472 306 472 96 z "},"ď":{"ha":570,"x_min":27,"x_max":593,"o":"m 437 117 q 443 94 439 100 q 458 88 447 88 q 484 92 470 88 l 495 84 l 483 17 q 411 -8 452 -3 q 332 60 349 -3 l 325 60 q 227 -6 278 16 q 79 54 131 -6 q 27 226 27 114 q 88 398 27 337 q 253 460 148 460 q 317 454 282 460 l 315 672 l 444 683 l 435 199 l 437 117 m 561 424 l 504 415 l 496 422 l 492 620 l 585 626 l 593 617 l 561 424 m 148 247 q 240 95 148 95 q 319 135 282 95 l 319 188 l 318 356 q 247 373 280 373 q 148 247 148 373 z "},"Đ":{"ha":635,"x_min":75,"x_max":610,"o":"m 328 630 q 537 554 463 630 q 610 324 610 478 q 528 82 610 170 q 295 -6 447 -6 q 75 0 187 -6 l 83 187 l 75 626 l 328 630 m 472 306 q 435 473 472 421 q 318 526 398 526 q 208 519 266 526 l 202 199 l 205 101 q 318 96 273 96 q 472 306 472 96 m 458 748 l 186 748 l 177 757 l 184 828 l 456 828 l 463 820 l 458 748 z "},"đ":{"ha":515,"x_min":27,"x_max":515,"o":"m 435 199 l 437 117 q 443 94 439 100 q 458 88 447 88 q 484 92 470 88 l 495 84 l 483 17 q 411 -8 452 -3 q 332 60 349 -3 l 325 60 q 227 -6 278 16 q 79 54 131 -6 q 27 226 27 114 q 88 398 27 337 q 253 460 148 460 q 317 454 282 460 l 317 527 l 210 527 l 201 536 l 208 598 l 317 598 l 315 672 l 444 683 l 443 598 l 506 598 l 515 588 l 510 527 l 441 527 l 435 199 m 318 356 q 247 373 280 373 q 148 247 148 373 q 240 95 148 95 q 319 135 282 95 l 319 188 l 318 356 z "},"Ē":{"ha":493,"x_min":75,"x_max":480,"o":"m 478 99 l 469 0 l 75 0 l 83 187 l 75 626 l 472 626 l 480 615 l 471 517 l 321 522 l 208 522 l 205 371 l 314 369 l 415 371 l 423 362 l 414 263 l 304 266 l 204 265 l 202 199 l 205 104 l 315 103 l 470 109 l 478 99 m 418 748 l 145 748 l 136 757 l 144 828 l 415 828 l 423 820 l 418 748 z "},"ē":{"ha":457,"x_min":29,"x_max":428,"o":"m 148 209 q 267 86 156 86 q 398 122 331 86 l 409 114 l 392 19 q 256 -10 325 -9 q 88 52 148 -10 q 29 224 29 114 q 89 397 29 334 q 243 460 149 460 q 382 412 336 460 q 428 282 428 365 q 424 228 428 256 l 405 210 l 148 209 m 247 375 q 184 350 209 375 q 151 280 158 326 l 314 286 l 317 296 q 247 375 315 375 m 383 561 l 110 561 l 101 570 l 109 641 l 380 641 l 388 633 l 383 561 z "},"Ĕ":{"ha":493,"x_min":75,"x_max":480,"o":"m 421 803 q 271 701 384 704 q 181 728 218 701 q 129 803 144 754 l 158 845 l 177 845 q 275 790 204 790 q 373 845 347 790 l 391 845 l 421 803 m 478 99 l 469 0 l 75 0 l 83 187 l 75 626 l 472 626 l 480 615 l 471 517 l 321 522 l 208 522 l 205 371 l 314 369 l 415 371 l 423 362 l 414 263 l 304 266 l 204 265 l 202 199 l 205 104 l 315 103 l 470 109 l 478 99 z "},"ĕ":{"ha":457,"x_min":29,"x_max":428,"o":"m 148 209 q 267 86 156 86 q 398 122 331 86 l 409 114 l 392 19 q 256 -10 325 -9 q 88 52 148 -10 q 29 224 29 114 q 89 397 29 334 q 243 460 149 460 q 382 412 336 460 q 428 282 428 365 q 424 228 428 256 l 405 210 l 148 209 m 247 375 q 184 350 209 375 q 151 280 158 326 l 314 286 l 317 296 q 247 375 315 375 m 393 637 q 342 548 379 582 q 245 515 305 515 q 150 549 186 515 q 101 637 114 583 l 131 680 l 151 680 q 249 607 174 606 q 345 680 323 607 l 363 680 l 393 637 z "},"Ė":{"ha":493,"x_min":75,"x_max":480,"o":"m 274 710 q 208 776 208 710 q 227 827 208 807 q 276 848 245 848 q 325 830 308 848 q 343 781 343 813 q 324 729 343 749 q 274 710 305 710 m 476 99 l 469 0 l 75 0 l 83 187 l 75 626 l 472 626 l 480 615 l 471 517 l 319 522 l 208 522 l 206 370 l 312 369 l 415 371 l 423 362 l 414 263 l 304 266 l 205 265 l 204 199 l 206 104 l 315 103 l 470 109 l 476 99 z "},"ė":{"ha":457,"x_min":29,"x_max":428,"o":"m 241 536 q 175 602 175 536 q 194 654 175 633 q 245 674 213 674 q 293 656 276 674 q 310 607 310 639 q 293 556 310 575 q 241 536 275 536 m 147 209 q 267 86 154 86 q 398 122 331 86 l 409 114 l 392 19 q 254 -10 322 -9 q 88 52 147 -10 q 29 224 29 114 q 89 397 29 334 q 242 460 149 460 q 382 412 335 460 q 428 282 428 365 q 424 228 428 256 l 405 210 l 147 209 m 247 375 q 151 280 167 375 l 314 286 l 317 296 q 247 375 315 375 z "},"Ę":{"ha":493,"x_min":75,"x_max":484,"o":"m 484 -144 q 387 -192 431 -192 q 320 -167 344 -192 q 296 -104 296 -143 q 323 -26 296 -65 l 343 0 l 75 0 l 83 187 l 75 626 l 472 626 l 480 615 l 471 517 l 319 522 l 208 522 l 206 370 l 312 369 l 415 371 l 423 362 l 414 263 l 304 266 l 205 265 l 204 199 l 206 104 l 315 103 l 470 109 l 476 99 l 469 0 l 406 0 l 383 -38 q 366 -83 367 -64 q 404 -119 366 -119 q 467 -91 432 -119 l 474 -91 l 484 -144 z "},"ę":{"ha":457,"x_min":29,"x_max":428,"o":"m 147 209 q 267 86 154 86 q 398 122 331 86 l 409 114 l 392 19 q 337 1 363 6 l 314 -38 q 297 -83 299 -64 q 335 -119 297 -119 q 398 -91 363 -119 l 405 -91 l 415 -144 q 319 -191 362 -191 q 251 -167 275 -192 q 226 -104 226 -143 q 254 -26 226 -65 l 266 -10 l 254 -10 q 88 52 147 -10 q 29 224 29 114 q 89 397 29 334 q 242 460 149 460 q 382 412 335 460 q 428 282 428 365 q 424 228 428 256 l 405 210 l 147 209 m 247 375 q 151 280 167 375 l 314 286 l 317 296 q 247 375 315 375 z "},"Ě":{"ha":493,"x_min":75,"x_max":480,"o":"m 289 698 l 262 698 q 132 800 202 752 l 156 852 l 169 852 l 199 833 q 275 789 235 815 q 352 833 317 815 l 382 852 l 395 852 l 419 800 q 289 698 353 754 m 478 99 l 469 0 l 75 0 l 83 187 l 75 626 l 472 626 l 480 615 l 471 517 l 321 522 l 208 522 l 205 371 l 314 369 l 415 371 l 423 362 l 414 263 l 304 266 l 204 265 l 202 199 l 205 104 l 315 103 l 470 109 l 478 99 z "},"ě":{"ha":457,"x_min":29,"x_max":428,"o":"m 257 510 l 228 510 q 92 646 153 593 l 125 696 l 138 696 q 244 607 202 645 q 348 696 282 644 l 361 696 l 393 646 q 257 510 339 596 m 148 209 q 267 86 156 86 q 398 122 331 86 l 409 114 l 392 19 q 256 -10 325 -9 q 88 52 148 -10 q 29 224 29 114 q 89 397 29 334 q 243 460 149 460 q 382 412 336 460 q 428 282 428 365 q 424 228 428 256 l 405 210 l 148 209 m 247 375 q 184 350 209 375 q 151 280 158 326 l 314 286 l 317 296 q 247 375 315 375 z "},"Ĝ":{"ha":580,"x_min":27,"x_max":537,"o":"m 174 759 q 304 861 240 805 l 331 861 q 461 759 391 807 l 437 707 l 426 707 l 395 726 q 318 768 358 744 q 241 726 278 742 l 210 707 l 199 707 l 174 759 m 497 475 q 326 527 408 527 q 205 476 245 527 q 165 306 165 426 q 234 117 165 157 q 318 96 270 96 q 413 109 366 96 l 415 162 l 413 260 l 535 267 l 532 183 l 533 30 q 319 -9 418 -9 q 101 71 174 -9 q 27 306 27 151 q 112 548 27 462 q 353 635 197 635 q 537 596 457 633 l 509 478 l 497 475 z "},"ĝ":{"ha":485,"x_min":44,"x_max":496,"o":"m 96 553 q 234 691 152 604 l 262 691 q 398 553 337 607 l 365 504 l 353 504 q 247 593 288 554 q 141 504 209 557 l 129 504 l 96 553 m 496 391 q 419 376 465 383 l 417 373 q 431 308 431 344 q 378 191 431 235 q 235 148 326 148 q 179 153 208 148 q 165 127 165 139 q 188 103 165 110 q 265 90 210 96 q 357 73 319 83 q 423 39 395 64 q 450 -31 450 14 q 422 -112 450 -75 q 228 -190 362 -190 q 92 -153 140 -190 q 44 -58 44 -117 q 126 14 73 -17 l 126 19 q 56 108 56 45 q 122 167 82 139 l 122 171 q 51 291 51 209 q 103 416 51 373 q 245 460 156 460 q 341 441 299 460 q 485 480 413 456 l 496 471 l 496 391 m 319 305 q 241 379 319 379 q 162 304 164 379 q 239 226 162 225 q 319 305 319 225 m 343 -55 q 343 -41 343 -55 q 314 -18 343 -27 q 245 -3 286 -8 q 196 4 204 1 q 151 -55 151 -27 q 174 -99 151 -83 q 242 -114 197 -114 q 315 -98 287 -114 q 343 -55 343 -82 z "},"Ğ":{"ha":580,"x_min":27,"x_max":537,"o":"m 463 803 q 314 701 427 704 q 224 728 261 701 q 171 803 187 754 l 201 845 l 219 845 q 317 790 247 790 q 415 845 388 790 l 434 845 l 463 803 m 497 475 q 327 527 408 527 q 206 476 247 527 q 165 306 165 424 q 235 117 165 157 q 320 96 271 96 q 413 109 369 96 l 415 162 l 413 260 l 535 267 l 532 183 l 535 30 q 319 -9 418 -9 q 101 71 174 -9 q 27 306 27 151 q 112 548 27 462 q 353 635 197 635 q 537 596 456 633 l 510 478 l 497 475 z "},"ğ":{"ha":485,"x_min":44,"x_max":495,"o":"m 495 391 q 419 376 469 384 l 417 373 q 431 308 431 344 q 378 191 431 235 q 235 148 326 148 q 179 153 208 148 q 165 127 165 139 q 188 103 165 110 q 265 90 210 96 q 357 73 319 83 q 423 39 395 64 q 450 -31 450 14 q 422 -112 450 -75 q 228 -190 362 -190 q 92 -153 140 -190 q 44 -58 44 -117 q 126 14 74 -17 l 126 19 q 56 108 56 45 q 122 167 82 139 l 122 171 q 51 291 51 210 q 103 416 51 373 q 247 460 156 460 q 341 441 300 460 q 484 480 411 454 l 495 471 l 495 391 m 319 305 q 241 379 319 379 q 162 304 162 379 q 239 226 162 225 q 319 305 319 225 m 343 -55 q 343 -41 343 -55 q 314 -18 343 -27 q 245 -3 286 -8 q 196 4 204 1 q 151 -55 151 -27 q 174 -99 151 -83 q 242 -114 197 -114 q 315 -98 287 -114 q 343 -55 343 -82 m 397 628 q 346 539 383 572 q 249 506 309 506 q 154 540 190 506 q 105 628 118 574 l 135 671 l 154 671 q 252 598 178 597 q 349 671 327 598 l 367 671 l 397 628 z "},"Ġ":{"ha":580,"x_min":27,"x_max":537,"o":"m 497 475 q 327 527 408 527 q 206 476 247 527 q 165 306 165 424 q 235 117 165 157 q 320 96 271 96 q 413 109 369 96 l 415 162 l 413 260 l 535 267 l 532 183 l 535 30 q 319 -9 418 -9 q 101 71 174 -9 q 27 306 27 151 q 112 548 27 462 q 353 635 197 635 q 537 596 456 633 l 510 478 l 497 475 m 336 898 q 400 832 400 898 q 381 780 400 800 q 331 761 362 761 q 282 778 300 761 q 265 827 265 796 q 284 878 265 858 q 336 898 302 898 z "},"ġ":{"ha":485,"x_min":44,"x_max":496,"o":"m 245 528 q 179 594 179 528 q 197 646 179 626 q 247 666 215 666 q 297 648 279 666 q 314 599 314 631 q 296 548 314 567 q 245 528 278 528 m 419 376 l 417 373 q 431 308 431 344 q 378 191 431 235 q 235 148 326 148 q 179 153 208 148 q 165 127 165 139 q 188 103 165 110 q 265 90 210 96 q 357 73 319 83 q 423 39 395 64 q 450 -31 450 14 q 422 -112 450 -75 q 228 -190 362 -190 q 92 -153 140 -190 q 44 -58 44 -117 q 126 14 73 -17 l 126 19 q 56 108 56 45 q 122 167 82 139 l 122 171 q 51 291 51 209 q 103 416 51 373 q 245 460 156 460 q 341 441 299 460 q 485 480 413 456 l 496 471 l 496 391 q 419 376 465 383 m 319 305 q 241 379 319 379 q 162 304 164 379 q 239 226 162 225 q 319 305 319 225 m 343 -55 q 343 -41 343 -55 q 314 -18 343 -27 q 245 -3 286 -8 q 196 4 204 1 q 151 -55 151 -27 q 174 -99 151 -83 q 242 -114 197 -114 q 315 -98 287 -114 q 343 -55 343 -82 z "},"Ģ":{"ha":580,"x_min":27,"x_max":537,"o":"m 497 475 q 326 527 408 527 q 205 476 245 527 q 165 306 165 426 q 234 117 165 157 q 318 96 270 96 q 413 109 366 96 l 415 162 l 413 260 l 535 267 l 532 183 l 533 30 q 319 -9 418 -9 q 101 71 174 -9 q 27 306 27 151 q 112 548 27 462 q 353 635 197 635 q 537 596 457 633 l 509 478 l 497 475 m 366 -113 q 262 -265 366 -191 l 223 -231 l 223 -223 q 271 -138 273 -183 q 244 -84 271 -109 l 244 -74 q 328 -39 287 -48 q 366 -113 366 -69 z "},"ģ":{"ha":485,"x_min":44,"x_max":496,"o":"m 232 501 q 182 592 182 528 q 265 735 182 656 l 306 707 l 308 698 q 271 620 270 661 q 308 558 271 580 l 308 548 q 232 501 276 521 m 419 376 l 417 373 q 431 308 431 344 q 378 191 431 235 q 235 148 326 148 q 179 153 208 148 q 165 127 165 139 q 188 103 165 110 q 265 90 210 96 q 357 73 319 83 q 423 39 395 64 q 450 -31 450 14 q 422 -112 450 -75 q 228 -190 362 -190 q 92 -153 140 -190 q 44 -58 44 -117 q 126 14 73 -17 l 126 19 q 56 108 56 45 q 122 167 82 139 l 122 171 q 51 291 51 209 q 103 416 51 373 q 245 460 156 460 q 341 441 299 460 q 485 480 413 456 l 496 471 l 496 391 q 419 376 465 383 m 319 305 q 241 379 319 379 q 162 304 164 379 q 239 226 162 225 q 319 305 319 225 m 343 -55 q 343 -41 343 -55 q 314 -18 343 -27 q 245 -3 286 -8 q 196 4 204 1 q 151 -55 151 -27 q 174 -99 151 -83 q 242 -114 197 -114 q 315 -98 287 -114 q 343 -55 343 -82 z "},"Ĥ":{"ha":675,"x_min":75,"x_max":600,"o":"m 192 759 q 322 861 260 803 l 349 861 q 480 759 409 807 l 456 707 l 444 707 l 413 726 q 336 768 376 744 q 260 726 295 742 l 230 707 l 217 707 l 192 759 m 598 0 l 466 0 l 474 187 l 472 260 l 330 262 l 205 260 l 204 199 l 209 0 l 75 0 l 83 187 l 75 626 l 210 626 l 206 369 l 337 365 l 471 369 l 466 626 l 600 626 l 593 199 l 598 0 z "},"ĥ":{"ha":515,"x_min":-17,"x_max":463,"o":"m 204 735 q 126 778 167 753 q 49 735 83 752 l 19 717 l 6 717 l -17 768 q 113 870 51 813 l 139 870 q 269 768 199 818 l 247 717 l 234 717 l 204 735 m 273 353 q 188 314 236 353 l 186 199 l 192 0 l 64 0 l 70 188 l 65 672 l 193 683 l 190 388 l 195 388 q 310 458 248 437 q 423 424 384 458 q 461 328 462 391 l 458 199 l 463 0 l 334 0 l 341 282 q 273 353 344 353 z "},"Ħ":{"ha":706,"x_min":26,"x_max":683,"o":"m 607 199 l 611 0 l 480 0 l 487 187 l 485 260 l 344 262 l 217 260 l 217 199 l 222 0 l 88 0 l 96 187 l 92 462 l 31 462 l 26 469 l 30 537 l 91 537 l 88 626 l 223 626 l 222 537 l 482 537 l 480 626 l 613 626 l 613 537 l 678 537 l 683 530 l 678 462 l 610 462 l 607 199 m 219 462 l 219 369 l 352 365 l 484 369 l 483 462 l 219 462 z "},"ħ":{"ha":517,"x_min":-4,"x_max":465,"o":"m 273 353 q 190 314 236 353 l 187 199 l 193 0 l 65 0 l 71 188 l 67 527 l 5 527 l -4 536 l 1 598 l 66 598 l 65 672 l 195 683 l 193 598 l 301 598 l 310 588 l 304 527 l 192 527 l 190 388 l 195 388 q 312 458 248 437 q 424 424 386 458 q 462 328 463 391 l 460 199 l 465 0 l 335 0 l 343 282 q 273 353 345 353 z "},"Ĩ":{"ha":286,"x_min":-6,"x_max":292,"o":"m 292 805 l 231 718 l 219 714 q 154 731 201 717 q 96 746 106 746 q 63 725 79 746 q 42 698 47 704 l 31 698 l -6 736 l -6 748 l 53 832 l 65 837 q 132 820 83 835 q 191 805 180 805 q 223 827 208 805 q 244 853 239 849 l 256 853 l 292 815 l 292 805 m 208 0 l 75 0 l 83 187 l 75 626 l 210 626 l 202 199 l 208 0 z "},"ĩ":{"ha":245,"x_min":-25,"x_max":274,"o":"m 47 663 l 171 630 q 212 662 191 630 q 226 679 221 675 l 238 679 l 274 641 l 274 630 l 213 544 l 201 540 l 78 572 q 44 550 60 572 q 23 524 29 528 l 13 524 l -25 562 l -25 574 l 35 658 l 47 663 m 188 0 l 58 0 l 65 187 l 60 444 l 190 454 l 180 199 l 188 0 z "},"Ī":{"ha":286,"x_min":26,"x_max":260,"o":"m 254 735 l 35 735 l 26 744 l 32 816 l 251 816 l 260 807 l 254 735 m 208 0 l 75 0 l 83 187 l 75 626 l 210 626 l 202 199 l 208 0 z "},"ī":{"ha":245,"x_min":8,"x_max":241,"o":"m 236 561 l 17 561 l 8 570 l 14 641 l 232 641 l 241 633 l 236 561 m 188 0 l 58 0 l 65 187 l 60 444 l 190 454 l 180 199 l 188 0 z "},"Ĭ":{"ha":286,"x_min":-4,"x_max":289,"o":"m 289 803 q 140 701 251 704 q -4 803 29 701 l 26 845 l 45 845 q 144 790 73 790 q 241 845 215 790 l 260 845 l 289 803 m 208 0 l 75 0 l 83 187 l 75 626 l 210 626 l 202 199 l 208 0 z "},"ĭ":{"ha":245,"x_min":-25,"x_max":267,"o":"m 188 0 l 58 0 l 65 187 l 60 444 l 190 454 l 180 199 l 188 0 m 267 637 q 216 548 253 582 q 119 515 179 515 q 24 549 60 515 q -25 637 -12 583 l 5 680 l 25 680 q 123 607 48 606 q 219 680 197 607 l 238 680 l 267 637 z "},"Į":{"ha":286,"x_min":32,"x_max":210,"o":"m 143 0 q 104 -86 104 -56 q 138 -119 104 -117 q 190 -96 165 -119 l 197 -96 l 208 -154 q 122 -192 165 -192 q 56 -168 79 -192 q 32 -114 32 -144 q 42 -60 32 -83 q 75 0 52 -36 l 83 187 l 75 626 l 210 626 l 204 199 l 209 0 l 143 0 z "},"į":{"ha":245,"x_min":16,"x_max":192,"o":"m 124 536 q 108 536 124 536 q 75 554 92 536 q 57 602 57 571 q 77 654 57 633 q 127 674 96 674 q 175 656 158 674 q 192 607 192 639 q 174 556 192 575 q 124 536 156 536 m 190 -154 q 104 -192 147 -192 q 38 -168 61 -192 q 16 -114 16 -144 q 25 -60 16 -83 q 58 0 34 -36 l 65 187 l 60 444 l 190 454 l 180 199 l 188 0 l 126 0 q 86 -86 86 -55 q 119 -119 86 -117 q 171 -96 147 -119 l 180 -96 l 190 -154 z "},"İ":{"ha":286,"x_min":74,"x_max":210,"o":"m 145 848 q 161 848 145 848 q 193 830 177 848 q 210 781 210 813 q 191 729 210 749 q 140 710 171 710 q 92 728 109 710 q 74 776 74 745 q 93 827 74 807 q 145 848 113 848 m 209 0 l 75 0 l 83 187 l 75 626 l 210 626 l 204 199 l 209 0 z "},"ı":{"ha":245,"x_min":58,"x_max":190,"o":"m 188 0 l 58 0 l 65 187 l 60 444 l 190 454 l 180 199 l 188 0 z "},"Ĳ":{"ha":611,"x_min":75,"x_max":558,"o":"m 208 0 l 75 0 l 83 187 l 75 626 l 210 626 l 202 199 l 208 0 m 554 117 q 536 23 554 61 q 362 -103 500 -51 l 322 -32 l 322 -22 q 407 40 382 9 q 432 119 432 71 l 432 193 l 427 528 l 323 526 l 313 536 l 321 626 l 558 626 l 552 206 l 554 117 z "},"ĳ":{"ha":523,"x_min":57,"x_max":461,"o":"m 127 674 q 143 674 127 674 q 175 656 158 674 q 192 607 192 639 q 174 556 192 575 q 124 536 156 536 q 75 554 92 536 q 57 602 57 571 q 77 654 57 633 q 127 674 96 674 m 387 674 q 449 607 449 674 q 431 556 449 575 q 381 536 413 536 q 332 554 349 536 q 315 602 315 571 q 334 654 315 633 q 387 674 353 674 m 453 199 l 460 26 q 423 -102 460 -52 q 301 -190 386 -152 l 256 -132 l 256 -121 q 318 -62 300 -96 q 336 23 336 -29 l 337 187 l 335 371 l 256 371 l 248 378 l 254 448 l 336 448 l 457 456 l 461 453 l 453 199 m 188 0 l 58 0 l 65 187 l 60 444 l 190 454 l 180 199 l 188 0 z "},"Ĵ":{"ha":325,"x_min":0,"x_max":287,"o":"m 156 861 q 287 759 217 806 l 263 707 l 251 707 l 221 726 q 144 768 184 744 q 67 726 103 742 l 38 707 l 25 707 l 0 759 q 130 861 67 803 l 156 861 m 244 206 l 245 117 q 227 23 245 61 q 55 -103 193 -49 l 14 -32 l 14 -22 q 99 40 74 9 q 123 119 123 71 l 123 193 l 119 528 l 14 526 l 5 536 l 12 626 l 251 626 l 244 206 z "},"ĵ":{"ha":275,"x_min":-14,"x_max":287,"o":"m -14 561 q 122 698 40 613 l 151 698 q 287 561 226 615 l 254 511 l 241 511 q 136 601 177 562 q 31 511 99 565 l 18 511 l -14 561 m 206 199 l 212 26 q 175 -102 212 -52 q 53 -190 138 -152 l 8 -132 l 8 -121 q 71 -62 52 -96 q 90 23 90 -29 l 91 187 l 86 371 l 9 371 l 1 378 l 6 448 l 90 448 l 210 456 l 213 453 l 206 199 z "},"Ķ":{"ha":566,"x_min":74,"x_max":576,"o":"m 336 331 q 576 27 448 175 l 574 13 q 444 -10 514 -1 l 430 -1 q 205 322 291 188 l 202 199 l 208 0 l 74 0 l 83 187 l 74 626 l 209 626 l 205 335 l 379 566 l 415 626 l 558 626 l 336 331 m 323 -39 q 362 -113 362 -69 q 258 -265 362 -191 l 219 -231 l 219 -223 q 267 -138 269 -183 q 240 -84 267 -109 l 240 -74 q 323 -39 283 -48 z "},"ķ":{"ha":480,"x_min":64,"x_max":474,"o":"m 192 0 l 64 0 l 70 188 l 65 672 l 193 683 l 186 199 l 192 0 m 317 248 q 474 22 365 173 l 474 8 q 353 -10 441 1 l 340 -4 q 192 236 249 125 l 192 245 l 305 405 l 328 453 l 465 453 l 317 248 m 291 -39 q 330 -113 330 -69 q 225 -265 330 -191 l 187 -231 l 186 -223 q 235 -138 235 -183 q 208 -84 235 -109 l 208 -74 q 291 -39 251 -48 z "},"ĸ":{"ha":478,"x_min":58,"x_max":472,"o":"m 188 0 l 58 0 l 65 187 l 60 444 l 190 454 l 180 199 l 188 0 m 315 248 q 472 22 363 173 l 472 8 q 352 -10 440 1 l 337 -4 q 191 236 247 125 l 191 245 l 304 405 l 327 453 l 462 453 l 315 248 z "},"Ĺ":{"ha":421,"x_min":71,"x_max":419,"o":"m 350 785 l 347 774 q 138 698 257 739 l 126 701 l 104 755 q 306 864 221 815 l 318 862 l 350 785 m 410 0 l 71 0 l 79 187 l 71 626 l 206 626 l 199 199 l 201 109 l 411 109 l 419 99 l 410 0 z "},"ĺ":{"ha":254,"x_min":26,"x_max":271,"o":"m 271 819 l 267 807 q 60 732 179 772 l 47 736 l 26 789 q 227 900 143 849 l 239 896 l 271 819 m 192 0 l 64 0 l 70 188 l 65 672 l 193 683 l 186 199 l 192 0 z "},"Ļ":{"ha":421,"x_min":71,"x_max":419,"o":"m 410 0 l 71 0 l 80 187 l 71 626 l 206 626 l 199 199 l 202 109 l 411 109 l 419 99 l 410 0 m 261 -39 q 300 -113 300 -69 q 195 -265 300 -191 l 156 -231 l 156 -223 q 205 -138 205 -183 q 177 -84 205 -109 l 177 -74 q 261 -39 219 -48 z "},"ļ":{"ha":254,"x_min":56,"x_max":199,"o":"m 192 0 l 64 0 l 70 188 l 65 672 l 193 683 l 186 199 l 192 0 m 161 -39 q 199 -113 199 -69 q 95 -265 199 -191 l 56 -231 l 56 -223 q 104 -138 105 -183 q 78 -84 104 -109 l 78 -74 q 161 -39 121 -48 z "},"Ľ":{"ha":453,"x_min":71,"x_max":421,"o":"m 419 99 l 410 0 l 71 0 l 80 187 l 71 626 l 206 626 l 199 199 l 202 109 l 411 109 l 419 99 m 321 569 l 413 574 l 421 566 l 389 371 l 332 362 l 322 371 l 321 569 z "},"ľ":{"ha":308,"x_min":64,"x_max":339,"o":"m 192 0 l 64 0 l 70 188 l 65 672 l 193 683 l 186 199 l 192 0 m 308 426 l 251 417 l 241 424 l 239 623 l 332 628 l 339 619 l 308 426 z "},"Ŀ":{"ha":441,"x_min":71,"x_max":439,"o":"m 410 0 l 71 0 l 79 187 l 71 626 l 206 626 l 199 199 l 201 109 l 411 109 l 419 99 l 410 0 m 375 470 q 439 404 439 470 q 420 352 439 371 q 370 332 401 332 q 321 350 339 332 q 304 398 304 367 q 323 450 304 430 q 375 470 341 470 z "},"ŀ":{"ha":358,"x_min":64,"x_max":362,"o":"m 192 0 l 64 0 l 70 188 l 65 672 l 193 683 l 186 199 l 192 0 m 297 353 q 313 353 297 353 q 345 336 328 353 q 362 286 362 318 q 343 234 362 254 q 293 214 325 214 q 243 232 261 214 q 226 281 226 249 q 245 333 226 313 q 297 353 265 353 z "},"Ł":{"ha":436,"x_min":0,"x_max":435,"o":"m 427 0 l 87 0 l 96 187 l 95 241 l 36 210 l 23 217 l 0 293 l 92 341 l 87 626 l 223 626 l 219 406 l 318 457 l 331 450 l 353 375 l 217 304 l 214 199 l 218 109 l 428 109 l 435 99 l 427 0 z "},"ł":{"ha":279,"x_min":-6,"x_max":289,"o":"m 205 0 l 75 0 l 83 188 l 82 286 l 26 256 l 18 260 l -6 334 l 80 378 l 78 672 l 205 683 l 201 428 l 258 458 l 263 456 l 289 380 l 200 334 l 199 199 l 205 0 z "},"Ń":{"ha":675,"x_min":75,"x_max":601,"o":"m 480 785 l 478 774 q 267 698 387 739 l 256 701 l 235 755 q 436 864 352 815 l 448 862 l 480 785 m 598 0 l 456 0 l 201 424 l 192 424 l 192 217 l 196 0 l 75 0 l 83 184 l 78 626 l 219 626 l 474 202 l 483 202 l 478 620 l 601 628 l 593 193 l 598 0 z "},"ń":{"ha":511,"x_min":58,"x_max":458,"o":"m 336 282 q 275 353 336 353 q 182 312 231 353 l 182 199 l 188 0 l 58 0 l 65 187 l 60 444 l 183 454 l 183 388 l 190 388 q 306 458 245 437 q 419 424 380 458 q 456 328 457 391 l 453 199 l 458 0 l 328 0 l 336 282 m 422 633 l 419 620 q 332 567 397 607 q 230 505 266 527 l 217 506 l 186 556 q 362 704 299 646 l 375 704 l 422 633 z "},"Ņ":{"ha":675,"x_min":75,"x_max":601,"o":"m 598 0 l 456 0 l 201 424 l 192 424 l 192 217 l 197 0 l 75 0 l 83 184 l 78 626 l 219 626 l 474 202 l 483 202 l 478 620 l 601 628 l 593 193 l 598 0 m 370 -39 q 408 -113 408 -69 q 304 -265 408 -191 l 265 -231 l 265 -223 q 314 -138 314 -183 q 286 -84 314 -109 l 286 -74 q 370 -39 328 -48 z "},"ņ":{"ha":511,"x_min":58,"x_max":460,"o":"m 188 0 l 58 0 l 65 187 l 60 444 l 183 454 l 182 388 l 190 388 q 306 458 243 437 q 419 424 380 458 q 456 328 458 391 l 453 199 l 460 0 l 328 0 l 336 282 q 321 334 337 315 q 268 353 305 353 q 182 312 231 353 l 180 199 l 188 0 m 332 -113 q 227 -265 332 -191 l 190 -231 l 190 -223 q 238 -138 239 -183 q 210 -84 238 -109 l 210 -74 q 293 -39 253 -48 q 332 -113 332 -69 z "},"Ň":{"ha":675,"x_min":75,"x_max":601,"o":"m 352 698 l 326 698 q 195 800 266 752 l 218 852 l 231 852 l 261 833 q 337 789 297 815 q 414 833 379 815 l 444 852 l 457 852 l 482 800 q 352 698 415 754 m 598 0 l 456 0 l 201 424 l 192 424 l 192 217 l 196 0 l 75 0 l 83 184 l 78 626 l 219 626 l 474 202 l 483 202 l 478 620 l 601 628 l 593 193 l 598 0 z "},"ň":{"ha":511,"x_min":58,"x_max":458,"o":"m 287 510 l 260 510 q 122 646 184 593 l 154 696 l 167 696 q 274 607 232 645 q 378 696 312 644 l 391 696 l 423 646 q 287 510 369 596 m 336 282 q 275 353 336 353 q 182 312 231 353 l 182 199 l 188 0 l 58 0 l 65 187 l 60 444 l 183 454 l 183 388 l 190 388 q 306 458 245 437 q 419 424 380 458 q 456 328 457 391 l 453 199 l 458 0 l 328 0 l 336 282 z "},"Ŋ":{"ha":675,"x_min":75,"x_max":601,"o":"m 596 55 q 519 -109 596 -51 q 405 -166 478 -139 l 365 -96 l 365 -83 q 463 1 443 -44 l 201 424 l 192 424 l 192 217 l 196 0 l 75 0 l 83 184 l 78 626 l 219 626 l 474 210 l 483 210 l 478 620 l 601 628 l 593 193 l 596 55 z "},"ŋ":{"ha":518,"x_min":58,"x_max":460,"o":"m 460 26 q 423 -101 460 -51 q 301 -190 386 -152 l 256 -132 l 256 -121 q 317 -62 299 -95 q 336 23 336 -29 l 336 282 q 275 353 336 353 q 182 312 231 353 l 182 199 l 188 0 l 58 0 l 65 187 l 60 444 l 183 454 l 183 388 l 190 388 q 306 458 245 437 q 419 424 380 458 q 456 328 457 391 l 453 199 l 460 26 z "},"Ō":{"ha":624,"x_min":27,"x_max":598,"o":"m 319 635 q 387 635 319 635 q 527 554 456 635 q 598 319 598 474 q 521 77 598 165 q 307 -10 444 -10 q 99 72 170 -10 q 27 309 27 154 q 104 549 27 463 q 319 635 182 635 m 313 528 q 274 528 313 528 q 200 480 235 528 q 165 314 165 431 q 199 145 165 197 q 313 92 234 92 q 426 141 392 92 q 461 307 461 190 q 426 476 461 424 q 313 528 392 528 m 461 748 l 188 748 l 179 757 l 187 828 l 458 828 l 466 820 l 461 748 z "},"ō":{"ha":479,"x_min":29,"x_max":450,"o":"m 243 461 q 295 461 243 461 q 398 402 347 461 q 450 230 450 344 q 394 53 450 116 q 236 -10 337 -10 q 81 49 134 -10 q 29 222 29 108 q 84 398 29 336 q 243 461 140 461 m 239 374 q 215 374 239 374 q 171 342 192 374 q 151 231 151 310 q 171 115 151 152 q 240 78 192 78 q 309 108 288 78 q 330 217 330 138 q 308 335 330 296 q 239 374 286 374 m 383 561 l 110 561 l 101 570 l 109 641 l 380 641 l 388 633 l 383 561 z "},"Ŏ":{"ha":624,"x_min":27,"x_max":598,"o":"m 460 803 q 310 701 423 704 q 220 728 257 701 q 167 803 183 754 l 197 845 l 217 845 q 315 790 244 790 q 411 845 386 790 l 430 845 l 460 803 m 319 635 q 387 635 319 635 q 527 554 456 635 q 598 319 598 474 q 521 77 598 165 q 307 -10 444 -10 q 99 72 170 -10 q 27 309 27 154 q 104 549 27 463 q 319 635 182 635 m 313 528 q 274 528 313 528 q 200 480 235 528 q 165 314 165 431 q 199 145 165 197 q 313 92 234 92 q 426 141 392 92 q 461 307 461 190 q 426 476 461 424 q 313 528 392 528 z "},"ŏ":{"ha":479,"x_min":29,"x_max":450,"o":"m 243 461 q 295 461 243 461 q 398 402 347 461 q 450 230 450 344 q 394 53 450 116 q 236 -10 337 -10 q 81 49 134 -10 q 29 222 29 108 q 84 398 29 336 q 243 461 140 461 m 239 374 q 215 374 239 374 q 171 342 192 374 q 151 231 151 310 q 171 115 151 152 q 240 78 192 78 q 309 108 288 78 q 330 217 330 138 q 308 335 330 296 q 239 374 286 374 m 392 637 q 341 548 378 582 q 244 515 304 515 q 149 549 184 515 q 100 637 113 583 l 130 680 l 149 680 q 247 607 173 606 q 344 680 322 607 l 362 680 l 392 637 z "},"Ő":{"ha":624,"x_min":27,"x_max":598,"o":"m 199 758 q 276 859 261 839 l 287 861 l 347 823 l 347 811 q 227 698 293 758 l 215 696 l 174 728 l 199 758 m 340 748 q 427 859 387 805 l 437 861 l 497 823 l 498 811 q 376 698 440 754 l 366 696 l 326 728 l 340 748 m 319 635 q 387 635 319 635 q 527 554 456 635 q 598 319 598 474 q 521 77 598 165 q 307 -10 444 -10 q 99 72 170 -10 q 27 309 27 154 q 104 549 27 463 q 319 635 182 635 m 313 528 q 274 528 313 528 q 200 480 235 528 q 165 314 165 431 q 199 145 165 197 q 313 92 234 92 q 426 141 392 92 q 461 307 461 190 q 426 476 461 424 q 313 528 392 528 z "},"ő":{"ha":479,"x_min":29,"x_max":450,"o":"m 243 461 q 295 461 243 461 q 398 402 347 461 q 450 230 450 344 q 394 53 450 116 q 236 -10 337 -10 q 81 49 134 -10 q 29 222 29 108 q 84 398 29 336 q 243 461 140 461 m 239 374 q 215 374 239 374 q 171 342 192 374 q 151 231 151 310 q 171 115 151 152 q 240 78 192 78 q 309 108 288 78 q 330 217 330 138 q 308 335 330 296 q 239 374 286 374 m 109 539 q 231 706 177 626 l 241 707 l 300 665 l 301 656 q 161 509 248 596 l 149 505 l 109 539 m 258 539 q 379 706 330 633 l 389 707 l 449 665 l 449 656 q 310 509 396 596 l 299 505 l 258 539 z "},"Œ":{"ha":844,"x_min":27,"x_max":829,"o":"m 343 637 q 437 632 379 637 q 522 626 496 627 l 822 626 l 829 615 l 819 517 l 674 522 l 556 522 l 556 371 l 659 369 l 765 371 l 774 362 l 763 263 l 650 266 l 553 265 l 553 105 l 662 103 l 819 109 l 827 99 l 818 0 l 522 0 q 421 -5 485 1 q 322 -12 356 -10 q 104 72 182 -12 q 27 310 27 156 q 110 550 27 463 q 343 637 193 637 m 321 530 q 282 531 321 530 q 204 480 244 531 q 165 314 165 428 q 205 145 165 200 q 334 90 245 90 q 411 101 392 90 q 431 144 431 112 l 428 475 q 412 519 427 508 q 321 530 397 530 z "},"œ":{"ha":748,"x_min":26,"x_max":719,"o":"m 435 209 q 558 86 443 86 q 689 122 622 86 l 700 114 l 681 19 q 545 -10 614 -9 q 383 65 437 -10 q 230 -10 331 -9 q 78 49 130 -10 q 26 222 26 109 q 82 397 26 335 q 238 460 138 460 q 387 389 339 460 q 533 460 440 460 q 672 412 626 460 q 718 282 718 365 q 714 228 719 247 l 696 210 l 435 209 m 537 375 q 437 279 456 375 l 604 283 l 606 296 q 537 375 605 375 m 240 78 q 264 78 240 78 q 309 108 288 78 q 330 217 330 138 q 308 335 330 296 q 238 374 286 374 q 171 342 191 374 q 151 231 151 310 q 171 115 151 152 q 240 78 192 78 z "},"Ŕ":{"ha":572,"x_min":75,"x_max":556,"o":"m 405 249 q 556 31 483 129 l 553 17 q 424 -10 489 -6 l 410 1 q 296 210 340 122 l 202 210 l 202 199 l 208 0 l 75 0 l 83 187 l 75 626 l 317 627 q 469 579 415 627 q 522 441 522 531 q 491 331 522 382 q 405 249 460 280 m 383 428 q 274 530 383 527 l 208 526 l 205 314 l 301 309 q 383 428 384 337 m 437 820 l 435 807 q 347 754 413 794 q 245 692 282 714 l 232 693 l 201 742 q 378 890 314 833 l 391 890 l 437 820 z "},"ŕ":{"ha":336,"x_min":58,"x_max":339,"o":"m 308 453 q 332 450 317 452 l 332 332 l 319 327 q 283 334 302 334 q 180 262 227 334 l 180 199 l 188 0 l 58 0 l 65 187 l 60 444 l 183 454 l 182 365 l 190 365 q 308 453 236 452 m 339 633 l 336 620 q 249 567 314 607 q 147 505 183 527 l 134 506 l 103 556 q 279 704 215 646 l 292 704 l 339 633 z "},"Ŗ":{"ha":572,"x_min":75,"x_max":554,"o":"m 404 249 q 554 31 489 114 l 553 17 q 424 -10 489 -6 l 409 1 q 296 210 337 130 l 204 210 l 204 199 l 209 0 l 75 0 l 83 187 l 75 626 l 317 627 q 469 579 415 627 q 522 441 522 531 q 491 331 522 382 q 404 249 460 280 m 383 428 q 274 530 383 527 l 208 526 l 205 314 l 301 309 q 383 428 384 337 m 360 -113 q 254 -265 360 -191 l 217 -231 l 217 -223 q 265 -138 266 -183 q 238 -84 265 -109 l 238 -74 q 321 -39 280 -48 q 360 -113 360 -69 z "},"ŗ":{"ha":336,"x_min":51,"x_max":332,"o":"m 308 453 q 332 450 317 452 l 332 332 l 318 327 q 283 334 301 334 q 180 262 226 334 l 180 199 l 188 0 l 58 0 l 65 187 l 60 444 l 183 454 l 182 365 l 190 365 q 308 453 236 452 m 156 -39 q 195 -113 195 -69 q 90 -265 195 -191 l 52 -231 l 51 -223 q 99 -138 100 -183 q 71 -84 99 -109 l 71 -74 q 156 -39 114 -48 z "},"Ř":{"ha":572,"x_min":75,"x_max":556,"o":"m 301 684 l 274 684 q 138 822 199 767 l 169 871 l 182 871 q 288 781 247 820 q 392 871 326 818 l 405 871 l 437 822 q 301 684 383 770 m 556 31 l 553 17 q 424 -10 489 -6 l 410 1 q 296 210 340 122 l 202 210 l 202 199 l 208 0 l 75 0 l 83 187 l 75 626 l 317 627 q 469 579 415 627 q 522 441 522 531 q 491 331 522 382 q 405 249 460 280 q 556 31 483 129 m 383 428 q 274 530 383 527 l 208 526 l 205 314 l 301 309 q 383 428 384 337 z "},"ř":{"ha":336,"x_min":47,"x_max":347,"o":"m 210 510 l 183 510 q 47 646 108 593 l 78 696 l 91 696 q 197 607 156 645 q 301 696 235 644 l 314 696 l 347 646 q 210 510 292 596 m 332 450 l 332 332 l 319 327 q 283 334 302 334 q 180 262 227 334 l 180 199 l 188 0 l 58 0 l 65 187 l 60 444 l 183 454 l 182 365 l 190 365 q 308 453 236 452 q 332 450 317 452 z "},"Ś":{"ha":483,"x_min":30,"x_max":450,"o":"m 395 480 q 262 531 325 531 q 200 510 223 531 q 177 461 177 489 q 202 414 177 434 q 282 369 227 395 q 370 323 336 344 q 450 184 450 274 q 421 87 450 131 q 339 17 392 43 q 205 -9 286 -9 q 30 31 125 -9 l 49 153 l 64 162 q 149 110 103 129 q 234 92 195 92 q 297 113 274 92 q 321 164 321 134 q 295 213 321 193 q 214 258 269 232 q 126 304 158 283 q 47 441 47 352 q 76 539 47 496 q 158 609 105 583 q 283 633 210 635 q 435 601 356 632 l 414 488 l 395 480 m 400 820 l 397 807 q 310 754 375 794 q 208 692 244 714 l 195 693 l 164 742 q 340 890 276 833 l 353 890 l 400 820 z "},"ś":{"ha":373,"x_min":19,"x_max":347,"o":"m 202 460 q 239 460 202 460 q 335 437 276 461 l 318 343 l 302 337 q 196 375 244 375 q 159 363 173 375 q 145 332 145 350 q 164 301 145 314 q 221 273 182 288 q 285 242 260 257 q 328 202 310 227 q 347 138 347 177 q 327 65 347 99 q 165 -10 282 -10 q 19 19 95 -10 l 35 121 l 47 129 q 114 88 77 103 q 179 73 152 73 q 221 86 206 73 q 235 117 235 99 q 217 150 235 136 q 160 180 199 164 q 96 210 121 196 q 34 313 34 245 q 81 420 34 380 q 202 460 129 460 m 331 633 l 328 620 q 241 567 306 607 q 139 505 175 527 l 126 506 l 95 556 q 271 704 208 646 l 284 704 l 331 633 z "},"Ŝ":{"ha":483,"x_min":30,"x_max":450,"o":"m 103 735 q 240 872 158 787 l 267 872 q 405 735 343 789 l 373 685 l 360 685 q 253 775 295 736 q 149 685 215 739 l 136 685 l 103 735 m 395 480 q 262 531 325 531 q 200 510 223 531 q 177 461 177 489 q 202 414 177 434 q 282 369 227 395 q 370 323 336 344 q 450 184 450 274 q 421 87 450 131 q 339 17 392 43 q 205 -9 286 -9 q 30 31 125 -9 l 49 153 l 64 162 q 149 110 103 129 q 234 92 195 92 q 297 113 274 92 q 321 164 321 134 q 295 213 321 193 q 214 258 269 232 q 126 304 158 283 q 47 441 47 352 q 76 539 47 496 q 158 609 105 583 q 283 633 210 635 q 435 601 356 632 l 414 488 l 395 480 z "},"ŝ":{"ha":373,"x_min":19,"x_max":347,"o":"m 38 561 q 175 698 93 613 l 204 698 q 339 561 279 615 l 308 511 l 295 511 q 190 601 230 562 q 83 511 152 565 l 71 511 l 38 561 m 204 460 q 241 460 204 460 q 335 437 279 461 l 319 343 l 302 337 q 196 375 245 375 q 159 363 173 375 q 145 332 145 350 q 164 301 145 314 q 221 273 182 288 q 285 242 260 257 q 328 202 310 227 q 347 138 347 177 q 327 65 347 99 q 165 -10 282 -10 q 19 19 96 -10 l 36 121 l 47 129 q 115 88 78 103 q 179 73 152 73 q 221 86 206 73 q 235 117 235 99 q 217 150 235 136 q 160 180 199 164 q 96 210 121 196 q 35 313 35 245 q 82 420 35 380 q 204 460 129 460 z "},"Ş":{"ha":483,"x_min":30,"x_max":450,"o":"m 395 480 q 262 531 325 531 q 200 510 223 531 q 177 461 177 489 q 202 414 177 434 q 282 369 227 395 q 370 323 336 344 q 450 184 450 274 q 400 60 450 113 q 263 -5 349 8 l 253 -47 l 287 -65 q 327 -119 327 -86 q 302 -174 327 -153 q 234 -195 276 -195 q 156 -169 191 -195 l 165 -114 l 170 -110 q 225 -140 199 -139 q 251 -119 251 -140 q 235 -100 251 -109 l 187 -73 l 201 -9 q 30 31 116 -6 l 49 153 l 64 162 q 149 110 103 129 q 234 92 195 92 q 297 113 274 92 q 321 164 321 134 q 295 213 321 193 q 214 258 269 232 q 126 304 158 283 q 47 441 47 352 q 76 539 47 496 q 158 609 105 583 q 284 635 210 635 q 435 601 358 635 l 414 488 l 395 480 z "},"ş":{"ha":373,"x_min":19,"x_max":347,"o":"m 347 145 q 347 116 347 145 q 312 45 347 86 q 210 -5 276 5 l 200 -47 l 234 -65 q 274 -119 274 -86 q 249 -174 274 -153 q 180 -195 223 -195 q 101 -169 138 -195 l 110 -114 l 117 -110 q 171 -140 145 -139 q 197 -119 197 -140 q 180 -100 197 -108 l 134 -73 l 148 -9 q 19 19 87 -6 l 36 121 l 47 129 q 115 88 78 103 q 179 73 152 73 q 221 86 206 73 q 235 117 235 99 q 217 150 235 136 q 160 180 199 164 q 96 210 121 196 q 35 313 35 245 q 82 420 35 380 q 204 460 129 460 q 335 437 279 460 l 319 343 l 302 337 q 196 375 245 375 q 159 363 173 375 q 145 332 145 350 q 164 301 145 314 q 221 273 182 288 q 286 241 260 257 q 347 145 347 205 z "},"Š":{"ha":483,"x_min":30,"x_max":450,"o":"m 267 684 l 240 684 q 104 822 165 767 l 135 871 l 148 871 q 254 781 213 820 q 358 871 291 818 l 371 871 l 405 822 q 267 684 350 770 m 395 480 q 262 531 325 531 q 200 510 223 531 q 177 461 177 489 q 202 414 177 434 q 282 369 227 395 q 370 323 336 344 q 450 184 450 274 q 421 87 450 131 q 339 17 392 43 q 205 -9 286 -9 q 30 31 125 -9 l 49 153 l 64 162 q 149 110 103 129 q 234 92 195 92 q 297 113 274 92 q 321 164 321 134 q 295 213 321 193 q 214 258 269 232 q 126 304 158 283 q 47 441 47 352 q 76 539 47 496 q 158 609 105 583 q 283 633 210 635 q 435 601 356 632 l 414 488 l 395 480 z "},"š":{"ha":373,"x_min":19,"x_max":347,"o":"m 202 510 l 174 510 q 38 646 99 593 l 70 696 l 83 696 q 190 607 148 645 q 293 696 227 644 l 306 696 l 339 646 q 202 510 284 596 m 335 437 l 318 343 l 302 337 q 196 375 244 375 q 159 363 173 375 q 145 332 145 350 q 164 301 145 314 q 221 273 182 288 q 285 242 260 257 q 328 202 310 227 q 347 138 347 177 q 327 65 347 99 q 165 -10 282 -10 q 19 19 95 -10 l 35 121 l 47 129 q 114 88 77 103 q 179 73 152 73 q 221 86 206 73 q 235 117 235 99 q 217 150 235 136 q 160 180 199 164 q 96 210 121 196 q 34 313 34 245 q 81 420 34 380 q 202 460 129 460 q 335 437 276 461 z "},"Ţ":{"ha":488,"x_min":14,"x_max":475,"o":"m 467 517 l 349 523 l 312 523 l 306 199 l 312 0 l 274 0 l 262 -47 l 296 -65 q 336 -119 336 -86 q 310 -174 335 -153 q 243 -195 286 -195 q 165 -169 200 -195 l 173 -114 l 179 -110 q 234 -140 208 -139 q 260 -119 260 -140 q 244 -100 260 -109 l 195 -73 l 212 0 l 180 0 l 188 187 l 182 523 l 141 523 l 23 517 l 14 528 l 23 626 l 467 626 l 475 615 l 467 517 z "},"ţ":{"ha":327,"x_min":12,"x_max":319,"o":"m 244 96 q 259 96 244 96 q 308 112 274 96 l 317 101 l 305 26 q 210 -5 256 0 l 200 -47 l 234 -65 q 274 -119 274 -86 q 249 -174 274 -153 q 180 -195 223 -195 q 101 -169 138 -195 l 110 -114 l 117 -110 q 171 -140 145 -139 q 197 -119 197 -140 q 180 -100 197 -108 l 134 -73 l 151 5 q 73 122 73 31 l 78 204 l 78 371 l 16 371 l 12 376 l 17 448 l 75 448 l 75 523 l 192 561 l 202 553 l 199 448 l 314 448 l 319 441 l 312 371 l 197 371 l 192 153 q 202 109 191 122 q 244 96 214 96 z "},"Ť":{"ha":488,"x_min":14,"x_max":475,"o":"m 262 684 l 234 684 q 97 822 158 767 l 129 871 l 141 871 q 248 781 206 820 q 353 871 286 818 l 365 871 l 398 822 q 262 684 344 770 m 467 517 l 350 523 l 310 523 l 306 199 l 312 0 l 180 0 l 187 187 l 182 523 l 143 523 l 23 517 l 14 528 l 23 626 l 467 626 l 475 615 l 467 517 z "},"ť":{"ha":327,"x_min":12,"x_max":340,"o":"m 308 493 l 252 484 l 243 492 l 240 689 l 332 696 l 340 687 l 308 493 m 308 112 l 318 101 l 305 26 q 205 -5 257 0 q 73 122 74 8 l 78 204 l 78 371 l 17 371 l 12 376 l 18 448 l 75 448 l 75 523 l 193 561 l 202 553 l 199 448 l 315 448 l 319 441 l 314 371 l 197 371 l 192 153 q 203 109 192 122 q 244 96 214 96 q 308 112 274 96 z "},"Ŧ":{"ha":488,"x_min":14,"x_max":475,"o":"m 308 332 l 404 332 l 413 322 l 406 260 l 308 260 l 306 199 l 312 0 l 180 0 l 188 187 l 187 260 l 99 260 l 91 267 l 96 332 l 186 332 l 182 523 l 141 523 l 23 517 l 14 528 l 23 626 l 467 626 l 475 615 l 467 517 l 349 523 l 312 523 l 308 332 z "},"ŧ":{"ha":332,"x_min":14,"x_max":321,"o":"m 247 96 q 262 96 247 96 q 310 112 276 96 l 319 101 l 308 26 q 208 -5 256 0 q 75 122 77 8 l 80 204 l 80 217 l 25 217 l 16 226 l 19 289 l 80 289 l 80 371 l 18 371 l 14 376 l 19 448 l 79 448 l 79 523 l 195 561 l 205 553 l 202 448 l 317 448 l 321 441 l 315 371 l 200 371 l 199 289 l 300 289 l 308 280 l 304 217 l 196 217 l 195 153 q 206 109 193 122 q 247 96 218 96 z "},"Ũ":{"ha":619,"x_min":60,"x_max":563,"o":"m 557 226 q 492 53 558 114 q 304 -9 426 -9 q 121 51 183 -9 q 62 221 60 110 l 64 310 l 60 626 l 192 626 l 186 238 q 310 99 184 99 q 435 231 436 99 l 428 626 l 563 626 l 557 226 m 489 820 l 422 733 l 409 728 q 326 746 383 731 q 260 762 270 762 q 199 713 238 762 l 187 713 l 148 752 l 148 761 l 217 849 l 230 853 q 310 835 253 850 q 378 819 366 819 q 402 829 391 819 q 424 852 413 839 q 440 868 436 864 l 452 868 l 489 831 l 489 820 z "},"ũ":{"ha":506,"x_min":56,"x_max":492,"o":"m 456 88 q 483 92 467 88 l 492 84 l 480 17 q 409 -8 449 -3 q 332 65 348 -3 l 322 65 q 208 -5 266 12 q 96 28 135 -5 q 57 125 57 61 l 60 239 l 56 444 l 180 454 l 177 167 q 235 99 177 99 q 319 136 276 99 l 319 444 l 443 454 l 435 117 q 456 88 435 88 m 424 633 l 357 546 l 344 541 q 262 559 318 544 q 195 575 205 575 q 134 526 173 575 l 122 526 l 83 565 l 83 574 l 152 662 l 165 666 q 245 648 188 663 q 313 632 301 632 q 337 642 326 632 q 360 665 348 652 q 375 681 371 678 l 387 681 l 424 644 l 424 633 z "},"Ū":{"ha":619,"x_min":60,"x_max":563,"o":"m 557 226 q 492 53 558 114 q 304 -9 426 -9 q 121 51 183 -9 q 62 221 60 110 l 64 310 l 60 626 l 192 626 l 186 238 q 310 99 184 99 q 435 231 436 99 l 428 626 l 563 626 l 557 226 m 458 748 l 186 748 l 177 757 l 184 828 l 456 828 l 463 820 l 458 748 z "},"ū":{"ha":506,"x_min":56,"x_max":492,"o":"m 456 88 q 483 92 467 88 l 492 84 l 480 17 q 409 -8 449 -3 q 332 65 348 -3 l 322 65 q 208 -5 266 12 q 96 28 135 -5 q 57 125 57 61 l 60 239 l 56 444 l 180 454 l 177 167 q 235 99 177 99 q 319 136 276 99 l 319 444 l 443 454 l 435 117 q 456 88 435 88 m 393 561 l 121 561 l 112 570 l 119 641 l 391 641 l 398 633 l 393 561 z "},"Ŭ":{"ha":619,"x_min":60,"x_max":563,"o":"m 557 226 q 492 53 558 114 q 304 -9 426 -9 q 121 51 183 -9 q 62 221 60 110 l 64 310 l 60 626 l 192 626 l 186 238 q 310 99 184 99 q 435 231 436 99 l 428 626 l 563 626 l 557 226 m 467 824 q 416 735 453 768 q 319 702 379 702 q 224 736 260 702 q 175 824 188 770 l 205 867 l 225 867 q 323 794 248 793 q 419 867 397 794 l 437 867 l 467 824 z "},"ŭ":{"ha":506,"x_min":56,"x_max":492,"o":"m 456 88 q 483 92 467 88 l 492 84 l 480 17 q 409 -8 449 -3 q 332 65 348 -3 l 322 65 q 208 -5 266 12 q 96 28 135 -5 q 57 125 57 61 l 60 239 l 56 444 l 180 454 l 177 167 q 235 99 177 99 q 319 136 276 99 l 319 444 l 443 454 l 435 117 q 456 88 435 88 m 402 637 q 351 548 388 582 q 254 515 314 515 q 159 549 195 515 q 110 637 123 583 l 140 680 l 160 680 q 258 607 183 606 q 354 680 332 607 l 373 680 l 402 637 z "},"Ů":{"ha":619,"x_min":60,"x_max":563,"o":"m 557 226 q 492 53 558 114 q 304 -9 426 -9 q 121 51 183 -9 q 62 221 60 110 l 64 310 l 60 626 l 192 626 l 186 238 q 310 99 184 99 q 435 231 436 99 l 428 626 l 563 626 l 557 226 m 321 890 q 343 890 321 890 q 389 867 366 890 q 413 800 413 844 q 387 731 413 757 q 318 706 362 706 q 251 730 274 706 q 227 798 227 754 q 251 866 227 842 q 321 890 275 890 m 360 797 q 320 835 360 835 q 280 798 280 836 q 321 761 280 761 q 360 797 361 761 z "},"ů":{"ha":506,"x_min":56,"x_max":492,"o":"m 456 88 q 483 92 467 88 l 492 84 l 480 17 q 409 -8 449 -3 q 332 65 348 -3 l 322 65 q 208 -5 266 12 q 96 28 135 -5 q 57 125 57 61 l 60 239 l 56 444 l 180 454 l 177 167 q 235 99 177 99 q 319 136 276 99 l 319 444 l 443 454 l 435 117 q 456 88 435 88 m 256 704 q 278 704 256 704 q 325 680 301 704 q 348 613 348 657 q 323 545 348 570 q 253 519 297 519 q 186 543 209 519 q 162 611 162 567 q 186 680 162 656 q 256 704 210 704 m 295 610 q 255 648 295 648 q 215 611 215 649 q 256 574 215 574 q 295 610 296 574 z "},"Ű":{"ha":619,"x_min":60,"x_max":563,"o":"m 196 758 q 274 859 258 839 l 284 861 l 344 823 l 344 811 q 225 698 291 758 l 213 696 l 171 728 l 196 758 m 337 748 q 424 859 384 805 l 435 861 l 495 823 l 496 811 q 374 698 437 754 l 363 696 l 322 728 l 337 748 m 557 226 q 492 53 558 114 q 304 -9 426 -9 q 121 51 183 -9 q 62 221 60 110 l 64 310 l 60 626 l 192 626 l 186 238 q 310 99 184 99 q 435 231 436 99 l 428 626 l 563 626 l 557 226 z "},"ű":{"ha":506,"x_min":56,"x_max":492,"o":"m 456 88 q 483 92 467 88 l 492 84 l 480 17 q 409 -8 449 -3 q 332 65 348 -3 l 322 65 q 208 -5 266 12 q 96 28 135 -5 q 57 125 57 61 l 60 239 l 56 444 l 180 454 l 177 167 q 235 99 177 99 q 319 136 276 99 l 319 444 l 443 454 l 435 117 q 456 88 435 88 m 121 539 q 243 706 188 626 l 253 707 l 312 665 l 313 656 q 173 509 260 596 l 161 505 l 121 539 m 270 539 q 391 706 341 633 l 401 707 l 461 665 l 461 656 q 322 509 408 596 l 310 505 l 270 539 z "},"Ų":{"ha":619,"x_min":60,"x_max":562,"o":"m 557 226 q 482 43 558 104 l 428 -42 q 413 -87 411 -66 q 446 -119 413 -118 q 513 -91 479 -119 l 519 -91 l 532 -143 q 434 -192 478 -192 q 366 -168 389 -192 q 343 -106 343 -144 q 369 -31 343 -69 l 389 1 q 302 -9 352 -9 q 121 51 183 -9 q 61 221 60 110 l 64 310 l 60 626 l 192 626 l 186 238 q 310 99 184 99 q 435 231 436 99 l 428 626 l 562 626 l 558 308 l 557 226 z "},"ų":{"ha":506,"x_min":56,"x_max":498,"o":"m 498 -145 q 408 -191 449 -191 q 345 -169 367 -192 q 322 -116 322 -145 q 336 -62 322 -86 q 386 -1 349 -39 q 332 65 345 16 l 322 65 q 208 -5 265 10 q 96 28 135 -5 q 57 125 57 61 l 60 239 l 56 444 l 180 454 l 178 167 q 235 99 177 99 q 319 136 276 99 l 319 444 l 444 454 l 435 117 q 457 88 435 88 q 483 92 467 88 l 492 84 l 480 17 l 474 13 q 410 -53 427 -31 q 393 -90 393 -74 q 423 -119 393 -118 q 480 -92 453 -119 l 485 -92 l 498 -145 z "},"Ŵ":{"ha":877,"x_min":18,"x_max":874,"o":"m 289 759 q 419 861 356 805 l 445 861 q 575 759 505 807 l 553 707 l 540 707 l 510 726 q 432 768 474 744 q 356 726 391 742 l 326 707 l 314 707 l 289 759 m 528 0 l 435 300 l 427 300 l 332 0 l 193 0 l 18 626 l 147 626 l 157 550 l 267 136 l 276 136 l 383 474 l 337 626 l 472 626 l 487 536 l 600 136 l 609 136 l 735 540 l 750 626 l 874 626 l 667 0 l 528 0 z "},"ŵ":{"ha":678,"x_min":13,"x_max":678,"o":"m 195 561 q 332 698 251 613 l 360 698 q 496 561 435 615 l 463 511 l 450 511 q 345 601 386 562 q 240 511 308 565 l 227 511 l 195 561 m 196 130 l 204 130 l 271 376 l 288 453 l 413 453 l 422 384 l 480 131 l 487 131 l 554 376 l 570 453 l 678 453 l 537 0 l 417 0 l 347 291 l 337 291 l 256 0 l 130 0 l 13 449 l 130 456 l 140 384 l 196 130 z "},"Ŷ":{"ha":541,"x_min":4,"x_max":544,"o":"m 126 759 q 256 861 193 803 l 282 861 q 413 759 341 807 l 389 707 l 376 707 l 347 726 q 269 768 310 744 q 192 726 227 742 l 162 707 l 151 707 l 126 759 m 330 0 l 197 0 l 205 174 l 205 209 l 4 626 l 143 626 l 157 583 l 263 344 l 273 344 l 391 579 l 408 626 l 544 626 l 326 213 l 323 174 l 330 0 z "},"ŷ":{"ha":434,"x_min":-19,"x_max":435,"o":"m 71 561 q 208 698 126 613 l 236 698 q 373 561 312 615 l 340 511 l 328 511 q 222 601 263 562 q 117 511 184 565 l 104 511 l 71 561 m 219 131 l 227 131 l 306 371 l 322 453 l 435 453 l 288 31 q 203 -110 257 -61 q 49 -187 149 -158 l 39 -186 q -19 -108 4 -154 l -14 -95 q 165 0 100 -75 l 0 449 l 125 456 l 139 383 l 219 131 z "},"Ÿ":{"ha":541,"x_min":4,"x_max":544,"o":"m 188 837 q 247 778 247 837 q 230 729 247 746 q 184 711 213 711 q 139 728 154 711 q 123 774 123 744 q 140 820 123 803 q 188 837 157 837 m 353 711 q 338 711 353 711 q 308 728 323 711 q 292 774 292 744 q 310 820 292 803 q 356 837 327 837 q 417 778 417 837 q 400 729 417 746 q 353 711 383 711 m 330 0 l 197 0 l 205 174 l 205 209 l 4 626 l 143 626 l 157 583 l 263 344 l 273 344 l 391 579 l 408 626 l 544 626 l 326 213 l 323 174 l 330 0 z "},"Ź":{"ha":531,"x_min":29,"x_max":505,"o":"m 413 785 l 409 774 q 200 698 319 739 l 187 701 l 166 755 q 369 864 283 815 l 380 862 l 413 785 m 184 100 l 395 100 l 501 109 l 505 101 l 496 -3 l 353 0 l 104 0 l 29 -4 l 29 91 l 344 526 l 144 526 l 39 517 l 32 523 l 43 627 l 435 626 l 496 627 l 496 531 l 184 100 z "},"ź":{"ha":411,"x_min":26,"x_max":389,"o":"m 135 453 l 380 453 l 380 376 l 162 83 l 300 83 l 383 91 l 389 82 l 380 -1 l 267 0 l 88 0 l 26 -3 l 26 73 l 247 369 l 117 369 l 36 362 l 29 371 l 38 454 l 135 453 m 348 633 l 345 620 q 258 567 323 607 q 156 505 192 527 l 143 506 l 112 556 q 288 704 225 646 l 301 704 l 348 633 z "},"Ż":{"ha":531,"x_min":29,"x_max":505,"o":"m 271 848 q 287 848 271 848 q 319 830 302 848 q 336 781 336 813 q 318 729 336 749 q 268 710 300 710 q 219 728 236 710 q 201 776 201 745 q 220 827 201 807 q 271 848 239 848 m 184 100 l 395 100 l 501 109 l 505 101 l 496 -3 l 353 0 l 104 0 l 29 -4 l 29 91 l 344 526 l 144 526 l 39 517 l 32 523 l 44 627 l 436 626 l 497 627 l 497 531 l 184 100 z "},"ż":{"ha":411,"x_min":26,"x_max":389,"o":"m 206 674 q 222 674 206 674 q 255 656 238 674 q 273 607 273 639 q 254 556 273 575 q 204 536 235 536 q 155 554 173 536 q 138 602 138 571 q 156 654 138 633 q 206 674 175 674 m 135 453 l 380 453 l 380 376 l 162 83 l 300 83 l 383 91 l 389 82 l 380 -1 l 267 0 l 90 0 l 27 -3 l 26 73 l 247 369 l 117 369 l 36 362 l 29 371 l 38 454 l 135 453 z "},"Ž":{"ha":531,"x_min":29,"x_max":505,"o":"m 283 698 l 257 698 q 126 800 197 752 l 151 852 l 162 852 l 192 833 q 270 789 228 815 q 347 833 312 815 l 376 852 l 389 852 l 413 800 q 283 698 345 754 m 184 100 l 395 100 l 501 109 l 505 101 l 496 -3 l 353 0 l 104 0 l 29 -4 l 29 91 l 344 526 l 144 526 l 39 517 l 32 523 l 43 627 l 435 626 l 496 627 l 496 531 l 184 100 z "},"ž":{"ha":411,"x_min":26,"x_max":389,"o":"m 219 510 l 191 510 q 55 646 116 593 l 86 696 l 99 696 q 205 607 164 645 q 310 696 243 644 l 322 696 l 356 646 q 219 510 301 596 m 135 453 l 380 453 l 380 376 l 162 83 l 300 83 l 383 91 l 389 82 l 380 -1 l 267 0 l 88 0 l 26 -3 l 26 73 l 247 369 l 117 369 l 36 362 l 29 371 l 38 454 l 135 453 z "},"ƒ":{"ha":306,"x_min":-17,"x_max":395,"o":"m 318 602 q 395 594 353 604 l 376 509 l 369 504 q 297 519 328 521 q 225 454 235 519 l 213 374 l 314 374 l 317 366 l 309 302 l 205 302 l 187 180 l 171 53 q 134 -60 164 -17 q 36 -145 104 -104 l -17 -95 l -16 -84 q 40 -27 22 -56 q 65 51 57 3 l 95 302 l 30 302 l 26 309 l 32 374 l 101 374 l 110 435 q 175 559 121 517 q 318 602 228 602 z "},"Ơ":{"ha":631,"x_min":27,"x_max":643,"o":"m 514 728 q 574 754 545 754 q 622 728 602 754 q 643 659 643 702 q 611 585 643 617 q 528 545 579 553 q 598 315 598 465 q 521 78 598 166 q 307 -10 444 -10 q 99 71 170 -10 q 27 304 27 153 q 62 483 27 408 q 314 635 134 635 q 414 619 365 635 q 486 604 463 604 q 525 618 509 604 q 541 662 541 632 q 511 719 541 692 l 514 728 m 312 528 q 273 528 312 528 q 199 480 234 528 q 165 314 165 431 q 200 145 165 197 q 313 92 235 92 q 426 142 392 92 q 461 308 461 192 q 426 476 461 424 q 312 528 391 528 z "},"ơ":{"ha":480,"x_min":29,"x_max":524,"o":"m 458 582 q 472 582 458 582 q 505 558 485 582 q 524 502 524 535 q 509 441 524 469 q 413 379 472 379 q 450 234 452 325 q 395 53 450 117 q 236 -10 339 -10 q 81 49 134 -10 q 29 222 29 108 q 84 398 29 336 q 247 461 140 461 q 322 450 283 461 q 380 438 361 439 q 411 450 398 437 q 424 487 424 462 q 393 541 424 511 l 397 553 q 458 582 431 582 m 239 374 q 216 374 239 374 q 171 341 192 374 q 151 229 151 308 q 171 114 151 151 q 240 78 192 78 q 309 109 288 78 q 330 219 330 140 q 308 336 330 299 q 239 374 287 374 z "},"Ư":{"ha":630,"x_min":60,"x_max":652,"o":"m 652 684 q 652 667 652 684 q 627 619 652 649 q 561 574 602 589 l 558 308 l 557 226 q 492 53 558 114 q 304 -9 426 -9 q 121 51 183 -9 q 61 221 60 110 l 64 310 l 60 626 l 192 626 l 186 238 q 310 99 184 99 q 435 231 436 99 l 428 626 l 491 626 q 552 674 550 626 q 519 732 552 705 l 523 741 q 584 767 557 767 q 631 743 611 767 q 652 684 652 719 z "},"ư":{"ha":515,"x_min":56,"x_max":531,"o":"m 465 598 q 478 598 465 598 q 511 576 491 598 q 531 517 531 553 q 507 450 531 480 q 441 406 483 421 l 435 119 q 457 90 435 91 q 483 93 467 90 l 492 86 l 480 17 q 410 -6 448 -6 q 327 64 347 -4 l 319 64 q 208 -5 266 13 q 96 28 135 -5 q 57 125 57 61 l 60 239 l 56 444 l 180 454 l 177 167 q 235 99 177 99 q 319 136 276 99 l 319 444 l 363 449 q 430 501 430 460 q 400 558 430 532 l 402 570 q 465 598 439 598 z "},"Ǎ":{"ha":583,"x_min":8,"x_max":569,"o":"m 308 698 l 282 698 q 151 800 222 752 l 174 852 l 187 852 l 217 833 q 295 789 253 815 q 371 833 336 815 l 401 852 l 413 852 l 437 800 q 308 698 371 754 m 434 0 l 418 82 l 401 140 l 279 143 l 171 140 l 154 88 l 138 0 l 8 0 l 219 626 l 376 626 l 569 0 l 434 0 m 300 502 l 291 502 l 205 241 l 289 240 l 374 241 l 300 502 z "},"ǎ":{"ha":466,"x_min":29,"x_max":444,"o":"m 241 510 l 213 510 q 78 646 138 593 l 109 696 l 122 696 q 228 607 187 645 q 332 696 266 644 l 345 696 l 378 646 q 241 510 323 596 m 225 461 q 268 461 225 461 q 354 427 312 461 q 397 334 397 393 q 391 223 397 317 q 387 117 391 223 q 391 94 387 100 q 406 88 395 88 q 434 92 418 88 l 444 84 l 431 17 q 361 -8 400 -3 q 286 64 299 -3 l 279 64 q 179 -9 230 12 q 69 29 109 -8 q 29 126 29 65 q 129 240 29 221 l 278 267 l 278 308 q 218 371 278 371 q 78 315 158 371 l 67 321 l 53 406 q 225 461 139 461 m 174 180 q 144 144 144 174 q 195 86 144 86 q 275 131 232 86 l 278 204 l 174 180 z "},"Ǐ":{"ha":286,"x_min":0,"x_max":287,"o":"m 157 698 l 131 698 q 0 800 71 752 l 23 852 l 36 852 l 66 833 q 144 789 103 815 q 219 833 186 815 l 249 852 l 262 852 l 287 800 q 157 698 221 754 m 208 0 l 75 0 l 83 187 l 75 626 l 210 626 l 202 199 l 208 0 z "},"ǐ":{"ha":245,"x_min":-26,"x_max":275,"o":"m 139 510 l 110 510 q -26 646 35 593 l 6 696 l 19 696 q 126 607 84 645 q 230 696 164 644 l 243 696 l 275 646 q 139 510 221 596 m 188 0 l 58 0 l 65 187 l 60 444 l 190 454 l 180 199 l 188 0 z "},"Ǒ":{"ha":624,"x_min":27,"x_max":598,"o":"m 328 698 l 301 698 q 171 800 241 752 l 195 852 l 208 852 l 238 833 q 314 789 274 815 q 391 833 356 815 l 421 852 l 434 852 l 458 800 q 328 698 392 754 m 319 635 q 387 635 319 635 q 527 554 456 635 q 598 319 598 474 q 521 77 598 165 q 307 -10 444 -10 q 99 72 170 -10 q 27 309 27 154 q 104 549 27 463 q 319 635 182 635 m 313 528 q 274 528 313 528 q 200 480 235 528 q 165 314 165 431 q 199 145 165 197 q 313 92 234 92 q 426 141 392 92 q 461 307 461 190 q 426 476 461 424 q 313 528 392 528 z "},"ǒ":{"ha":479,"x_min":29,"x_max":450,"o":"m 256 510 l 228 510 q 92 646 153 593 l 123 696 l 136 696 q 243 607 201 645 q 347 696 280 644 l 360 696 l 392 646 q 256 510 337 596 m 243 461 q 295 461 243 461 q 398 402 347 461 q 450 230 450 344 q 394 53 450 116 q 236 -10 337 -10 q 81 49 134 -10 q 29 222 29 108 q 84 398 29 336 q 243 461 140 461 m 239 374 q 215 374 239 374 q 171 342 192 374 q 151 231 151 310 q 171 115 151 152 q 240 78 192 78 q 309 108 288 78 q 330 217 330 138 q 308 335 330 296 q 239 374 286 374 z "},"Ǔ":{"ha":619,"x_min":60,"x_max":563,"o":"m 326 684 l 299 684 q 162 822 223 767 l 193 871 l 206 871 q 313 781 271 820 q 417 871 350 818 l 430 871 l 462 822 q 326 684 408 770 m 557 226 q 492 53 558 114 q 304 -9 426 -9 q 121 51 183 -9 q 62 221 60 110 l 64 310 l 60 626 l 192 626 l 186 238 q 310 99 184 99 q 435 231 436 99 l 428 626 l 563 626 l 557 226 z "},"ǔ":{"ha":506,"x_min":56,"x_max":492,"o":"m 266 510 l 238 510 q 101 646 162 593 l 134 696 l 147 696 q 253 607 212 645 q 357 696 291 644 l 370 696 l 402 646 q 266 510 348 596 m 456 88 q 483 92 467 88 l 492 84 l 480 17 q 409 -8 449 -3 q 332 65 348 -3 l 322 65 q 208 -5 266 12 q 96 28 135 -5 q 57 125 57 61 l 60 239 l 56 444 l 180 454 l 177 167 q 235 99 177 99 q 319 136 276 99 l 319 444 l 443 454 l 435 117 q 456 88 435 88 z "},"Ǖ":{"ha":619,"x_min":60,"x_max":563,"o":"m 449 871 l 178 871 l 169 881 l 175 954 l 447 954 l 456 944 l 449 871 m 230 816 q 286 758 286 816 q 269 711 286 729 q 225 694 253 693 q 167 754 167 694 q 184 800 167 783 q 230 816 201 816 m 398 816 q 456 758 456 816 q 439 711 456 729 q 395 694 422 693 q 336 754 337 694 q 353 800 336 783 q 398 816 370 816 m 557 226 q 492 53 558 114 q 304 -9 426 -9 q 121 51 183 -9 q 62 221 60 110 l 64 310 l 60 626 l 192 626 l 186 238 q 310 99 184 99 q 435 231 436 99 l 428 626 l 563 626 l 557 226 z "},"ǖ":{"ha":506,"x_min":56,"x_max":492,"o":"m 389 697 l 117 697 l 108 707 l 114 780 l 387 780 l 395 770 l 389 697 m 169 641 q 226 583 223 644 q 209 537 226 554 q 164 519 192 519 q 106 580 106 519 q 123 625 106 609 q 169 641 140 641 m 337 641 q 395 583 395 644 q 378 537 395 554 q 334 519 361 519 q 275 580 276 519 q 292 625 275 609 q 337 641 309 641 m 456 88 q 483 92 467 88 l 492 84 l 480 17 q 409 -8 449 -3 q 332 65 348 -3 l 322 65 q 208 -5 266 12 q 96 28 135 -5 q 57 125 57 61 l 60 239 l 56 444 l 180 454 l 177 167 q 235 99 177 99 q 319 136 276 99 l 319 444 l 443 454 l 435 117 q 456 88 435 88 z "},"Ǘ":{"ha":619,"x_min":60,"x_max":563,"o":"m 432 910 l 426 898 q 208 862 286 872 l 195 867 l 184 924 q 401 997 309 962 l 413 992 l 432 910 m 230 816 q 286 758 286 816 q 269 711 286 729 q 225 694 253 693 q 167 754 167 694 q 184 800 167 783 q 230 816 201 816 m 398 816 q 456 758 456 816 q 439 711 456 729 q 395 694 422 693 q 336 754 337 694 q 353 800 336 783 q 398 816 370 816 m 557 226 q 492 53 558 114 q 304 -9 426 -9 q 121 51 183 -9 q 62 221 60 110 l 64 310 l 60 626 l 192 626 l 186 238 q 310 99 184 99 q 435 231 436 99 l 428 626 l 563 626 l 557 226 z "},"ǘ":{"ha":506,"x_min":56,"x_max":492,"o":"m 371 736 l 365 724 q 147 687 225 698 l 135 692 l 123 750 q 340 823 247 789 l 353 816 l 371 736 m 169 641 q 226 583 223 644 q 209 537 226 554 q 164 519 192 519 q 106 580 106 519 q 123 625 106 609 q 169 641 140 641 m 337 641 q 395 583 395 644 q 378 537 395 554 q 334 519 361 519 q 275 580 276 519 q 292 625 275 609 q 337 641 309 641 m 456 88 q 483 92 467 88 l 492 84 l 480 17 q 409 -8 449 -3 q 332 65 348 -3 l 322 65 q 208 -5 266 12 q 96 28 135 -5 q 57 125 57 61 l 60 239 l 56 444 l 180 454 l 177 167 q 235 99 177 99 q 319 136 276 99 l 319 444 l 443 454 l 435 117 q 456 88 435 88 z "},"Ǚ":{"ha":619,"x_min":60,"x_max":563,"o":"m 326 829 l 299 829 q 169 931 239 881 l 192 983 l 205 983 l 312 922 l 418 983 l 431 983 l 456 931 q 326 829 391 885 m 230 816 q 286 758 286 816 q 269 711 286 729 q 225 694 253 693 q 167 754 167 694 q 184 800 167 783 q 230 816 201 816 m 398 816 q 456 758 456 816 q 439 711 456 729 q 395 694 422 693 q 336 754 337 694 q 353 800 336 783 q 398 816 370 816 m 557 226 q 492 53 558 114 q 304 -9 426 -9 q 121 51 183 -9 q 62 221 60 110 l 64 310 l 60 626 l 192 626 l 186 238 q 310 99 184 99 q 435 231 436 99 l 428 626 l 563 626 l 557 226 z "},"ǚ":{"ha":506,"x_min":56,"x_max":492,"o":"m 265 656 l 238 656 q 108 755 177 707 l 131 807 l 144 807 l 251 746 l 357 807 l 370 807 l 395 755 q 265 656 330 711 m 169 641 q 226 583 223 644 q 209 537 226 554 q 164 519 192 519 q 106 580 106 519 q 123 625 106 609 q 169 641 140 641 m 337 641 q 395 583 395 644 q 378 537 395 554 q 334 519 361 519 q 275 580 276 519 q 292 625 275 609 q 337 641 309 641 m 456 88 q 483 92 467 88 l 492 84 l 480 17 q 409 -8 449 -3 q 332 65 348 -3 l 322 65 q 208 -5 266 12 q 96 28 135 -5 q 57 125 57 61 l 60 239 l 56 444 l 180 454 l 177 167 q 235 99 177 99 q 319 136 276 99 l 319 444 l 443 454 l 435 117 q 456 88 435 88 z "},"Ǜ":{"ha":619,"x_min":60,"x_max":563,"o":"m 432 924 l 421 867 l 410 862 q 191 898 330 872 l 184 910 l 204 992 l 215 997 q 432 924 309 961 m 230 816 q 286 758 286 816 q 269 711 286 729 q 225 694 253 693 q 167 754 167 694 q 184 800 167 783 q 230 816 201 816 m 398 816 q 456 758 456 816 q 439 711 456 729 q 395 694 422 693 q 336 754 337 694 q 353 800 336 783 q 398 816 370 816 m 557 226 q 492 53 558 114 q 304 -9 426 -9 q 121 51 183 -9 q 62 221 60 110 l 64 310 l 60 626 l 192 626 l 186 238 q 310 99 184 99 q 435 231 436 99 l 428 626 l 563 626 l 557 226 z "},"ǜ":{"ha":506,"x_min":56,"x_max":492,"o":"m 371 750 l 360 692 l 349 687 q 130 724 269 697 l 123 736 l 143 816 l 154 823 q 371 750 248 787 m 169 641 q 226 583 223 644 q 209 537 226 554 q 164 519 192 519 q 106 580 106 519 q 123 625 106 609 q 169 641 140 641 m 337 641 q 395 583 395 644 q 378 537 395 554 q 334 519 361 519 q 275 580 276 519 q 292 625 275 609 q 337 641 309 641 m 456 88 q 483 92 467 88 l 492 84 l 480 17 q 409 -8 449 -3 q 332 65 348 -3 l 322 65 q 208 -5 266 12 q 96 28 135 -5 q 57 125 57 61 l 60 239 l 56 444 l 180 454 l 177 167 q 235 99 177 99 q 319 136 276 99 l 319 444 l 443 454 l 435 117 q 456 88 435 88 z "},"Ǫ":{"ha":624,"x_min":27,"x_max":598,"o":"m 395 -38 q 379 -83 379 -64 q 417 -119 379 -119 q 480 -91 445 -119 l 485 -91 l 497 -144 q 400 -191 444 -191 q 332 -167 357 -192 q 308 -104 308 -143 q 336 -26 308 -65 l 350 -6 q 302 -10 327 -9 q 99 72 170 -10 q 27 309 27 154 q 104 549 27 463 q 318 635 182 635 q 526 554 454 635 q 598 340 598 474 q 428 13 598 80 l 395 -38 m 312 528 q 272 528 312 528 q 199 480 232 528 q 165 314 165 431 q 199 145 165 197 q 313 92 234 92 q 426 141 392 92 q 461 307 461 190 q 426 476 461 424 q 312 528 391 528 z "},"ǫ":{"ha":479,"x_min":29,"x_max":449,"o":"m 280 -38 q 265 -83 265 -64 q 301 -119 265 -119 q 365 -92 330 -119 l 371 -92 l 383 -144 q 286 -191 330 -191 q 217 -168 241 -192 q 193 -105 193 -144 q 222 -27 193 -66 l 235 -10 l 232 -10 q 81 49 134 -10 q 29 222 29 108 q 84 398 29 336 q 243 461 140 461 q 397 402 345 461 q 449 241 449 344 q 304 -1 449 38 l 280 -38 m 151 232 q 151 192 151 232 q 172 116 151 153 q 241 78 193 78 q 309 108 288 78 q 330 217 330 138 q 308 335 330 296 q 239 374 287 374 q 171 342 192 374 q 151 232 151 310 z "},"Ǻ":{"ha":583,"x_min":8,"x_max":569,"o":"m 197 831 q 413 909 312 868 l 426 903 l 445 823 l 440 813 q 222 768 334 788 l 210 775 l 197 831 m 434 0 l 418 80 l 401 138 l 279 140 l 171 138 l 154 86 l 138 0 l 8 0 l 222 604 q 205 667 205 627 q 230 731 205 707 q 300 755 254 755 q 369 732 345 755 q 392 668 392 709 q 373 604 392 628 l 569 0 l 434 0 m 337 662 q 299 700 337 700 q 260 663 260 701 q 299 626 260 626 q 337 662 339 626 m 300 491 l 291 491 l 205 238 l 288 235 l 373 238 l 300 491 z "},"ǻ":{"ha":466,"x_min":29,"x_max":444,"o":"m 374 771 l 367 761 q 151 717 262 736 l 138 722 l 126 779 q 341 857 240 816 l 353 852 l 374 771 m 228 704 q 251 704 228 704 q 297 680 274 704 q 319 613 319 657 q 293 545 319 570 q 224 519 267 519 q 157 543 180 519 q 134 611 134 567 q 158 680 134 656 q 228 704 183 704 m 227 648 q 207 649 227 648 q 187 611 187 649 q 227 574 187 574 q 266 611 266 574 q 227 648 266 648 m 225 461 q 268 461 225 461 q 354 427 312 461 q 397 334 397 393 q 391 223 397 317 l 387 117 q 392 94 387 100 q 408 88 397 88 q 435 92 419 88 l 444 84 l 432 17 q 361 -8 400 -3 q 286 64 299 -3 l 279 64 q 180 -9 230 12 q 69 29 110 -8 q 29 126 29 65 q 129 240 29 221 l 278 267 l 278 308 q 218 371 278 371 q 78 315 158 371 l 67 321 l 53 406 q 225 461 139 461 m 175 180 q 144 144 144 173 q 195 86 144 86 q 275 131 232 86 l 278 204 l 175 180 z "},"Ǽ":{"ha":798,"x_min":-17,"x_max":792,"o":"m 632 785 l 628 774 q 419 698 539 739 l 408 701 l 387 755 q 588 864 504 815 l 600 862 l 632 785 m 783 0 l 405 0 l 400 82 l 383 214 l 177 161 l 143 88 l 114 0 l -17 0 l 283 626 l 711 626 l 720 615 l 710 517 l 558 522 l 474 522 l 496 347 l 683 395 l 693 387 l 704 295 l 506 248 l 524 103 l 623 103 l 783 109 l 792 99 l 783 0 m 348 502 l 339 502 l 234 278 l 371 314 l 348 502 z "},"ǽ":{"ha":674,"x_min":27,"x_max":649,"o":"m 479 460 q 519 460 479 460 q 604 411 558 460 q 649 275 649 363 q 649 253 649 275 l 636 238 l 376 208 q 409 116 382 145 q 496 86 436 86 q 619 121 556 86 l 630 114 l 611 19 q 482 -10 546 -9 q 314 74 366 -10 q 192 -9 261 18 q 73 27 118 -8 q 27 116 27 61 q 53 204 27 171 q 127 241 79 236 l 274 256 l 274 308 q 212 371 274 371 q 74 314 154 371 l 65 319 l 49 408 q 222 461 134 461 q 347 409 310 461 q 479 460 400 460 m 467 375 q 402 345 428 374 q 376 271 376 315 l 376 270 l 535 292 q 467 375 536 375 m 143 138 q 200 87 143 87 q 282 135 228 87 q 274 192 275 173 l 180 179 q 143 138 143 173 m 495 633 l 492 620 q 404 567 470 607 q 302 505 339 527 l 289 506 l 258 556 q 435 704 371 646 l 448 704 l 495 633 z "},"Ǿ":{"ha":624,"x_min":27,"x_max":598,"o":"m 456 787 l 453 774 q 244 698 363 739 l 231 702 l 210 755 q 411 866 327 815 l 423 862 l 456 787 m 498 582 q 598 334 598 504 q 521 77 598 165 q 302 -10 444 -10 q 219 0 256 -10 l 165 -116 l 82 -86 l 75 -74 l 131 42 q 27 293 27 122 q 104 549 27 463 q 323 635 182 635 q 409 624 367 635 l 460 727 l 540 698 l 546 684 l 498 582 m 312 92 q 350 92 312 92 q 425 141 389 92 q 461 307 461 190 q 426 476 461 424 q 312 528 391 528 q 199 480 232 528 q 165 314 165 431 q 199 145 165 197 q 312 92 234 92 z "},"ǿ":{"ha":479,"x_min":23,"x_max":449,"o":"m 392 409 q 449 232 449 349 q 393 53 449 116 q 232 -10 337 -10 q 167 -1 199 -10 l 100 -122 l 26 -86 l 23 -74 l 87 42 q 28 217 27 99 q 84 398 29 336 q 247 461 140 461 q 314 453 280 461 l 371 556 l 441 519 l 447 509 l 392 409 m 241 78 q 265 78 241 78 q 310 108 289 78 q 330 217 330 138 q 308 335 330 296 q 239 374 287 374 q 171 342 192 374 q 151 231 151 310 q 172 115 151 152 q 241 78 193 78 m 387 633 l 384 620 q 297 567 362 607 q 195 505 231 527 l 182 506 l 151 556 q 327 704 263 646 l 340 704 l 387 633 z "},"Ș":{"ha":483,"x_min":30,"x_max":450,"o":"m 395 480 q 262 531 325 531 q 200 510 223 531 q 177 461 177 489 q 202 414 177 434 q 282 369 227 395 q 370 323 336 344 q 450 184 450 274 q 421 87 450 131 q 339 17 392 43 q 205 -9 286 -9 q 30 31 125 -9 l 49 153 l 64 162 q 149 110 103 129 q 234 92 195 92 q 297 113 274 92 q 321 164 321 134 q 295 213 321 193 q 214 258 269 232 q 126 304 158 283 q 47 441 47 352 q 76 539 47 496 q 158 609 105 583 q 283 633 210 635 q 435 601 356 632 l 414 488 l 395 480 m 306 -113 q 201 -265 306 -191 l 164 -231 l 162 -223 q 210 -138 212 -183 q 183 -84 210 -109 l 183 -74 q 267 -39 226 -48 q 306 -113 306 -69 z "},"ș":{"ha":373,"x_min":19,"x_max":347,"o":"m 204 460 q 241 460 204 460 q 335 437 279 461 l 319 343 l 302 337 q 196 375 245 375 q 159 363 173 375 q 145 332 145 350 q 164 301 145 314 q 221 273 182 288 q 285 242 260 257 q 328 202 310 227 q 347 138 347 177 q 327 65 347 99 q 165 -10 282 -10 q 19 19 96 -10 l 36 121 l 47 129 q 115 88 78 103 q 179 73 152 73 q 221 86 206 73 q 235 117 235 99 q 217 150 235 136 q 160 180 199 164 q 96 210 121 196 q 35 313 35 245 q 82 420 35 380 q 204 460 129 460 m 253 -113 q 148 -265 253 -191 l 110 -231 l 109 -223 q 157 -138 158 -183 q 130 -84 157 -109 l 130 -74 q 213 -39 171 -48 q 253 -113 252 -69 z "},"Ț":{"ha":488,"x_min":14,"x_max":475,"o":"m 467 517 l 349 523 l 312 523 l 306 199 l 312 0 l 180 0 l 188 187 l 182 523 l 141 523 l 23 517 l 14 528 l 23 626 l 467 626 l 475 615 l 467 517 m 276 -39 q 315 -113 315 -69 q 210 -265 315 -191 l 171 -231 l 171 -223 q 219 -138 221 -183 q 192 -84 219 -109 l 192 -74 q 276 -39 235 -48 z "},"ț":{"ha":327,"x_min":12,"x_max":319,"o":"m 244 96 q 259 96 244 96 q 308 112 274 96 l 317 101 l 305 26 q 205 -5 254 0 q 73 122 74 8 l 78 204 l 78 371 l 16 371 l 12 376 l 17 448 l 75 448 l 75 523 l 192 561 l 202 553 l 199 448 l 314 448 l 319 441 l 312 371 l 197 371 l 192 153 q 202 109 191 122 q 244 96 214 96 m 253 -113 q 148 -265 253 -191 l 110 -231 l 109 -223 q 157 -138 158 -183 q 130 -84 157 -109 l 130 -74 q 213 -39 171 -48 q 253 -113 252 -69 z "},"ȷ":{"ha":275,"x_min":1,"x_max":213,"o":"m 206 199 l 212 26 q 175 -102 212 -52 q 53 -190 138 -152 l 9 -132 l 9 -121 q 71 -62 53 -96 q 90 23 90 -29 l 92 187 l 87 371 l 9 371 l 1 378 l 8 448 l 90 448 l 210 456 l 213 453 l 206 199 z "},"˄":{"ha":378,"x_min":38,"x_max":337,"o":"m 38 559 q 174 697 92 611 l 201 697 q 337 559 276 614 l 306 510 l 293 510 q 187 600 228 561 q 83 510 149 563 l 70 510 l 38 559 z "},"˅":{"ha":378,"x_min":38,"x_max":339,"o":"m 339 646 q 202 510 284 596 l 174 510 q 38 646 99 593 l 70 696 l 83 696 q 190 607 148 645 q 293 696 227 644 l 306 696 l 339 646 z "},"ˇ":{"ha":378,"x_min":45,"x_max":332,"o":"m 327 561 l 55 561 l 45 570 l 53 641 l 325 641 l 332 633 l 327 561 z "},"˘":{"ha":378,"x_min":43,"x_max":335,"o":"m 335 637 q 284 548 321 582 q 187 515 247 515 q 92 549 127 515 q 43 637 56 583 l 73 680 l 92 680 q 190 607 116 606 q 287 680 265 607 l 305 680 l 335 637 z "},"˙":{"ha":247,"x_min":56,"x_max":191,"o":"m 127 710 q 191 644 191 710 q 172 592 191 611 q 122 572 153 572 q 73 590 91 572 q 56 639 56 607 q 75 690 56 670 q 127 710 93 710 z "},"˚":{"ha":378,"x_min":96,"x_max":282,"o":"m 190 704 q 212 704 190 704 q 258 680 235 704 q 282 613 282 657 q 256 545 282 570 q 187 519 231 519 q 119 543 143 519 q 96 611 96 567 q 120 680 96 656 q 190 704 144 704 m 228 610 q 189 648 228 648 q 149 611 149 649 q 190 574 149 574 q 228 610 230 574 z "},"˛":{"ha":378,"x_min":93,"x_max":282,"o":"m 180 -38 q 165 -83 165 -64 q 201 -119 165 -119 q 265 -91 230 -119 l 271 -91 l 282 -144 q 185 -191 228 -191 q 117 -167 141 -192 q 93 -104 93 -143 q 122 -26 93 -65 l 183 61 l 245 61 l 180 -38 z "},"˜":{"ha":378,"x_min":17,"x_max":358,"o":"m 358 633 l 291 546 l 278 541 q 195 559 252 544 q 129 575 139 575 q 67 526 106 575 l 56 526 l 17 565 l 17 574 l 86 662 l 99 666 q 178 648 122 663 q 247 632 235 632 q 271 642 260 632 q 293 665 282 652 q 309 681 305 678 l 321 681 l 358 644 l 358 633 z "},"˝":{"ha":378,"x_min":18,"x_max":358,"o":"m 18 539 q 140 706 86 626 l 151 707 l 209 665 l 210 656 q 70 509 157 596 l 58 505 l 18 539 m 167 539 q 288 706 239 633 l 299 707 l 358 665 l 358 656 q 219 509 305 596 l 208 505 l 167 539 z "},"̃":{"ha":0,"x_min":17,"x_max":358,"o":"m 358 633 l 289 545 l 278 541 q 199 559 256 544 q 130 575 141 575 q 67 526 106 575 l 56 526 l 17 565 l 17 574 l 86 662 l 99 666 q 180 648 108 665 q 246 632 232 632 q 271 642 260 632 q 293 665 282 652 q 309 681 305 678 l 321 681 l 358 644 l 358 633 z "},"̣":{"ha":0,"x_min":48,"x_max":183,"o":"m 119 -100 q 183 -166 183 -100 q 164 -218 183 -199 q 114 -238 145 -238 q 66 -220 83 -238 q 48 -171 48 -202 q 67 -120 48 -140 q 119 -100 86 -100 z "},"̦":{"ha":0,"x_min":35,"x_max":179,"o":"m 139 -54 q 178 -129 178 -85 q 72 -279 178 -205 l 35 -245 l 35 -239 q 82 -152 83 -199 q 54 -99 82 -122 l 55 -91 q 139 -54 95 -66 z "},"Δ":{"ha":583,"x_min":8,"x_max":569,"o":"m 8 0 l 219 626 l 376 626 l 569 0 l 8 0 m 158 101 l 413 101 l 300 502 l 291 502 l 158 101 z "},"Ω":{"ha":732,"x_min":25,"x_max":707,"o":"m 365 528 q 217 350 217 528 q 330 86 217 192 l 330 3 l 323 -1 l 287 0 l 127 0 l 31 -4 l 25 5 l 39 106 l 129 99 l 188 99 l 190 103 q 79 357 79 213 q 113 499 79 436 q 213 598 147 562 q 371 635 279 635 q 527 600 463 635 q 653 374 653 530 q 541 103 653 219 l 544 99 l 619 99 l 701 108 l 707 99 l 693 -5 l 582 0 l 444 0 l 408 -1 l 401 3 l 401 86 q 515 345 515 187 q 478 480 515 431 q 365 528 441 528 z "},"μ":{"ha":506,"x_min":56,"x_max":491,"o":"m 478 17 q 410 -6 445 -6 q 356 9 375 -6 q 325 60 336 25 l 317 60 q 213 -5 266 8 q 177 -1 190 -5 l 177 -180 l 56 -180 l 60 187 l 56 444 l 177 454 l 177 167 q 238 99 177 99 q 319 136 276 99 l 319 444 l 443 454 l 435 122 q 457 86 434 86 q 482 92 466 86 l 491 86 l 478 17 z "},"π":{"ha":653,"x_min":-3,"x_max":613,"o":"m 518 122 q 540 86 517 86 q 571 93 553 86 l 582 86 l 569 17 q 490 -6 524 -6 q 429 19 456 -6 q 402 104 402 44 l 402 388 l 275 388 l 275 199 l 279 -87 l 153 -87 l 157 187 l 154 388 l 138 388 q 111 376 125 388 q 73 337 97 365 l 49 314 l 36 314 l -3 362 l -3 375 l 86 483 l 103 491 l 491 491 l 606 492 l 613 483 l 605 387 l 522 387 l 518 122 z "},"ॐ":{"ha":984,"x_min":47,"x_max":928,"o":"m 772 656 q 928 402 928 656 q 879 199 928 274 q 749 123 831 123 q 667 160 692 123 q 643 284 643 196 l 643 328 q 600 409 643 409 q 508 371 563 409 q 584 181 584 267 q 533 47 584 95 q 398 -1 483 -1 q 163 121 263 -1 q 47 428 62 244 l 80 437 q 186 178 105 278 q 371 79 267 79 q 466 119 427 79 q 505 217 505 160 q 419 410 505 323 q 313 321 375 349 l 271 418 q 410 550 410 460 q 326 619 410 619 q 196 583 263 619 l 154 680 q 282 709 212 709 q 404 656 353 709 q 454 519 454 604 q 440 454 454 483 l 457 437 q 607 514 536 514 q 627 511 614 514 q 772 656 654 656 m 656 501 q 687 424 687 485 l 687 318 q 753 210 687 210 q 846 263 809 210 q 884 394 884 315 q 850 521 884 472 q 762 569 815 569 q 656 501 688 569 m 340 802 l 370 823 q 500 752 426 752 q 627 823 574 752 l 707 755 q 548 670 628 670 q 340 802 426 670 m 514 919 l 576 855 l 514 796 l 453 861 l 514 919 z "},"॑":{"ha":0,"x_min":366,"x_max":474,"o":"m 366 1680 l 474 1680 l 474 1207 l 366 1207 l 366 1680 z "},"॒":{"ha":0,"x_min":157,"x_max":679,"o":"m 679 -552 l 679 -670 l 157 -670 l 157 -552 l 679 -552 z "},"।":{"ha":318,"x_min":162,"x_max":241,"o":"m 162 592 l 241 592 l 241 -48 l 162 -48 l 162 592 z "},"॥":{"ha":570,"x_min":162,"x_max":493,"o":"m 162 592 l 241 592 l 241 -48 l 162 -48 l 162 592 m 414 592 l 493 592 l 493 -48 l 414 -48 l 414 592 z "},"ఁ":{"ha":488,"x_min":39,"x_max":466,"o":"m 417 426 q 321 449 393 449 q 191 387 248 449 q 135 262 135 325 q 180 151 135 200 q 282 103 226 103 q 387 135 337 103 l 466 39 q 331 0 413 0 q 134 104 228 0 q 39 323 39 209 q 114 477 39 402 q 267 552 188 552 q 367 529 319 552 q 449 466 415 506 l 417 426 z "},"ం":{"ha":723,"x_min":39,"x_max":701,"o":"m 151 92 q 39 282 39 186 q 139 457 39 378 q 350 536 239 536 q 582 433 462 536 q 701 237 701 330 q 606 72 701 144 q 387 0 510 0 q 151 92 265 0 m 505 154 q 591 278 591 214 q 534 392 591 343 q 410 441 478 441 q 237 372 317 441 q 157 221 157 302 q 202 131 157 169 q 315 95 251 95 q 505 154 417 95 z "},"ః":{"ha":345,"x_min":39,"x_max":323,"o":"m 91 45 q 39 133 39 91 q 81 210 39 175 q 173 245 123 245 q 273 203 222 245 q 323 118 323 161 q 284 38 323 75 q 194 0 244 0 q 91 45 144 0 m 136 82 q 162 71 144 71 q 209 97 180 71 q 238 138 238 122 q 228 164 238 154 q 199 174 218 174 q 154 149 180 174 q 127 107 127 125 q 136 82 127 90 m 273 506 q 323 419 323 461 q 284 341 323 376 q 194 306 244 306 q 92 349 144 306 q 39 434 39 391 q 81 515 39 478 q 173 552 123 552 q 273 506 222 552 m 162 378 q 171 378 162 378 q 209 403 180 378 q 238 445 238 428 q 228 471 238 462 q 199 480 218 480 q 154 456 180 480 q 127 415 127 432 q 136 387 127 397 q 162 378 144 378 z "},"అ":{"ha":866,"x_min":39,"x_max":844,"o":"m 238 213 q 331 252 276 252 l 434 245 q 517 263 482 245 q 552 306 552 280 q 472 426 472 353 q 521 506 472 467 q 628 544 570 544 q 765 440 687 544 q 844 246 844 336 q 722 74 844 156 q 447 -8 601 -8 q 166 80 293 -8 q 39 284 39 169 q 118 462 39 371 q 276 552 199 552 q 380 504 325 552 q 434 410 434 454 q 396 332 434 365 q 319 300 358 300 q 205 348 248 300 q 157 234 157 300 q 215 127 157 169 q 370 86 274 86 q 629 158 517 86 q 741 323 741 231 q 711 395 741 357 q 653 434 681 434 q 600 409 624 434 q 576 361 576 384 q 654 260 576 310 q 596 196 636 221 q 505 174 556 174 l 395 190 q 315 157 332 190 l 238 213 m 283 362 q 293 362 283 362 q 325 382 302 362 q 348 421 348 402 q 338 448 348 439 q 312 458 328 458 q 271 435 296 458 q 245 397 245 413 q 254 372 245 382 q 283 362 263 362 z "},"ఆ":{"ha":850,"x_min":39,"x_max":828,"o":"m 260 228 q 323 252 280 252 l 441 245 q 583 300 526 245 q 502 349 532 318 q 472 410 472 380 q 523 495 469 452 q 631 544 576 540 q 754 495 689 544 q 819 402 819 447 q 748 292 819 343 q 806 255 784 279 q 828 205 828 231 q 715 58 828 125 q 466 -8 601 -8 q 169 80 299 -8 q 39 284 39 169 q 118 462 39 371 q 276 552 199 552 q 380 504 325 552 q 434 410 434 454 q 396 332 434 365 q 319 300 358 300 q 205 348 248 300 q 157 233 157 300 q 220 123 157 166 q 393 79 283 79 q 611 125 504 79 q 718 221 718 170 q 711 236 718 228 q 693 245 705 244 q 497 166 601 166 l 410 174 q 339 141 362 174 l 260 228 m 282 362 q 291 362 282 362 q 324 382 300 362 q 348 421 348 402 q 338 448 348 439 q 312 458 328 458 q 271 435 296 458 q 245 397 245 413 q 254 372 245 382 q 282 362 263 362 m 670 370 q 693 409 693 391 q 662 441 693 441 q 614 421 637 441 q 591 383 591 401 q 600 356 591 365 q 630 348 610 348 q 670 370 649 348 z "},"ఇ":{"ha":826,"x_min":39,"x_max":803,"o":"m 417 -182 q 365 -55 365 -135 q 370 0 365 -16 q 177 71 253 21 q 101 182 101 123 q 162 258 101 215 q 275 300 225 300 q 408 226 326 300 q 487 103 487 151 q 633 171 559 103 q 707 306 707 239 q 655 408 707 357 q 555 458 602 458 q 467 424 508 458 q 401 331 427 389 l 315 395 q 224 449 247 449 q 182 434 201 449 q 164 403 164 419 q 180 370 164 387 l 117 331 q 39 441 39 384 q 91 519 39 479 q 194 559 143 559 q 322 472 245 559 q 487 559 384 559 q 697 465 591 559 q 803 276 803 370 q 713 81 803 162 q 495 0 623 0 q 508 -83 495 -48 q 543 -126 521 -118 q 417 -182 458 -138 m 365 166 q 317 196 348 196 q 260 179 286 196 q 235 141 235 162 q 280 103 235 121 q 376 86 325 86 q 365 166 382 136 z "},"ఈ":{"ha":1379,"x_min":39,"x_max":1356,"o":"m 1254 260 q 1324 145 1324 201 q 1280 44 1324 90 q 1179 0 1234 0 q 1058 53 1124 0 q 993 151 993 109 q 1081 284 993 235 q 1033 292 1053 292 l 897 292 q 914 238 914 265 q 816 70 914 140 q 589 0 719 0 q 363 66 458 0 q 252 238 270 135 l 188 238 q 39 276 108 238 l 117 402 q 274 348 184 348 q 337 434 292 398 l 235 505 q 536 670 349 639 q 740 797 685 698 l 881 701 q 701 598 839 623 q 527 527 553 571 q 741 458 653 505 q 867 348 829 410 l 1064 348 q 1167 323 1128 348 q 1231 373 1207 345 q 1254 423 1254 401 q 1233 459 1254 445 q 1190 472 1212 472 q 1120 417 1151 472 l 1018 458 q 1047 525 1023 498 q 1103 552 1071 552 q 1277 497 1198 552 q 1356 378 1356 443 q 1328 309 1356 341 q 1254 260 1299 276 m 504 110 q 709 162 620 110 q 787 276 798 214 q 362 245 611 245 q 402 149 362 190 q 504 110 445 110 m 757 339 q 671 409 719 384 q 568 434 623 434 q 462 406 513 434 q 393 331 414 378 l 757 339 m 1089 110 q 1118 95 1089 95 q 1180 124 1146 95 q 1214 182 1214 153 q 1207 199 1214 192 q 1192 205 1201 205 q 1123 173 1157 205 q 1089 110 1089 141 z "},"ఉ":{"ha":967,"x_min":39,"x_max":945,"o":"m 676 0 q 519 71 605 0 q 460 19 497 38 q 378 0 422 0 q 227 70 297 0 q 157 221 157 140 l 157 245 q 39 292 96 245 l 125 410 q 188 378 174 378 q 301 506 235 460 q 436 552 367 552 q 527 544 505 552 q 488 650 488 611 q 512 733 488 688 q 536 795 536 778 q 527 836 536 813 l 685 789 l 685 757 q 645 681 685 727 q 605 613 605 636 q 646 536 605 570 q 787 569 729 514 l 867 472 q 740 417 811 417 q 630 437 702 417 q 505 458 557 458 q 399 428 453 458 q 323 348 345 397 q 445 370 365 348 q 568 395 524 395 q 661 362 611 395 l 591 267 q 553 283 572 274 q 527 292 533 292 l 283 252 q 267 190 267 226 q 288 129 267 154 q 334 103 309 103 q 426 174 383 103 q 519 267 480 267 l 605 182 q 558 135 571 157 q 669 95 593 95 q 794 125 745 95 q 842 196 842 154 q 836 219 842 209 q 807 228 829 228 q 755 209 784 228 q 715 157 727 190 l 622 245 q 682 308 644 286 q 772 331 720 331 q 885 268 824 331 q 945 147 945 205 q 893 45 945 90 q 779 0 841 0 l 676 0 z "},"ఊ":{"ha":1402,"x_min":39,"x_max":1380,"o":"m 693 0 q 519 71 623 0 q 460 19 497 38 q 378 0 422 0 q 227 70 297 0 q 157 221 157 140 l 157 245 q 39 292 96 245 l 125 410 q 188 378 174 378 q 284 497 231 452 q 393 552 337 543 q 362 662 362 605 q 386 729 362 687 q 409 792 409 772 q 401 836 409 833 l 550 789 q 517 685 550 752 q 480 583 480 620 q 488 544 480 559 q 614 527 553 527 q 550 646 550 580 q 574 729 550 675 q 598 811 598 783 l 598 836 l 740 789 l 740 757 q 705 668 740 724 q 668 583 668 615 q 685 536 668 553 q 787 569 740 522 l 867 472 q 740 417 811 417 q 630 437 702 417 q 502 458 557 458 q 393 428 448 458 q 315 348 337 397 q 409 339 337 339 l 835 378 q 1192 323 1109 378 q 1260 374 1234 349 q 1285 420 1285 400 q 1266 456 1285 440 q 1221 472 1247 472 q 1142 417 1166 472 q 1040 449 1076 449 q 1077 522 1049 493 q 1142 552 1105 552 q 1305 502 1231 552 q 1380 395 1380 453 q 1354 321 1380 357 q 1285 260 1329 286 q 1342 202 1323 235 q 1363 141 1363 173 q 1316 45 1363 90 q 1211 0 1269 0 q 1089 53 1153 0 q 1025 157 1025 105 q 1046 226 1025 192 q 1103 284 1066 260 q 1010 304 1075 299 l 835 306 q 916 230 887 271 q 945 149 945 188 q 866 47 945 95 q 693 0 787 0 m 1142 95 q 1214 121 1181 91 q 1246 190 1246 151 q 1237 206 1246 200 q 1214 213 1227 213 q 1149 184 1179 213 q 1120 118 1120 154 q 1127 102 1120 109 q 1142 95 1133 95 m 558 135 q 669 95 593 95 q 794 125 745 95 q 842 196 842 154 q 836 219 842 209 q 819 228 829 228 q 745 209 778 228 q 701 157 713 190 l 605 245 q 676 306 630 287 l 283 252 q 267 184 267 219 q 288 126 267 149 q 334 103 309 103 q 426 174 383 103 q 519 267 480 267 l 605 182 q 558 135 571 157 z "},"ఋ":{"ha":1687,"x_min":39,"x_max":1665,"o":"m 417 79 q 275 0 337 0 q 142 77 213 0 q 71 221 71 153 q 94 296 71 260 q 154 355 117 332 q 209 400 192 378 q 228 433 228 419 q 219 456 228 447 q 191 466 209 466 q 151 450 174 466 q 127 415 127 434 q 141 395 127 397 l 103 362 q 39 458 39 415 q 91 521 39 488 q 192 552 144 552 q 294 496 240 552 q 348 395 348 440 q 245 284 348 360 q 174 174 174 232 q 193 123 174 144 q 236 103 212 103 q 339 190 291 103 q 417 267 386 267 l 513 182 q 466 135 466 153 q 487 98 466 117 q 527 79 508 79 q 615 143 575 79 q 654 284 654 208 q 629 351 654 318 q 561 409 604 384 q 472 497 472 461 q 521 569 472 540 q 637 527 571 539 q 623 492 623 513 q 662 426 623 453 q 755 339 722 384 q 789 262 789 293 q 784 202 789 231 q 861 124 818 153 q 946 95 903 95 q 1059 154 1007 95 q 1111 284 1111 214 q 1086 345 1111 313 q 1015 402 1062 376 q 915 497 915 460 q 971 576 915 545 l 1089 521 q 1064 483 1064 498 q 1111 417 1064 449 q 1199 336 1167 380 q 1231 257 1231 292 q 1224 196 1231 222 q 1381 95 1293 95 q 1494 154 1442 95 q 1546 284 1546 214 q 1521 345 1546 313 q 1450 402 1497 376 q 1350 497 1350 460 q 1406 576 1350 545 l 1524 521 q 1499 483 1499 498 q 1546 417 1499 449 q 1634 336 1602 380 q 1665 252 1665 292 q 1593 79 1665 157 q 1442 0 1520 0 q 1302 39 1364 0 q 1205 144 1240 78 q 1117 39 1172 78 q 996 0 1062 0 q 866 39 929 0 q 767 147 803 78 q 695 40 741 79 q 598 0 649 0 q 417 79 498 0 z "},"ఌ":{"ha":1048,"x_min":39,"x_max":1025,"o":"m 221 552 q 410 472 318 552 q 576 552 489 552 q 704 476 636 552 q 772 330 772 400 q 662 169 772 260 q 552 8 552 79 q 598 -70 552 -38 q 713 -103 644 -103 q 855 -1 783 -103 q 929 199 929 97 q 897 386 929 300 q 805 521 864 471 l 852 552 q 979 387 933 497 q 1025 135 1025 276 q 925 -81 1025 27 q 726 -190 824 -190 q 526 -114 627 -190 q 426 40 426 -38 q 549 213 426 117 q 670 387 670 309 q 653 432 670 413 q 609 449 633 449 q 521 370 557 449 q 478 308 504 331 q 426 284 452 284 l 331 370 q 378 417 361 388 q 297 458 356 458 q 196 428 238 458 q 157 356 157 397 q 179 309 157 337 q 199 262 199 278 q 166 205 199 228 l 47 267 q 79 315 79 278 q 59 363 79 332 q 39 410 39 393 q 92 511 39 469 q 221 552 147 552 z "},"ఎ":{"ha":801,"x_min":39,"x_max":779,"o":"m 779 267 q 703 84 779 169 q 541 0 627 0 q 370 71 456 0 q 310 19 348 38 q 219 0 271 0 q 103 58 166 0 q 39 169 39 117 q 103 273 39 222 q 222 323 166 323 q 339 256 278 323 q 401 135 401 188 q 591 141 511 31 q 630 276 630 199 q 543 426 630 334 q 465 576 465 506 q 480 631 465 604 l 622 583 q 605 528 605 561 q 676 410 605 474 q 779 267 779 327 m 180 95 q 249 127 214 95 q 283 190 283 160 q 276 212 283 202 q 260 221 270 221 q 187 189 225 221 q 149 127 149 157 q 158 104 149 114 q 180 95 167 95 z "},"ఏ":{"ha":802,"x_min":39,"x_max":780,"o":"m 780 267 q 704 84 780 169 q 541 0 627 0 q 370 71 456 0 q 310 19 348 38 q 219 0 273 0 q 103 58 166 0 q 39 169 39 117 q 103 273 39 222 q 223 323 166 323 q 341 257 279 323 q 402 135 402 188 q 592 141 513 31 q 631 276 631 199 q 544 426 631 334 q 466 576 466 506 q 480 631 466 605 l 623 583 q 607 530 607 562 q 679 410 607 471 q 780 267 780 326 m 251 127 q 284 190 284 160 q 278 212 284 202 q 260 221 270 221 q 187 189 225 221 q 149 127 149 157 q 159 104 149 114 q 182 95 169 95 q 251 127 215 95 m 228 544 q 284 488 228 511 l 238 426 q 117 492 162 453 q 71 573 71 531 q 120 657 71 615 q 225 711 169 698 q 339 765 321 735 q 458 670 382 714 q 378 634 449 654 q 267 589 306 614 q 228 544 228 565 z "},"ఐ":{"ha":692,"x_min":39,"x_max":670,"o":"m 317 148 q 216 91 267 91 q 102 145 165 91 q 39 240 39 199 q 69 309 39 282 q 139 336 99 336 q 207 326 179 336 q 241 299 235 315 l 222 274 q 182 287 200 287 q 146 268 165 287 q 127 228 127 249 q 140 190 127 206 q 172 173 153 173 q 211 191 191 173 q 245 240 231 210 q 323 305 275 302 l 392 230 q 354 199 378 227 q 437 160 396 160 q 526 217 478 160 q 575 323 575 274 q 533 415 575 373 q 453 457 491 457 q 383 430 415 457 q 330 356 350 402 l 260 406 q 188 450 205 450 q 155 440 170 450 q 140 418 140 430 q 153 393 140 406 l 109 369 q 39 447 39 419 q 79 507 39 475 q 163 539 119 539 q 266 469 206 539 q 404 539 317 539 q 581 458 492 539 q 670 304 670 378 q 613 160 670 230 q 500 91 556 91 q 317 148 384 91 z "},"ఒ":{"ha":827,"x_min":39,"x_max":805,"o":"m 434 79 q 267 0 352 0 q 140 77 208 0 q 71 221 71 153 q 157 348 71 274 q 228 434 228 404 q 220 456 228 447 q 194 466 212 466 q 156 450 177 466 q 135 423 135 434 q 138 406 135 413 l 149 395 l 103 362 q 39 445 39 406 q 86 518 39 484 q 187 552 135 552 q 297 502 239 552 q 356 402 356 452 q 260 276 356 345 q 174 166 174 213 q 192 121 174 140 q 235 103 212 103 q 323 182 282 103 q 369 244 343 221 q 419 267 395 267 l 513 182 q 466 135 484 164 q 549 95 491 95 q 648 123 607 95 q 687 196 687 154 q 667 245 687 214 q 646 291 646 274 q 679 348 646 326 l 797 284 q 765 238 765 273 q 784 188 765 219 q 805 141 805 160 q 752 42 805 83 q 623 0 698 0 q 434 79 526 0 z "},"ఓ":{"ha":826,"x_min":39,"x_max":803,"o":"m 434 79 q 267 0 352 0 q 140 77 208 0 q 71 221 71 153 q 157 348 71 274 q 228 434 228 404 q 219 456 228 447 q 192 466 209 466 q 155 450 175 466 q 135 423 135 434 q 138 406 135 413 l 149 395 l 103 362 q 39 449 39 406 q 69 506 39 478 q 149 552 99 533 q 95 654 95 609 q 127 726 95 681 q 157 797 157 770 q 141 828 157 807 l 292 789 q 300 761 300 774 q 260 687 300 732 q 221 597 221 640 q 228 544 221 554 q 313 485 271 544 q 356 370 356 427 q 334 334 356 354 q 265 280 312 313 q 174 166 174 214 q 192 121 174 140 q 235 103 212 103 q 323 182 282 103 q 368 244 343 221 q 417 267 393 267 l 513 182 q 466 135 484 164 q 549 95 491 95 q 648 123 607 95 q 687 196 687 154 q 667 244 687 214 q 646 291 646 274 q 679 348 646 326 l 797 284 q 765 238 765 273 q 784 190 765 219 q 803 141 803 160 q 751 42 803 83 q 623 0 698 0 q 434 79 526 0 z "},"ఔ":{"ha":858,"x_min":39,"x_max":836,"o":"m 434 79 q 267 0 352 0 q 140 77 208 0 q 71 221 71 153 q 157 348 71 274 q 228 434 228 404 q 220 456 228 447 q 194 466 212 466 q 156 450 177 466 q 135 423 135 434 q 138 406 135 413 l 149 395 l 103 362 q 39 443 39 406 q 75 509 39 480 q 159 550 110 537 q 234 580 208 562 q 260 613 260 597 q 246 637 260 628 q 213 646 232 646 l 135 646 q 39 687 74 646 l 127 819 q 378 757 202 757 l 584 757 q 752 689 667 757 q 836 557 836 620 q 789 443 836 493 q 688 395 741 395 q 578 449 635 395 q 521 550 521 504 q 552 631 521 596 q 631 679 583 667 q 493 687 609 687 l 480 687 q 315 670 358 687 q 368 622 349 648 q 387 574 387 597 q 363 527 387 550 q 300 488 339 504 q 356 395 356 432 q 330 341 356 371 q 262 278 305 309 q 174 166 174 214 q 192 121 174 140 q 235 103 212 103 q 323 182 282 103 q 369 244 343 221 q 419 267 395 267 l 513 182 q 466 135 484 164 q 549 95 491 95 q 648 123 607 95 q 687 196 687 154 q 667 245 687 214 q 646 291 646 274 q 679 348 646 326 l 797 284 q 765 252 765 273 q 785 197 765 232 q 805 141 805 161 q 752 42 805 83 q 623 0 698 0 q 434 79 526 0 m 711 519 q 741 570 741 550 q 734 598 741 589 q 718 607 727 607 q 656 576 689 607 q 623 526 623 545 q 633 498 623 508 q 661 488 641 488 q 711 519 680 488 z "},"క":{"ha":780,"x_min":39,"x_max":758,"o":"m 39 47 q 205 141 109 141 l 401 110 q 550 190 491 110 q 401 260 533 221 l 157 339 q 105 358 117 354 q 86 378 86 369 q 222 487 141 444 l 104 540 q 404 698 192 661 q 601 831 535 719 l 758 728 q 683 673 737 698 q 539 632 630 648 q 374 572 449 617 q 301 519 331 549 q 504 552 396 552 q 637 500 566 552 q 709 402 709 448 q 637 315 709 358 l 527 378 q 583 426 583 402 q 571 448 583 439 q 544 458 559 458 q 414 436 475 458 q 306 378 352 417 l 536 292 q 715 190 689 235 q 626 58 687 109 q 495 8 565 8 l 306 31 q 247 19 271 31 q 213 -8 221 10 l 39 47 z "},"ఖ":{"ha":850,"x_min":39,"x_max":828,"o":"m 740 88 q 572 0 654 0 q 348 118 491 0 q 296 32 328 65 q 228 0 263 0 q 129 60 170 0 q 88 205 88 121 q 110 283 88 251 q 164 315 134 315 q 284 252 221 315 q 292 315 292 260 q 265 414 292 370 q 205 458 238 458 q 153 445 173 458 q 135 415 135 430 q 149 387 135 401 l 103 356 q 39 445 39 409 q 84 517 39 482 q 182 552 129 552 q 311 463 252 552 q 370 267 370 374 q 363 190 370 208 q 521 118 440 118 q 624 175 570 118 q 679 284 679 232 q 650 352 679 315 q 578 424 624 389 q 506 491 531 458 q 480 543 480 521 q 527 617 480 587 l 646 553 q 630 520 630 541 q 648 473 630 498 q 714 416 667 448 q 794 339 761 384 q 828 252 828 293 q 740 88 828 174 m 149 141 q 174 118 149 118 q 221 140 199 118 q 245 182 245 161 q 221 196 245 196 q 173 178 196 196 q 149 141 149 161 m 370 -32 q 458 -126 370 -67 l 356 -245 q 253 -129 253 -170 q 363 6 253 -88 q 378 -1 378 6 l 370 -32 z "},"గ":{"ha":787,"x_min":39,"x_max":765,"o":"m 135 31 q 149 71 149 45 q 110 164 149 117 q 39 284 39 252 q 117 432 39 358 q 201 495 153 466 l 104 539 q 225 638 147 597 q 404 696 302 679 q 601 829 535 720 l 758 727 q 553 633 714 661 q 343 552 424 611 l 402 552 q 665 410 565 492 q 765 251 765 328 q 717 99 765 173 q 584 -25 668 25 l 466 79 q 582 162 537 112 q 623 263 623 214 q 545 369 623 313 q 339 472 467 426 l 267 426 q 199 348 225 393 q 174 256 174 302 q 225 141 174 209 q 276 31 276 73 q 267 0 276 14 l 135 31 z "},"ఘ":{"ha":1229,"x_min":39,"x_max":1207,"o":"m 251 127 q 284 190 284 160 q 278 206 284 200 q 261 213 271 213 q 188 181 226 213 q 151 118 151 149 q 160 102 151 109 q 182 95 169 95 q 251 127 215 95 m 39 539 q 145 641 71 596 q 315 709 219 685 q 467 764 410 732 q 536 829 523 796 l 685 727 q 517 652 636 672 q 180 435 280 609 l 39 539 m 1066 521 q 1042 482 1042 497 q 1055 449 1042 466 q 1105 406 1066 432 q 1175 336 1144 380 q 1207 252 1207 292 q 1135 79 1207 157 q 975 0 1063 0 q 811 45 887 0 q 731 117 763 74 q 569 -8 650 -8 q 371 71 440 -8 q 228 0 310 0 q 104 58 167 0 q 40 169 40 117 q 101 273 40 222 q 217 323 161 323 q 337 256 273 323 q 402 135 402 188 q 498 86 457 86 q 590 154 540 86 q 640 284 640 222 q 610 344 640 306 q 540 417 582 382 q 482 471 498 452 q 466 508 466 492 q 475 543 466 523 q 505 576 487 559 l 623 521 q 607 491 607 508 q 623 453 607 475 q 670 402 640 434 q 772 252 772 305 q 765 193 772 223 q 923 95 837 95 q 1037 154 985 95 q 1089 284 1089 214 q 1064 345 1089 313 q 992 402 1038 376 q 893 497 893 461 q 948 576 893 546 l 1066 521 m 378 -8 l 371 -32 q 394 -73 371 -48 q 458 -126 417 -99 l 356 -245 q 253 -129 253 -170 q 363 6 253 -88 q 378 -8 378 6 z "},"ఙ":{"ha":827,"x_min":39,"x_max":805,"o":"m 434 79 q 267 0 352 0 q 140 77 208 0 q 71 221 71 153 q 157 348 71 274 q 228 434 228 404 q 220 456 228 447 q 194 466 212 466 q 156 450 177 466 q 135 423 135 434 q 138 406 135 413 l 149 395 l 103 362 q 39 445 39 406 q 86 518 39 484 q 174 552 135 552 q 323 458 245 552 q 419 472 352 472 q 458 532 458 509 q 439 591 458 556 q 419 644 419 627 q 441 693 419 678 l 569 637 q 536 603 536 624 q 556 552 536 582 q 576 505 576 523 q 552 449 576 463 q 616 467 585 449 q 662 513 646 484 l 757 434 q 623 370 704 370 l 449 395 q 348 370 389 395 q 260 276 348 337 q 174 166 174 213 q 192 121 174 140 q 235 103 212 103 q 323 182 282 103 q 369 244 343 221 q 419 267 395 267 l 513 182 q 466 135 484 164 q 549 95 491 95 q 648 123 607 95 q 687 196 687 154 q 667 245 687 214 q 646 291 646 274 q 679 348 646 326 l 797 284 q 765 238 765 273 q 784 188 765 219 q 805 141 805 160 q 752 42 805 83 q 623 0 698 0 q 434 79 526 0 z "},"చ":{"ha":1037,"x_min":0,"x_max":1015,"o":"m 648 182 q 600 135 614 166 q 624 106 606 117 q 663 95 643 95 q 755 154 713 95 q 797 284 797 214 q 718 421 797 353 q 561 489 640 489 l 530 489 q 518 470 523 480 l 360 541 q 661 700 448 662 q 857 833 794 724 l 1015 731 q 940 674 994 700 q 797 633 887 649 q 593 552 683 614 q 805 452 689 539 q 940 266 940 352 q 871 90 940 180 q 733 0 802 0 q 553 71 639 0 q 443 0 492 0 q 271 45 353 0 q 188 141 188 91 q 252 252 188 193 l 221 252 q 185 260 208 252 q 149 269 162 269 q 78 238 118 269 l 0 315 q 95 362 34 362 q 197 343 130 362 q 303 323 263 323 q 379 348 343 323 l 443 276 q 355 206 387 244 q 323 143 323 169 q 371 95 323 95 q 423 117 397 95 q 467 178 448 139 q 511 243 487 218 q 553 269 533 269 l 648 182 z "},"ఛ":{"ha":1037,"x_min":0,"x_max":1015,"o":"m 559 -245 q 456 -127 456 -166 q 566 6 456 -88 q 583 -8 583 6 l 575 -32 q 662 -126 575 -67 l 559 -245 m 648 182 q 600 135 614 166 q 624 106 606 117 q 663 95 643 95 q 755 154 713 95 q 797 284 797 214 q 718 421 797 353 q 561 489 640 489 l 530 489 q 518 470 523 480 l 360 541 q 661 700 448 662 q 857 833 794 724 l 1015 731 q 940 674 994 700 q 797 633 887 649 q 593 552 683 614 q 805 452 689 539 q 940 266 940 352 q 871 90 940 180 q 733 0 802 0 q 553 71 639 0 q 443 0 492 0 q 271 45 353 0 q 188 141 188 91 q 252 252 188 193 l 221 252 q 185 260 208 252 q 149 269 162 269 q 78 238 118 269 l 0 315 q 95 362 34 362 q 197 343 130 362 q 303 323 263 323 q 379 348 343 323 l 443 276 q 355 206 387 244 q 323 143 323 169 q 371 95 323 95 q 423 117 397 95 q 467 178 448 139 q 511 243 487 218 q 553 269 533 269 l 648 182 z "},"జ":{"ha":826,"x_min":39,"x_max":803,"o":"m 623 576 q 591 552 591 565 q 618 500 591 531 q 646 449 646 471 q 594 369 646 406 q 468 331 543 331 q 339 362 393 331 q 312 322 332 343 q 256 273 292 299 q 174 166 174 214 q 192 121 174 140 q 235 103 212 103 q 323 182 282 103 q 368 244 343 221 q 417 267 393 267 l 513 182 q 466 135 484 164 q 549 95 491 95 q 648 123 607 95 q 687 196 687 154 q 667 244 687 214 q 646 291 646 274 q 679 348 646 326 l 797 284 q 765 252 765 273 q 784 197 765 232 q 803 141 803 161 q 751 42 803 83 q 623 0 698 0 q 434 79 526 0 q 282 0 352 0 q 142 77 213 0 q 71 221 71 153 q 157 348 71 274 q 228 434 228 404 q 219 456 228 447 q 192 466 209 466 q 155 450 175 466 q 135 423 135 434 q 138 406 135 413 l 149 395 l 103 362 q 39 447 39 406 q 84 519 39 487 q 174 552 129 552 q 339 417 265 552 q 423 402 380 402 q 501 425 466 402 q 536 474 536 448 q 508 524 536 500 q 480 566 480 549 q 527 631 480 602 l 623 576 z "},"ఝ":{"ha":1611,"x_min":39,"x_max":1589,"o":"m 306 79 q 492 139 408 79 q 576 263 576 199 q 505 389 576 328 q 357 449 434 449 q 211 383 280 449 q 141 245 141 317 q 190 125 141 173 q 306 79 239 79 m 1098 -8 l 1090 -32 q 1113 -73 1090 -48 q 1176 -126 1136 -99 l 1075 -245 q 972 -129 972 -170 q 1083 6 972 -88 q 1098 -8 1098 6 m 1447 521 q 1423 483 1423 498 q 1474 415 1423 449 q 1557 336 1525 380 q 1589 252 1589 292 q 1517 79 1589 157 q 1356 0 1445 0 q 1193 45 1267 0 q 1106 126 1138 77 q 1070 84 1090 105 q 900 0 984 0 q 754 38 816 0 q 654 122 692 75 q 597 71 632 96 q 362 0 495 0 q 147 93 254 0 q 39 276 39 186 q 127 471 39 389 q 173 506 149 492 l 99 540 q 400 698 187 661 q 596 831 530 720 l 753 728 q 678 673 732 698 q 535 632 624 648 q 335 552 427 614 l 339 552 q 580 447 460 552 q 701 238 701 341 q 694 195 701 215 q 750 135 719 160 q 857 95 800 95 q 967 157 915 95 q 1019 292 1019 219 q 933 406 1019 345 q 845 521 845 467 q 887 576 845 540 l 1011 544 q 988 498 988 523 q 1036 426 988 456 q 1122 342 1090 388 q 1154 260 1154 296 q 1145 196 1154 223 q 1210 127 1170 160 q 1309 95 1251 95 q 1419 154 1367 95 q 1471 284 1471 214 q 1445 345 1471 313 q 1373 402 1420 376 q 1273 497 1273 461 q 1329 576 1273 545 l 1447 521 z "},"ఞ":{"ha":1195,"x_min":39,"x_max":1173,"o":"m 417 -182 q 365 -55 365 -135 q 370 0 365 -16 q 177 71 253 21 q 101 182 101 123 q 162 258 101 215 q 275 300 225 300 q 408 226 326 300 q 487 103 487 151 q 633 171 559 103 q 707 306 707 239 q 655 408 707 357 q 555 458 602 458 q 467 424 508 458 q 401 331 427 389 l 315 395 q 224 449 247 449 q 182 434 201 449 q 164 403 164 419 q 180 370 164 387 l 117 331 q 39 441 39 384 q 91 519 39 479 q 194 559 143 559 q 322 472 245 559 q 484 559 384 559 q 668 490 584 559 q 796 306 753 421 l 867 339 q 906 402 906 375 q 890 465 906 430 q 874 519 874 501 q 897 569 874 554 l 1016 513 q 992 475 992 496 q 1008 421 992 454 q 1024 364 1024 388 q 1007 331 1024 340 q 1066 315 1051 315 q 1102 331 1081 315 l 1173 260 q 1107 221 1137 221 q 1027 236 1076 221 q 940 252 979 252 q 859 236 902 252 q 787 190 816 219 q 668 52 748 104 q 495 0 589 0 q 508 -83 495 -48 q 543 -126 521 -118 q 417 -182 458 -138 m 365 166 q 317 196 348 196 q 260 179 286 196 q 235 141 235 162 q 280 103 235 121 q 376 86 325 86 q 365 166 382 136 z "},"ట":{"ha":826,"x_min":39,"x_max":803,"o":"m 615 0 q 434 79 515 0 q 371 21 409 43 q 292 0 332 0 q 124 95 209 0 q 39 280 39 190 q 101 454 39 370 q 238 552 164 539 q 190 654 190 607 q 221 726 190 681 q 252 789 252 770 q 245 828 252 818 l 387 789 q 395 765 395 774 q 355 681 395 732 q 315 602 315 631 q 323 544 315 552 q 404 485 374 521 q 434 408 434 449 q 394 330 434 367 q 304 292 354 292 q 205 348 253 292 q 166 239 166 301 q 192 140 166 177 q 252 103 215 103 q 289 119 270 103 q 327 175 309 136 q 375 240 345 213 q 434 267 406 267 l 521 174 q 472 135 472 148 q 491 101 472 116 q 536 86 510 86 q 631 136 591 86 q 670 260 670 188 q 623 374 670 302 q 576 480 576 447 q 607 569 576 537 q 741 497 672 514 q 718 439 718 457 q 745 371 718 400 q 803 227 803 314 q 748 70 803 140 q 615 0 693 0 m 322 386 q 335 397 322 386 q 348 434 348 409 q 314 458 348 458 q 271 434 296 458 q 245 386 245 410 q 271 362 245 362 q 322 386 296 362 z "},"ఠ":{"ha":775,"x_min":39,"x_max":753,"o":"m 276 267 q 356 339 315 322 q 449 252 396 317 q 370 182 414 199 q 276 267 317 208 m 492 154 q 576 265 576 206 q 505 378 576 323 q 358 434 434 434 q 215 367 283 434 q 149 221 149 300 q 195 136 149 173 q 306 103 241 103 q 492 154 408 103 m 335 552 l 339 552 q 580 447 460 552 q 701 243 701 341 q 598 72 701 144 q 362 0 495 0 q 147 93 254 0 q 39 276 39 186 q 127 471 39 389 q 173 506 149 492 l 99 540 q 400 698 187 661 q 596 831 530 720 l 753 728 q 678 673 732 698 q 535 632 624 648 q 335 552 427 614 z "},"డ":{"ha":874,"x_min":39,"x_max":852,"o":"m 395 71 q 116 84 262 -78 q 39 252 39 169 q 147 465 39 376 q 231 517 186 497 l 183 539 q 304 638 226 597 q 484 696 382 679 q 680 829 615 720 l 837 727 q 633 633 793 661 q 418 549 508 611 l 552 527 q 670 569 623 527 l 748 480 q 598 417 694 417 l 402 449 q 234 369 312 449 q 157 190 157 286 q 173 129 157 154 q 214 103 190 103 q 261 127 238 103 q 305 187 287 149 q 402 267 343 265 l 488 174 q 441 135 470 171 q 560 86 493 86 q 676 121 627 86 q 726 196 726 156 q 716 219 726 209 q 686 228 706 228 q 638 209 666 228 q 591 157 610 190 l 505 238 q 568 306 531 280 q 646 331 605 331 q 780 271 709 331 q 852 158 852 212 q 785 53 852 105 q 654 0 719 0 l 591 0 q 395 71 480 0 z "},"ఢ":{"ha":874,"x_min":39,"x_max":852,"o":"m 417 -32 q 505 -126 417 -66 l 402 -245 q 328 -178 354 -209 q 300 -126 300 -148 q 410 6 300 -88 q 421 1 417 6 q 426 -8 426 -1 l 417 -32 m 395 71 q 116 84 262 -78 q 39 252 39 169 q 147 465 39 376 q 232 518 186 497 l 183 540 q 484 698 271 661 q 680 831 614 720 l 837 728 q 763 673 816 698 q 619 632 709 648 q 453 572 530 617 q 417 549 434 562 l 552 527 q 670 569 623 527 l 748 480 q 598 417 694 417 l 402 449 q 234 369 312 449 q 157 190 157 286 q 173 129 157 154 q 214 103 190 103 q 261 127 238 103 q 305 187 287 149 q 402 267 343 265 l 488 174 q 441 135 470 171 q 560 86 493 86 q 676 121 627 86 q 726 196 726 156 q 716 219 726 209 q 686 228 706 228 q 638 209 666 228 q 591 157 610 190 l 505 238 q 568 306 531 280 q 646 331 605 331 q 780 271 709 331 q 852 158 852 212 q 785 53 852 105 q 654 0 719 0 l 591 0 q 395 71 480 0 z "},"ణ":{"ha":872,"x_min":39,"x_max":850,"o":"m 339 472 q 520 559 404 559 q 743 455 636 559 q 850 238 850 350 q 774 77 850 154 q 622 0 698 0 q 478 58 546 0 q 409 173 409 117 q 472 284 409 228 q 598 339 536 339 q 678 301 630 339 q 726 238 726 263 q 740 284 740 263 q 692 408 740 356 q 575 458 643 458 q 487 424 532 458 q 409 331 443 389 l 315 402 q 238 441 279 441 q 194 426 214 441 q 174 397 174 410 q 221 339 174 371 l 267 300 q 166 157 166 226 q 179 123 166 138 q 217 110 193 110 q 267 127 241 110 q 306 174 292 144 l 387 64 q 252 0 345 0 q 115 64 183 0 q 47 190 47 127 q 127 339 47 270 q 59 392 79 374 q 39 426 39 410 q 96 513 39 467 q 209 559 153 559 q 339 472 265 559 m 513 135 q 524 106 513 118 q 559 95 536 95 q 622 132 582 95 q 662 191 662 169 q 653 226 662 213 q 630 238 643 238 q 554 202 594 238 q 513 135 513 166 z "},"త":{"ha":841,"x_min":39,"x_max":819,"o":"m 231 213 q 260 255 260 238 q 253 282 260 273 q 238 292 247 292 q 174 269 205 292 q 143 227 143 245 q 153 200 143 208 q 181 190 161 190 q 231 213 201 190 m 584 306 q 560 331 584 331 q 512 310 536 331 q 488 274 488 289 q 496 252 488 258 q 521 245 504 245 q 559 266 537 245 q 584 306 584 286 m 488 426 q 423 485 466 474 l 365 485 q 287 400 309 440 l 152 502 q 276 615 190 567 q 483 684 363 663 q 578 722 536 693 q 640 794 619 752 l 789 706 q 726 643 774 671 q 599 602 678 615 q 480 578 521 588 q 422 552 439 567 q 444 549 434 550 l 483 541 q 543 518 514 533 q 623 426 602 482 q 766 325 713 384 q 819 205 819 265 q 715 64 819 129 q 488 0 611 0 l 387 0 q 151 77 265 0 q 39 238 39 154 q 92 343 39 289 q 195 395 147 395 q 296 340 244 395 q 348 244 348 286 q 245 110 348 161 q 413 79 315 79 q 603 134 511 79 q 694 252 694 188 q 654 300 694 280 q 622 211 654 248 q 544 174 589 174 q 447 217 498 174 q 395 301 395 261 q 421 375 395 341 q 488 426 447 409 z "},"థ":{"ha":826,"x_min":39,"x_max":803,"o":"m 497 315 q 417 245 458 260 q 323 331 363 271 q 402 402 362 384 q 497 315 443 380 m 149 205 q 173 132 149 162 q 223 103 196 103 q 323 182 279 103 q 370 221 343 221 l 488 157 q 466 144 474 153 q 458 121 458 135 q 478 93 458 108 q 527 79 498 79 q 635 136 583 79 q 687 258 687 192 q 601 388 687 325 q 413 449 513 449 q 231 373 313 449 q 149 205 149 296 m 410 -253 q 306 -135 306 -174 q 417 -1 306 -96 q 434 -16 434 -1 l 426 -40 q 448 -83 426 -57 q 513 -135 472 -106 l 410 -253 m 410 71 q 284 0 349 0 q 118 82 199 0 q 39 252 39 164 q 147 469 39 380 q 209 513 177 495 l 148 540 q 448 698 234 661 q 644 831 580 720 l 802 728 q 727 673 780 698 q 584 632 674 648 q 395 559 483 615 l 402 559 q 670 452 536 559 q 803 242 803 344 q 741 70 803 140 q 591 0 679 0 q 410 71 474 0 z "},"ద":{"ha":826,"x_min":39,"x_max":803,"o":"m 149 205 q 173 132 149 162 q 223 103 196 103 q 323 182 279 103 q 371 245 345 222 q 417 267 396 267 l 505 174 q 471 153 484 166 q 458 124 458 140 q 478 93 458 108 q 527 79 498 79 q 635 136 583 79 q 687 258 687 192 q 601 388 687 325 q 413 449 513 449 q 231 373 313 449 q 149 205 149 296 m 410 71 q 284 0 349 0 q 118 82 199 0 q 39 252 39 164 q 147 465 39 376 q 214 509 178 491 l 148 539 q 267 638 190 597 q 448 696 345 679 q 644 829 582 720 l 802 727 q 597 633 755 661 q 386 552 466 610 l 402 552 q 670 447 536 552 q 803 241 803 341 q 741 70 803 140 q 591 0 679 0 q 410 71 474 0 z "},"ధ":{"ha":826,"x_min":39,"x_max":803,"o":"m 149 205 q 173 132 149 162 q 223 103 196 103 q 323 182 279 103 q 371 245 345 222 q 417 267 396 267 l 505 174 q 471 153 484 166 q 458 124 458 140 q 478 93 458 108 q 527 79 498 79 q 635 136 583 79 q 687 258 687 192 q 601 388 687 325 q 413 449 513 449 q 231 373 313 449 q 149 205 149 296 m 410 -245 q 306 -127 306 -166 q 417 6 306 -88 q 434 -8 434 6 l 426 -32 q 513 -126 426 -67 l 410 -245 m 410 71 q 284 0 349 0 q 118 82 199 0 q 39 252 39 164 q 147 465 39 376 q 214 509 178 491 l 148 539 q 267 638 190 597 q 448 696 345 679 q 644 829 582 720 l 802 727 q 597 633 755 661 q 386 552 466 610 l 402 552 q 670 447 536 552 q 803 241 803 341 q 741 70 803 140 q 591 0 679 0 q 410 71 474 0 z "},"న":{"ha":793,"x_min":39,"x_max":771,"o":"m 164 8 q 219 31 199 8 l 291 -55 q 219 -79 248 -79 q 99 -25 160 -79 q 39 90 39 31 q 103 204 39 148 q 235 260 167 260 q 345 182 292 260 q 467 95 410 95 q 578 161 524 95 q 630 294 630 227 q 565 416 630 361 q 401 488 500 471 l 284 488 q 206 402 228 443 l 71 505 q 196 618 109 570 q 402 687 283 666 q 497 725 456 696 q 559 797 539 754 l 709 709 q 645 646 693 674 q 519 604 597 618 q 398 580 440 591 q 339 552 356 569 l 402 552 q 648 454 524 552 q 771 260 771 356 q 697 82 771 164 q 536 0 623 0 q 345 79 427 0 q 252 141 286 141 q 180 105 219 141 q 141 39 141 69 q 148 17 141 26 q 164 8 154 8 z "},"ప":{"ha":794,"x_min":39,"x_max":772,"o":"m 39 539 q 145 641 71 596 q 315 709 219 685 q 467 764 410 732 q 536 829 523 796 l 685 727 q 517 652 636 672 q 180 435 280 609 l 39 539 m 569 -8 q 371 71 440 -8 q 228 0 310 0 q 104 58 167 0 q 40 169 40 117 q 101 273 40 222 q 217 323 161 323 q 337 256 273 323 q 402 135 402 188 q 498 86 457 86 q 590 154 540 86 q 640 284 640 222 q 610 344 640 306 q 540 417 582 382 q 482 471 498 452 q 466 508 466 492 q 475 543 466 523 q 505 576 487 559 l 623 521 q 607 491 607 508 q 623 453 607 475 q 670 402 640 434 q 772 252 772 305 q 704 79 772 166 q 569 -8 636 -8 m 251 127 q 284 190 284 160 q 278 206 284 200 q 261 213 271 213 q 188 181 226 213 q 151 118 151 149 q 160 102 151 109 q 182 95 169 95 q 251 127 215 95 z "},"ఫ":{"ha":794,"x_min":39,"x_max":772,"o":"m 39 539 q 145 641 71 596 q 315 709 219 685 q 467 764 410 732 q 536 829 523 796 l 685 727 q 517 652 636 672 q 180 435 280 609 l 39 539 m 569 -8 q 371 71 440 -8 q 228 0 310 0 q 104 58 167 0 q 40 169 40 117 q 101 273 40 222 q 217 323 161 323 q 337 256 273 323 q 402 135 402 188 q 498 86 457 86 q 590 154 540 86 q 640 284 640 222 q 610 344 640 306 q 540 417 582 382 q 482 471 498 452 q 466 508 466 492 q 475 543 466 523 q 505 576 487 559 l 623 521 q 607 491 607 508 q 623 453 607 475 q 670 402 640 434 q 772 252 772 305 q 704 79 772 166 q 569 -8 636 -8 m 251 127 q 284 190 284 160 q 278 206 284 200 q 261 213 271 213 q 188 181 226 213 q 151 118 151 149 q 160 102 151 109 q 182 95 169 95 q 251 127 215 95 m 378 -8 l 371 -32 q 394 -73 371 -48 q 458 -126 417 -99 l 356 -245 q 253 -129 253 -170 q 363 6 253 -88 q 378 -8 378 6 z "},"బ":{"ha":811,"x_min":39,"x_max":789,"o":"m 417 79 q 275 0 337 0 q 142 77 213 0 q 71 221 71 153 q 94 296 71 260 q 154 355 117 332 q 209 400 192 378 q 228 433 228 419 q 219 456 228 447 q 191 466 209 466 q 151 450 174 466 q 127 415 127 434 q 141 395 127 397 l 103 362 q 39 458 39 415 q 91 521 39 488 q 192 552 144 552 q 294 496 240 552 q 348 395 348 440 q 245 284 348 360 q 174 174 174 232 q 193 123 174 144 q 236 103 212 103 q 339 190 291 103 q 417 267 386 267 l 513 182 q 466 135 466 153 q 487 98 466 117 q 527 79 508 79 q 615 143 575 79 q 654 284 654 208 q 629 351 654 318 q 561 409 604 384 q 472 497 472 461 q 521 569 472 540 q 637 527 571 539 q 623 492 623 513 q 662 426 623 453 q 755 339 722 384 q 789 252 789 293 q 729 79 789 157 q 598 0 668 0 q 417 79 498 0 z "},"భ":{"ha":1005,"x_min":39,"x_max":983,"o":"m 411 -251 q 308 -132 308 -171 q 418 1 308 -93 q 435 -13 435 1 q 430 -25 435 -18 q 427 -38 427 -32 q 514 -131 427 -73 l 411 -251 m 514 178 q 467 130 467 148 q 488 94 467 113 q 530 75 509 75 q 616 140 576 75 q 656 276 656 204 q 613 417 656 349 q 530 485 571 485 l 498 485 q 485 465 491 475 l 327 536 q 448 635 370 594 q 628 693 526 676 q 826 827 759 718 l 983 724 q 778 631 938 658 q 561 545 653 609 q 704 452 632 531 q 790 256 790 352 q 731 77 790 160 q 601 -5 671 -5 q 418 75 498 -5 q 275 -5 337 -5 q 142 71 213 -5 q 71 217 71 148 q 94 293 71 256 q 158 352 117 330 q 230 430 230 401 q 220 452 230 443 q 192 462 210 462 q 149 447 174 462 q 127 411 127 430 q 141 391 127 393 l 103 358 q 39 448 39 411 q 91 518 39 485 q 193 549 145 549 q 295 493 241 549 q 348 391 348 436 q 245 280 348 353 q 174 170 174 228 q 193 119 174 140 q 236 97 212 97 q 340 186 289 97 q 382 243 361 222 q 418 263 404 263 l 514 178 z "},"మ":{"ha":1241,"x_min":39,"x_max":1219,"o":"m 180 95 q 249 127 214 95 q 283 190 283 160 q 276 206 283 200 q 260 213 270 213 q 187 181 225 213 q 149 118 149 149 q 158 102 149 109 q 180 95 167 95 m 401 135 q 496 86 456 86 q 588 156 536 86 q 637 284 637 227 q 570 419 637 361 q 400 488 501 478 l 293 488 q 215 402 239 443 l 82 505 q 205 618 118 570 q 413 687 292 666 q 508 725 466 696 q 570 797 549 754 l 719 709 q 655 646 702 674 q 528 604 607 618 q 407 580 449 591 q 349 552 365 569 l 413 552 l 413 549 q 674 438 569 519 q 779 260 779 357 q 771 201 779 231 q 839 129 797 162 q 939 95 881 95 q 1049 154 997 95 q 1101 284 1101 214 q 1075 345 1101 313 q 1005 402 1050 376 q 903 497 903 461 q 959 576 903 545 l 1077 521 q 1053 483 1053 498 q 1104 415 1053 449 q 1187 336 1155 380 q 1219 252 1219 292 q 1147 79 1219 157 q 986 0 1075 0 q 823 45 897 0 q 737 125 770 77 q 707 82 724 103 q 566 -8 636 -8 q 370 71 462 -8 q 227 0 309 0 q 103 58 166 0 q 39 169 39 117 q 103 273 39 222 q 222 323 166 323 q 339 256 278 323 q 401 135 401 188 z "},"య":{"ha":1580,"x_min":39,"x_max":1558,"o":"m 200 135 q 328 96 252 96 q 486 157 404 96 q 569 277 569 218 q 506 387 569 336 q 370 435 443 435 q 223 367 297 435 q 149 237 149 299 q 200 135 149 175 m 687 175 q 818 96 755 96 q 933 161 881 96 q 985 295 985 226 q 930 427 985 363 q 819 491 875 491 l 763 489 q 750 469 755 480 l 592 540 q 893 698 680 661 q 1089 831 1023 720 l 1246 728 q 1171 673 1225 698 q 1028 632 1118 648 q 829 553 920 614 q 1022 458 924 548 q 1120 278 1120 369 q 1107 206 1120 241 q 1273 96 1180 96 q 1388 156 1336 96 q 1440 286 1440 215 q 1414 347 1440 315 q 1342 405 1389 378 q 1244 498 1244 463 q 1298 578 1244 548 l 1416 523 q 1393 482 1393 497 q 1406 452 1393 467 q 1455 408 1416 434 q 1526 337 1494 382 q 1558 253 1558 293 q 1486 80 1558 160 q 1325 1 1414 1 q 1171 41 1237 1 q 1071 134 1105 80 q 883 1 974 1 q 761 32 822 1 q 654 121 701 64 q 370 -6 549 -6 q 147 82 253 -6 q 39 269 39 167 q 133 461 39 370 q 339 553 227 553 q 580 427 460 532 q 701 239 701 322 q 687 175 701 201 z "},"ర":{"ha":775,"x_min":39,"x_max":753,"o":"m 306 79 q 492 139 408 79 q 576 263 576 199 q 505 389 576 328 q 357 449 434 449 q 211 383 280 449 q 141 245 141 317 q 190 125 141 173 q 306 79 239 79 m 39 276 q 171 506 39 418 l 99 539 q 219 638 141 597 q 400 696 297 679 q 596 829 531 720 l 753 727 q 549 633 709 661 q 337 552 418 610 l 339 552 q 580 447 460 552 q 701 243 701 341 q 598 72 701 144 q 362 0 495 0 q 147 93 254 0 q 39 276 39 186 z "},"ఱ":{"ha":922,"x_min":39,"x_max":900,"o":"m 607 0 q 434 71 535 0 q 292 0 384 0 q 129 101 219 0 q 39 292 39 201 q 114 467 39 383 q 276 552 188 552 q 384 502 335 552 q 434 395 434 453 q 394 325 434 357 q 304 292 354 292 q 205 348 253 292 q 166 241 166 289 q 197 148 166 193 q 260 103 228 103 q 331 174 288 103 l 260 228 q 329 260 283 260 q 395 252 375 260 q 441 276 431 276 l 466 245 l 497 245 q 556 261 530 245 q 591 306 582 279 q 513 426 513 371 q 559 510 513 467 q 654 552 607 552 q 817 447 735 552 q 900 238 900 341 q 802 79 900 160 q 607 0 702 0 m 322 386 q 335 397 322 386 q 348 434 348 409 q 314 458 348 458 q 271 434 297 458 q 245 386 245 410 q 271 362 245 362 q 322 386 296 362 m 513 174 q 472 134 472 143 q 484 117 472 125 q 513 110 497 110 q 708 171 627 110 q 789 315 789 231 q 760 394 789 354 q 702 434 731 434 q 652 412 672 434 q 631 362 631 391 q 701 260 631 301 q 630 190 681 214 q 513 174 576 167 z "},"ల":{"ha":802,"x_min":39,"x_max":780,"o":"m 646 521 q 615 472 615 505 q 631 445 615 461 l 679 402 q 754 314 727 362 q 780 221 780 266 q 672 65 780 130 q 414 0 563 0 q 152 86 265 0 q 39 284 39 173 q 113 461 39 371 q 254 552 187 552 q 378 506 322 552 q 434 411 434 461 q 395 327 434 362 q 304 292 356 292 q 213 348 252 292 q 166 229 166 291 q 222 131 166 167 q 381 95 278 95 q 565 148 484 95 q 646 276 646 201 q 617 356 646 315 q 548 418 588 396 q 472 505 472 460 q 521 569 472 540 l 646 521 m 326 387 q 356 434 356 409 q 346 450 356 443 q 318 458 336 458 q 273 433 300 458 q 245 392 245 408 q 267 362 245 362 q 326 387 297 362 z "},"ళ":{"ha":1009,"x_min":39,"x_max":987,"o":"m 467 178 q 419 118 419 149 q 435 67 419 87 q 472 48 452 48 q 504 62 492 48 q 515 100 515 77 q 502 146 515 123 q 467 178 489 169 m 239 393 q 266 431 266 415 q 249 462 266 462 q 190 440 217 462 q 158 397 158 421 q 166 379 158 387 q 192 371 174 371 q 239 393 210 371 m 310 518 q 362 421 362 470 q 297 323 362 371 l 443 283 l 540 323 q 654 413 654 375 q 601 471 654 441 q 492 501 545 501 l 491 501 q 478 480 483 491 l 315 553 q 439 655 358 613 q 604 712 519 697 q 742 762 689 727 q 826 852 794 798 l 987 746 q 911 689 966 715 q 763 648 855 663 q 552 561 643 627 q 696 504 624 548 q 798 380 798 441 q 759 315 798 348 q 654 258 719 282 l 563 227 q 630 173 605 204 q 654 107 654 141 q 596 36 654 73 q 466 0 539 0 q 325 36 393 0 q 257 108 257 71 q 286 180 257 145 q 362 243 314 215 l 201 292 q 84 346 129 312 q 39 413 39 380 q 95 515 39 463 q 205 566 152 566 q 310 518 258 566 z "},"ఴ":{"ha":922,"x_min":39,"x_max":900,"o":"m 607 104 q 434 175 535 104 q 292 104 384 104 q 129 204 219 104 q 39 396 39 305 q 114 571 39 487 q 276 656 188 656 q 384 606 335 656 q 434 498 434 557 q 394 428 434 461 q 304 396 354 396 q 205 452 253 396 q 166 345 166 393 q 197 252 166 297 q 260 206 228 206 q 331 278 288 206 l 260 332 q 329 363 283 363 q 395 356 375 363 q 441 380 431 380 l 466 349 l 497 349 q 556 365 530 349 q 591 410 582 383 q 513 530 513 475 q 559 614 513 571 q 654 656 607 656 q 817 550 735 656 q 900 341 900 445 q 802 183 900 263 q 607 104 702 104 m 322 489 q 335 501 322 489 q 348 537 348 513 q 314 562 348 562 q 271 538 297 562 q 245 490 245 514 q 271 466 245 466 q 322 489 296 466 m 513 278 q 472 238 472 247 q 484 221 472 228 q 513 214 497 214 q 708 275 627 214 q 789 419 789 335 q 760 498 789 458 q 702 537 731 537 q 652 516 672 537 q 631 466 631 495 q 701 363 631 405 q 630 293 681 318 q 513 278 576 271 z "},"వ":{"ha":798,"x_min":39,"x_max":776,"o":"m 248 127 q 282 191 282 160 q 275 206 282 200 q 258 213 269 213 q 186 183 223 213 q 149 119 149 151 q 158 103 149 110 q 179 95 166 95 q 248 127 214 95 m 400 136 q 494 87 454 87 q 585 157 533 87 q 636 284 636 228 q 568 419 636 361 q 398 488 500 476 l 293 488 q 215 402 238 443 l 80 505 q 204 617 118 569 q 410 685 291 665 q 567 796 524 707 l 717 709 q 652 645 700 672 q 527 605 605 618 q 348 552 374 578 l 410 552 l 410 549 q 672 438 567 519 q 776 265 776 357 q 705 83 776 173 q 565 -6 633 -6 q 369 73 461 -6 q 226 1 308 1 q 102 60 165 1 q 39 171 39 118 q 102 273 39 223 q 221 323 165 323 q 338 256 276 323 q 400 136 400 190 z "},"శ":{"ha":1006,"x_min":39,"x_max":1010,"o":"m 615 213 q 557 99 557 140 q 565 75 557 84 q 583 66 572 66 q 639 99 610 66 q 666 155 666 132 q 653 192 666 178 q 615 213 639 205 m 393 83 q 256 0 337 0 q 106 52 174 0 q 39 172 39 104 q 118 335 39 240 q 262 428 199 428 q 550 328 378 428 q 666 429 666 396 q 627 486 666 462 q 533 510 588 510 l 521 510 q 492 470 504 491 l 327 544 q 640 709 417 668 q 845 848 780 733 l 1010 740 q 932 682 988 709 q 782 639 876 656 q 609 578 688 623 q 596 571 602 574 q 737 522 666 559 q 839 411 839 466 q 799 343 839 383 q 689 262 759 304 q 768 203 739 234 q 797 148 797 173 q 726 49 797 99 q 586 0 654 0 q 472 39 518 0 q 427 140 427 78 q 500 271 427 201 q 361 321 432 321 q 244 250 309 321 q 179 123 179 179 q 189 95 179 106 q 212 83 199 83 q 295 165 247 83 l 393 83 z "},"ష":{"ha":922,"x_min":39,"x_max":900,"o":"m 39 539 q 145 641 71 596 q 315 709 219 685 q 467 764 410 732 q 536 829 523 796 l 685 727 q 517 652 636 672 q 180 435 280 609 l 39 539 m 559 -8 q 371 71 440 -8 q 228 0 310 0 q 104 58 167 0 q 40 169 40 117 q 101 273 40 222 q 217 323 161 323 q 337 256 273 323 q 402 135 402 188 q 498 86 457 86 q 590 154 540 86 q 640 284 640 222 q 610 344 640 306 q 540 417 582 382 q 482 471 498 452 q 466 508 466 492 q 475 543 466 523 q 505 576 487 559 l 623 521 q 607 491 607 508 q 623 453 607 475 q 670 402 640 434 q 772 252 772 305 q 694 71 772 165 q 711 4 694 32 q 748 -25 727 -25 q 783 -8 770 -25 q 797 31 797 8 l 900 -55 q 789 -141 863 -134 q 687 -97 733 -141 q 623 17 641 -53 q 559 -8 579 -8 m 251 127 q 284 190 284 160 q 278 206 284 200 q 261 213 271 213 q 188 181 226 213 q 151 118 151 149 q 160 102 151 109 q 182 95 169 95 q 251 127 215 95 z "},"స":{"ha":793,"x_min":39,"x_max":771,"o":"m 39 539 q 145 641 71 596 q 315 709 219 685 q 467 764 410 732 q 536 829 523 796 l 685 727 q 517 652 636 672 q 180 435 280 609 l 39 539 m 164 8 q 219 31 199 8 l 291 -55 q 219 -79 248 -79 q 99 -25 160 -79 q 39 90 39 31 q 103 204 39 148 q 235 260 167 260 q 345 182 292 260 q 467 95 410 95 q 578 164 524 95 q 630 300 630 232 q 609 360 630 330 q 545 414 588 389 q 448 505 448 469 q 487 569 448 532 l 630 536 q 597 480 597 510 q 653 417 597 463 q 771 252 771 318 q 696 79 771 157 q 536 0 623 0 q 345 79 427 0 q 252 141 286 141 q 180 105 219 141 q 141 39 141 69 q 148 17 141 26 q 164 8 154 8 z "},"హ":{"ha":1189,"x_min":39,"x_max":1167,"o":"m 39 539 q 145 641 71 596 q 315 709 219 685 q 467 764 410 732 q 536 829 523 796 l 685 727 q 517 652 636 672 q 180 435 280 609 l 39 539 m 705 90 q 544 0 628 0 q 371 71 460 0 q 228 0 310 0 q 104 58 167 0 q 40 171 40 117 q 104 278 40 226 q 223 331 167 331 q 341 262 279 331 q 402 135 402 192 q 504 86 457 86 q 595 149 550 86 q 640 284 640 212 q 601 373 640 328 q 497 449 562 417 q 448 441 474 441 q 371 466 404 441 l 449 583 q 576 552 504 552 l 907 552 q 1080 467 993 552 q 1167 304 1167 383 q 1108 156 1167 226 q 988 86 1049 86 q 870 141 928 86 q 813 247 813 196 q 858 343 813 299 q 960 387 903 387 q 1064 331 1016 387 q 1014 432 1064 389 q 890 472 962 472 l 805 472 q 623 458 706 472 q 738 357 696 408 q 780 267 780 306 q 705 90 780 180 m 251 127 q 284 190 284 160 q 278 206 284 200 q 261 213 271 213 q 188 181 226 213 q 151 118 151 149 q 160 102 151 109 q 182 95 169 95 q 251 127 215 95 m 998 201 q 1033 267 1033 238 q 1027 286 1033 278 q 1010 292 1019 292 q 942 257 979 292 q 907 190 907 221 q 914 173 907 180 q 929 166 920 166 q 998 201 962 166 z "},"ఽ":{"ha":1076,"x_min":39,"x_max":1054,"o":"m 1001 0 q 863 27 966 27 q 248 0 632 27 q 105 52 171 0 q 39 163 39 104 q 100 263 39 222 q 249 305 162 305 q 396 345 335 305 q 456 437 456 387 q 421 518 456 487 q 329 548 384 548 q 222 516 274 548 q 170 444 170 484 q 188 408 170 423 q 228 392 205 392 q 292 435 275 392 l 344 400 q 304 362 332 376 q 228 348 276 348 q 118 391 179 348 q 57 478 57 435 q 134 580 57 533 q 301 627 210 627 q 485 557 392 627 q 578 415 578 487 q 510 288 578 343 q 356 235 440 235 q 221 207 271 235 q 170 145 170 179 q 193 91 170 112 q 248 70 217 70 q 556 101 352 70 q 846 131 759 131 q 1054 79 1010 131 l 1001 0 z "},"ా":{"ha":746,"x_min":-283,"x_max":715,"o":"m 537 319 q 623 280 592 319 q 582 362 623 331 q 454 392 540 392 q 157 376 367 392 q -140 360 -53 360 q -283 392 -226 360 l -218 497 q -43 452 -138 452 l 518 452 q 644 381 574 452 q 715 250 715 310 q 665 126 715 190 q 563 62 614 62 q 462 107 513 62 q 411 192 411 152 q 456 276 411 232 q 537 319 501 319 m 498 161 q 521 143 498 143 q 570 168 544 143 q 596 209 596 193 q 578 241 596 241 q 526 214 553 241 q 498 161 498 186 z "},"ి":{"ha":0,"x_min":-184,"x_max":139,"o":"m -60 741 q -39 735 -55 741 q 79 667 19 735 q 139 539 139 598 q 97 439 139 479 q 10 398 55 398 q -145 458 -75 398 l -125 491 q -49 471 -103 471 q 43 496 4 471 q 79 550 79 521 q 66 576 79 566 q -29 523 23 523 q -132 562 -80 523 q -184 640 -184 601 q -148 710 -184 679 q -60 741 -112 741 m -27 609 q 0 649 0 630 q -24 668 0 668 q -77 649 -48 668 q -105 610 -105 630 q -99 596 -105 602 q -75 589 -93 589 q -27 609 -56 589 z "},"ీ":{"ha":0,"x_min":-184,"x_max":225,"o":"m 106 749 q 145 794 145 767 q 136 811 145 802 q 118 820 127 820 q 60 789 93 820 q 26 735 26 758 q 32 707 26 727 q 139 530 139 620 q 97 439 139 479 q 10 398 55 398 q -145 458 -75 398 l -125 491 q -49 471 -103 471 q 43 496 4 471 q 79 550 79 521 q 66 576 79 566 q -29 523 23 523 q -132 562 -80 523 q -184 640 -184 601 q -148 710 -184 679 q -60 741 -112 741 q -39 735 -55 741 q -45 785 -45 748 q -3 861 -45 822 q 83 900 40 900 q 175 850 126 900 q 225 754 225 801 q 184 681 225 717 l 106 749 m -27 609 q 0 649 0 630 q -24 668 0 668 q -77 649 -48 668 q -105 610 -105 630 q -99 596 -105 602 q -75 589 -93 589 q -27 609 -56 589 z "},"ు":{"ha":361,"x_min":-86,"x_max":336,"o":"m 336 200 q 276 56 336 122 q 141 -9 215 -9 q 5 28 67 -9 q -86 129 -57 65 l -86 183 l -58 193 q 12 103 -30 136 q 103 69 55 69 q 194 119 151 69 q 238 227 238 169 q 158 327 238 279 q 73 405 73 374 q 119 471 73 447 l 218 426 q 204 406 209 417 q 197 389 197 398 q 209 366 197 379 q 251 329 218 350 q 310 271 283 308 q 336 200 336 235 z "},"ూ":{"ha":717,"x_min":-86,"x_max":692,"o":"m 508 319 q 600 280 566 319 q 557 362 600 331 q 443 392 514 392 l 205 373 q 262 314 223 341 q 343 208 343 260 q 279 58 343 127 q 139 -9 214 -9 q 3 28 64 -9 q -86 129 -57 65 l -86 183 l -58 187 q 4 101 -39 134 q 96 69 47 69 q 191 127 145 69 q 238 241 238 184 q 154 332 238 266 l 105 373 q 27 392 60 373 l 99 497 q 315 452 179 452 l 495 452 q 620 380 552 452 q 692 250 692 310 q 641 126 692 190 q 541 62 591 62 q 440 107 491 62 q 389 192 389 152 q 432 276 389 232 q 508 319 474 319 m 475 161 q 498 143 475 143 q 548 168 522 143 q 574 209 574 193 q 553 241 574 241 q 501 214 528 241 q 475 161 475 186 z "},"ృ":{"ha":192,"x_min":-205,"x_max":230,"o":"m 166 -62 q 230 -229 230 -170 q 184 -326 230 -288 q 55 -363 138 -363 q -117 -326 -29 -363 q -205 -238 -205 -289 q -158 -130 -205 -187 q -68 -74 -110 -74 q 2 -95 -26 -74 q 30 -146 30 -116 q 5 -198 30 -177 q -52 -219 -21 -219 q -109 -206 -83 -219 q -116 -235 -116 -222 q -77 -286 -116 -265 q 18 -308 -38 -308 q 110 -271 73 -308 q 147 -172 147 -234 q 84 -4 147 -110 q 51 109 51 57 q 95 182 51 154 l 187 135 q 136 105 152 123 q 119 66 119 87 q 166 -62 119 21 m -87 -167 q -73 -178 -87 -178 q -46 -165 -58 -178 q -34 -143 -34 -152 q -43 -130 -34 -130 q -73 -141 -60 -130 q -87 -167 -87 -153 z "},"ౄ":{"ha":501,"x_min":-200,"x_max":487,"o":"m 335 -147 q 260 -112 300 -147 q 219 -45 219 -77 q 258 18 219 -13 q 339 49 296 49 q 409 21 383 49 q 385 63 409 42 q 328 84 361 84 l 135 77 q 129 55 129 66 q 185 -71 129 26 q 241 -227 241 -167 q 195 -325 241 -287 q 64 -363 148 -363 q -110 -326 -21 -363 q -200 -236 -200 -288 q -153 -127 -200 -184 q -61 -70 -104 -70 q 10 -91 -18 -70 q 39 -142 39 -112 q 13 -195 39 -173 q -44 -217 -13 -217 q -103 -204 -75 -217 q -109 -234 -109 -219 q -69 -285 -109 -262 q 26 -308 -30 -308 q 119 -270 82 -308 q 157 -169 157 -232 q 95 3 157 -106 q 69 53 77 31 q 60 84 60 75 q -1 117 31 90 q 75 192 39 130 q 202 148 114 148 l 315 148 q 431 104 375 148 q 487 12 487 60 q 442 -100 487 -53 q 335 -147 397 -147 m 388 -25 q 367 -14 388 -14 q 322 -32 347 -14 q 297 -61 297 -49 q 302 -78 297 -73 q 312 -83 308 -83 q 363 -63 339 -83 q 388 -25 388 -43 m -79 -165 q -65 -175 -79 -175 q -38 -162 -51 -175 q -26 -140 -26 -148 q -35 -126 -26 -126 q -66 -138 -52 -126 q -79 -165 -79 -151 z "},"ె":{"ha":0,"x_min":-288,"x_max":287,"o":"m -175 675 q -80 630 -125 630 q 38 643 -35 630 q 150 657 112 657 q 238 614 188 657 q 287 537 287 571 q 223 439 287 480 q 67 398 158 398 l -129 398 q -147 407 -139 398 q -154 426 -154 415 q -147 444 -154 436 q -129 452 -139 452 l 42 452 q 117 474 86 452 q 148 524 148 497 q 109 583 148 583 q -31 567 62 583 q -161 550 -123 550 q -288 604 -225 550 l -175 675 z "},"ే":{"ha":0,"x_min":-274,"x_max":406,"o":"m 293 662 q 327 707 327 681 q 315 726 327 718 q 287 735 304 735 q 239 704 270 735 q 208 649 208 672 l 214 622 q 263 579 245 602 q 280 537 280 556 q 200 439 280 480 q 1 398 117 398 l -141 398 q -158 408 -152 398 q -157 445 -173 423 q -138 452 -149 452 l 4 452 q 102 474 61 452 q 143 524 143 497 q 131 567 143 552 q 104 583 119 583 q -27 567 60 583 q -148 550 -113 550 q -274 604 -210 550 l -161 675 q -67 630 -110 630 q 43 643 -23 630 q 143 657 109 657 q 129 702 129 687 q 174 779 129 739 q 262 820 219 820 q 356 768 305 820 q 406 668 406 717 q 395 632 406 648 q 366 604 384 614 l 293 662 z "},"ై":{"ha":679,"x_min":71,"x_max":611,"o":"m 184 675 q 288 630 235 630 l 454 657 q 543 614 493 657 q 592 537 592 571 q 546 497 592 518 q 380 386 410 449 q 282 431 309 426 q 401 523 340 501 q 439 544 426 531 q 454 563 454 554 q 414 583 454 583 l 190 550 q 71 604 135 550 l 184 675 m 585 -254 q 500 -234 562 -234 l 230 -273 q 125 -234 178 -273 q 71 -159 71 -195 q 103 -96 71 -123 q 171 -69 134 -69 q 245 -93 208 -69 q 282 -138 282 -118 q 230 -195 282 -178 l 196 -154 q 230 -127 230 -145 q 217 -109 230 -109 q 165 -127 187 -109 q 143 -165 143 -144 q 161 -201 143 -187 q 202 -214 179 -214 l 472 -174 q 611 -227 558 -174 l 585 -254 z "},"ొ":{"ha":750,"x_min":-223,"x_max":719,"o":"m 132 597 q 278 523 199 597 q 402 604 336 604 q 613 528 506 604 q 719 384 719 453 q 670 252 719 315 q 571 188 622 188 q 465 232 521 188 q 410 323 410 276 q 450 410 410 369 q 541 452 493 452 q 627 405 602 452 q 576 480 627 441 q 483 518 526 518 q 337 373 404 518 q 231 445 253 405 l 252 484 q 145 530 206 530 l 74 530 q -31 511 17 530 q -78 472 -78 493 q -39 452 -78 452 l 21 452 l 21 398 l -105 398 q -190 422 -154 398 q -223 478 -223 445 q -144 558 -223 522 q 27 597 -66 597 l 132 597 m 496 293 q 530 267 496 267 q 570 293 546 267 q 594 343 594 319 q 572 366 594 366 q 523 341 550 366 q 496 293 496 315 z "},"ో":{"ha":794,"x_min":-223,"x_max":766,"o":"m 646 570 q 674 630 674 594 q 663 646 674 639 q 646 657 656 657 q 591 622 620 657 q 561 557 561 588 q 565 549 561 554 l 574 537 q 680 440 646 476 q 713 379 713 404 q 665 252 713 315 q 565 188 617 188 q 459 232 514 188 q 404 323 404 276 q 444 410 404 369 q 535 452 487 452 q 620 405 596 452 q 570 480 620 441 q 478 518 519 518 q 330 373 396 518 q 225 445 247 406 l 245 484 q 139 530 200 530 l 53 530 q -38 514 5 530 q -78 478 -78 496 q -64 459 -78 466 q -32 452 -51 452 l 21 452 l 21 398 l -105 398 q -184 424 -144 398 q -223 478 -223 452 q -144 558 -223 522 q 27 597 -66 597 l 126 597 q 270 523 193 597 q 389 597 325 597 q 495 570 434 597 q 482 610 482 591 q 521 691 482 654 q 607 728 561 728 q 709 677 653 728 q 766 583 766 626 q 724 511 766 545 l 646 570 m 563 293 q 588 343 588 319 q 569 366 588 366 q 517 341 544 366 q 489 299 489 315 q 517 267 489 267 q 563 293 539 267 z "},"ౌ":{"ha":718,"x_min":-223,"x_max":687,"o":"m 192 544 q 245 465 245 508 q 210 418 245 437 q 126 398 174 398 l -138 398 q -120 434 -138 417 q -84 452 -103 452 l 92 452 q 131 466 114 452 q 145 502 145 483 q 132 533 145 521 q 100 544 118 544 l -65 544 q -172 548 -135 544 q -223 565 -209 552 l -152 668 q 27 622 -71 622 l 437 622 q 609 554 530 622 q 687 405 687 485 q 639 293 687 344 q 539 241 592 241 q 435 288 487 241 q 384 377 384 334 q 426 456 384 421 q 514 491 467 491 q 594 452 561 491 q 549 526 594 495 q 437 557 502 557 q 192 544 269 557 m 541 340 q 569 389 569 367 q 546 411 569 411 q 497 385 524 411 q 470 336 470 358 q 492 313 470 313 q 541 340 514 313 z "},"్":{"ha":0,"x_min":-210,"x_max":336,"o":"m -125 544 q -210 632 -210 596 q -153 709 -210 668 q -51 749 -96 749 q 60 728 -5 749 q 156 707 125 707 q 244 741 215 707 l 336 657 q 235 610 279 610 q 129 639 191 610 q 34 668 67 668 q -43 648 0 668 q -86 610 -86 627 q -78 591 -86 600 q -58 583 -69 583 l -12 589 q 40 610 25 597 l 113 530 q 51 511 90 511 q -47 471 -21 511 q 0 452 -32 457 l 119 452 l 119 398 l -32 398 q -123 430 -71 398 q -184 491 -174 461 q -166 515 -180 501 q -125 544 -149 528 z "},"ౕ":{"ha":271,"x_min":0,"x_max":276,"o":"m 0 761 q 44 839 0 797 q 134 879 91 879 q 227 827 177 879 q 276 727 276 775 q 238 662 276 685 l 164 720 q 199 766 199 740 q 187 785 199 776 q 158 793 175 793 q 110 762 141 793 q 79 707 79 731 l 86 680 l 13 715 q 0 761 0 745 z "},"ౖ":{"ha":35,"x_min":239,"x_max":1020,"o":"m 924 -373 q 763 -326 867 -326 q 606 -354 710 -326 q 436 -383 502 -383 q 306 -337 370 -383 q 239 -242 239 -292 q 306 -145 239 -192 q 431 -97 373 -97 q 526 -125 489 -97 q 563 -192 563 -153 q 540 -225 563 -208 q 476 -258 515 -245 l 449 -239 q 467 -211 467 -230 q 445 -178 467 -192 q 396 -165 422 -165 q 356 -173 370 -165 q 343 -192 343 -180 q 399 -267 343 -235 q 521 -299 456 -299 q 687 -269 587 -299 q 841 -239 787 -239 q 1020 -315 954 -239 l 924 -373 z "},"ౘ":{"ha":1037,"x_min":0,"x_max":1015,"o":"m 648 182 q 600 135 614 166 q 624 106 606 117 q 663 95 643 95 q 755 154 713 95 q 797 284 797 214 q 718 421 797 353 q 561 489 640 489 l 530 489 q 518 470 523 480 l 360 541 q 661 700 448 662 q 857 833 794 724 l 1015 731 q 940 674 994 700 q 797 633 887 649 q 593 552 683 614 q 805 452 689 539 q 940 266 940 352 q 871 90 940 180 q 733 0 802 0 q 553 71 639 0 q 443 0 492 0 q 271 45 353 0 q 188 141 188 91 q 252 252 188 193 l 221 252 q 185 260 208 252 q 149 269 162 269 q 78 238 118 269 l 0 315 q 95 362 34 362 q 197 343 130 362 q 303 323 263 323 q 379 348 343 323 l 443 276 q 355 206 387 244 q 323 143 323 169 q 371 95 323 95 q 423 117 397 95 q 467 178 448 139 q 511 243 487 218 q 553 269 533 269 l 648 182 m 275 778 q 114 731 171 778 l 18 788 q 199 864 84 864 q 352 835 252 864 q 517 805 452 805 q 639 837 583 805 q 696 911 696 868 q 682 931 696 923 q 643 938 668 938 q 593 925 617 938 q 571 892 571 911 q 589 864 571 874 l 562 845 q 498 879 523 858 q 475 911 475 896 q 512 978 475 950 q 607 1006 549 1006 q 733 959 666 1006 q 800 861 800 911 q 732 766 800 811 q 602 720 668 720 q 432 749 536 720 q 275 778 328 778 z "},"ౙ":{"ha":826,"x_min":5,"x_max":803,"o":"m 623 576 q 591 552 591 565 q 618 500 591 531 q 646 449 646 471 q 594 369 646 406 q 468 331 543 331 q 339 362 393 331 q 312 322 332 343 q 256 273 292 299 q 174 166 174 214 q 192 121 174 140 q 235 103 212 103 q 323 182 282 103 q 368 244 343 221 q 417 267 393 267 l 513 182 q 466 135 484 164 q 549 95 491 95 q 648 123 607 95 q 687 196 687 154 q 667 244 687 214 q 646 291 646 274 q 679 348 646 326 l 797 284 q 765 252 765 273 q 784 197 765 232 q 803 141 803 161 q 751 42 803 83 q 623 0 698 0 q 434 79 526 0 q 282 0 352 0 q 142 77 213 0 q 71 221 71 153 q 157 348 71 274 q 228 434 228 404 q 219 456 228 447 q 192 466 209 466 q 155 450 175 466 q 135 423 135 434 q 138 406 135 413 l 149 395 l 103 362 q 39 447 39 406 q 84 519 39 487 q 174 552 129 552 q 339 417 265 552 q 423 402 380 402 q 501 425 466 402 q 536 474 536 448 q 508 524 536 500 q 480 566 480 549 q 527 631 480 602 l 623 576 m 262 739 q 101 692 158 739 l 5 749 q 186 826 71 826 q 339 796 239 826 q 504 766 439 766 q 626 798 570 766 q 683 872 683 829 q 669 892 683 884 q 630 900 656 900 q 580 887 604 900 q 558 853 558 872 q 576 826 558 835 l 549 806 q 485 840 510 819 q 462 872 462 857 q 499 939 462 911 q 594 967 536 967 q 720 920 653 967 q 787 822 787 872 q 719 727 787 772 q 589 681 656 681 q 419 710 523 681 q 262 739 315 739 z "}}}
